<?xml version="1.0" encoding="utf-8"?>
<svg xmlns="http://www.w3.org/2000/svg" xmlns:xlink="http://www.w3.org/1999/xlink" width="600" height="400" viewBox="0 0 2400 1600">
<defs>
  <clipPath id="clip120">
    <rect x="0" y="0" width="2400" height="1600"/>
  </clipPath>
</defs>
<path clip-path="url(#clip120)" d="M0 1600 L2400 1600 L2400 0 L0 0  Z" fill="#ffffff" fill-rule="evenodd" fill-opacity="1"/>
<defs>
  <clipPath id="clip121">
    <rect x="480" y="0" width="1681" height="1600"/>
  </clipPath>
</defs>
<path clip-path="url(#clip120)" d="M140.696 1486.45 L2352.76 1486.45 L2352.76 47.2441 L140.696 47.2441  Z" fill="#ffffff" fill-rule="evenodd" fill-opacity="1"/>
<defs>
  <clipPath id="clip122">
    <rect x="140" y="47" width="2213" height="1440"/>
  </clipPath>
</defs>
<polyline clip-path="url(#clip122)" style="stroke:#000000; stroke-linecap:round; stroke-linejoin:round; stroke-width:2; stroke-opacity:0.1; fill:none" points="251.893,1486.45 251.893,47.2441 "/>
<polyline clip-path="url(#clip122)" style="stroke:#000000; stroke-linecap:round; stroke-linejoin:round; stroke-width:2; stroke-opacity:0.1; fill:none" points="693.957,1486.45 693.957,47.2441 "/>
<polyline clip-path="url(#clip122)" style="stroke:#000000; stroke-linecap:round; stroke-linejoin:round; stroke-width:2; stroke-opacity:0.1; fill:none" points="1136.02,1486.45 1136.02,47.2441 "/>
<polyline clip-path="url(#clip122)" style="stroke:#000000; stroke-linecap:round; stroke-linejoin:round; stroke-width:2; stroke-opacity:0.1; fill:none" points="1578.08,1486.45 1578.08,47.2441 "/>
<polyline clip-path="url(#clip122)" style="stroke:#000000; stroke-linecap:round; stroke-linejoin:round; stroke-width:2; stroke-opacity:0.1; fill:none" points="2020.15,1486.45 2020.15,47.2441 "/>
<polyline clip-path="url(#clip120)" style="stroke:#000000; stroke-linecap:round; stroke-linejoin:round; stroke-width:4; stroke-opacity:1; fill:none" points="140.696,1486.45 2352.76,1486.45 "/>
<polyline clip-path="url(#clip120)" style="stroke:#000000; stroke-linecap:round; stroke-linejoin:round; stroke-width:4; stroke-opacity:1; fill:none" points="251.893,1486.45 251.893,1467.55 "/>
<polyline clip-path="url(#clip120)" style="stroke:#000000; stroke-linecap:round; stroke-linejoin:round; stroke-width:4; stroke-opacity:1; fill:none" points="693.957,1486.45 693.957,1467.55 "/>
<polyline clip-path="url(#clip120)" style="stroke:#000000; stroke-linecap:round; stroke-linejoin:round; stroke-width:4; stroke-opacity:1; fill:none" points="1136.02,1486.45 1136.02,1467.55 "/>
<polyline clip-path="url(#clip120)" style="stroke:#000000; stroke-linecap:round; stroke-linejoin:round; stroke-width:4; stroke-opacity:1; fill:none" points="1578.08,1486.45 1578.08,1467.55 "/>
<polyline clip-path="url(#clip120)" style="stroke:#000000; stroke-linecap:round; stroke-linejoin:round; stroke-width:4; stroke-opacity:1; fill:none" points="2020.15,1486.45 2020.15,1467.55 "/>
<path clip-path="url(#clip120)" d="M189.382 1544.91 L197.021 1544.91 L197.021 1518.55 L188.711 1520.21 L188.711 1515.95 L196.974 1514.29 L201.65 1514.29 L201.65 1544.91 L209.289 1544.91 L209.289 1548.85 L189.382 1548.85 L189.382 1544.91 Z" fill="#000000" fill-rule="nonzero" fill-opacity="1" /><path clip-path="url(#clip120)" d="M218.734 1542.97 L223.618 1542.97 L223.618 1548.85 L218.734 1548.85 L218.734 1542.97 Z" fill="#000000" fill-rule="nonzero" fill-opacity="1" /><path clip-path="url(#clip120)" d="M233.942 1548.13 L233.942 1543.87 Q235.701 1544.7 237.507 1545.14 Q239.312 1545.58 241.048 1545.58 Q245.678 1545.58 248.108 1542.48 Q250.562 1539.36 250.909 1533.01 Q249.567 1535.01 247.507 1536.07 Q245.446 1537.13 242.946 1537.13 Q237.761 1537.13 234.729 1534.01 Q231.72 1530.86 231.72 1525.42 Q231.72 1520.1 234.868 1516.88 Q238.016 1513.66 243.247 1513.66 Q249.243 1513.66 252.391 1518.27 Q255.562 1522.85 255.562 1531.6 Q255.562 1539.77 251.673 1544.66 Q247.808 1549.52 241.257 1549.52 Q239.497 1549.52 237.692 1549.17 Q235.886 1548.82 233.942 1548.13 M243.247 1533.48 Q246.396 1533.48 248.224 1531.32 Q250.076 1529.17 250.076 1525.42 Q250.076 1521.7 248.224 1519.54 Q246.396 1517.37 243.247 1517.37 Q240.099 1517.37 238.247 1519.54 Q236.419 1521.7 236.419 1525.42 Q236.419 1529.17 238.247 1531.32 Q240.099 1533.48 243.247 1533.48 Z" fill="#000000" fill-rule="nonzero" fill-opacity="1" /><path clip-path="url(#clip120)" d="M267.993 1544.91 L284.312 1544.91 L284.312 1548.85 L262.368 1548.85 L262.368 1544.91 Q265.03 1542.16 269.613 1537.53 Q274.219 1532.88 275.4 1531.53 Q277.645 1529.01 278.525 1527.27 Q279.428 1525.51 279.428 1523.82 Q279.428 1521.07 277.483 1519.33 Q275.562 1517.6 272.46 1517.6 Q270.261 1517.6 267.807 1518.36 Q265.377 1519.13 262.599 1520.68 L262.599 1515.95 Q265.423 1514.82 267.877 1514.24 Q270.331 1513.66 272.368 1513.66 Q277.738 1513.66 280.932 1516.35 Q284.127 1519.03 284.127 1523.52 Q284.127 1525.65 283.317 1527.57 Q282.53 1529.47 280.423 1532.07 Q279.844 1532.74 276.743 1535.95 Q273.641 1539.15 267.993 1544.91 Z" fill="#000000" fill-rule="nonzero" fill-opacity="1" /><path clip-path="url(#clip120)" d="M294.173 1514.29 L312.529 1514.29 L312.529 1518.22 L298.455 1518.22 L298.455 1526.7 Q299.474 1526.35 300.492 1526.19 Q301.511 1526 302.529 1526 Q308.316 1526 311.696 1529.17 Q315.076 1532.34 315.076 1537.76 Q315.076 1543.34 311.604 1546.44 Q308.131 1549.52 301.812 1549.52 Q299.636 1549.52 297.367 1549.15 Q295.122 1548.78 292.715 1548.04 L292.715 1543.34 Q294.798 1544.47 297.02 1545.03 Q299.242 1545.58 301.719 1545.58 Q305.724 1545.58 308.062 1543.48 Q310.4 1541.37 310.4 1537.76 Q310.4 1534.15 308.062 1532.04 Q305.724 1529.94 301.719 1529.94 Q299.844 1529.94 297.969 1530.35 Q296.117 1530.77 294.173 1531.65 L294.173 1514.29 Z" fill="#000000" fill-rule="nonzero" fill-opacity="1" /><path clip-path="url(#clip120)" d="M630.948 1544.91 L638.587 1544.91 L638.587 1518.55 L630.276 1520.21 L630.276 1515.95 L638.54 1514.29 L643.216 1514.29 L643.216 1544.91 L650.855 1544.91 L650.855 1548.85 L630.948 1548.85 L630.948 1544.91 Z" fill="#000000" fill-rule="nonzero" fill-opacity="1" /><path clip-path="url(#clip120)" d="M660.299 1542.97 L665.184 1542.97 L665.184 1548.85 L660.299 1548.85 L660.299 1542.97 Z" fill="#000000" fill-rule="nonzero" fill-opacity="1" /><path clip-path="url(#clip120)" d="M675.508 1548.13 L675.508 1543.87 Q677.267 1544.7 679.072 1545.14 Q680.878 1545.58 682.614 1545.58 Q687.244 1545.58 689.674 1542.48 Q692.128 1539.36 692.475 1533.01 Q691.133 1535.01 689.072 1536.07 Q687.012 1537.13 684.512 1537.13 Q679.327 1537.13 676.295 1534.01 Q673.285 1530.86 673.285 1525.42 Q673.285 1520.1 676.434 1516.88 Q679.582 1513.66 684.813 1513.66 Q690.808 1513.66 693.957 1518.27 Q697.128 1522.85 697.128 1531.6 Q697.128 1539.77 693.239 1544.66 Q689.373 1549.52 682.822 1549.52 Q681.063 1549.52 679.258 1549.17 Q677.452 1548.82 675.508 1548.13 M684.813 1533.48 Q687.961 1533.48 689.79 1531.32 Q691.642 1529.17 691.642 1525.42 Q691.642 1521.7 689.79 1519.54 Q687.961 1517.37 684.813 1517.37 Q681.665 1517.37 679.813 1519.54 Q677.984 1521.7 677.984 1525.42 Q677.984 1529.17 679.813 1531.32 Q681.665 1533.48 684.813 1533.48 Z" fill="#000000" fill-rule="nonzero" fill-opacity="1" /><path clip-path="url(#clip120)" d="M705.577 1514.29 L723.933 1514.29 L723.933 1518.22 L709.859 1518.22 L709.859 1526.7 Q710.878 1526.35 711.896 1526.19 Q712.915 1526 713.933 1526 Q719.72 1526 723.1 1529.17 Q726.48 1532.34 726.48 1537.76 Q726.48 1543.34 723.007 1546.44 Q719.535 1549.52 713.216 1549.52 Q711.04 1549.52 708.771 1549.15 Q706.526 1548.78 704.119 1548.04 L704.119 1543.34 Q706.202 1544.47 708.424 1545.03 Q710.646 1545.58 713.123 1545.58 Q717.128 1545.58 719.466 1543.48 Q721.804 1541.37 721.804 1537.76 Q721.804 1534.15 719.466 1532.04 Q717.128 1529.94 713.123 1529.94 Q711.248 1529.94 709.373 1530.35 Q707.521 1530.77 705.577 1531.65 L705.577 1514.29 Z" fill="#000000" fill-rule="nonzero" fill-opacity="1" /><path clip-path="url(#clip120)" d="M745.692 1517.37 Q742.081 1517.37 740.253 1520.93 Q738.447 1524.47 738.447 1531.6 Q738.447 1538.71 740.253 1542.27 Q742.081 1545.82 745.692 1545.82 Q749.327 1545.82 751.132 1542.27 Q752.961 1538.71 752.961 1531.6 Q752.961 1524.47 751.132 1520.93 Q749.327 1517.37 745.692 1517.37 M745.692 1513.66 Q751.503 1513.66 754.558 1518.27 Q757.637 1522.85 757.637 1531.6 Q757.637 1540.33 754.558 1544.94 Q751.503 1549.52 745.692 1549.52 Q739.882 1549.52 736.804 1544.94 Q733.748 1540.33 733.748 1531.6 Q733.748 1522.85 736.804 1518.27 Q739.882 1513.66 745.692 1513.66 Z" fill="#000000" fill-rule="nonzero" fill-opacity="1" /><path clip-path="url(#clip120)" d="M1073.51 1544.91 L1081.15 1544.91 L1081.15 1518.55 L1072.84 1520.21 L1072.84 1515.95 L1081.1 1514.29 L1085.78 1514.29 L1085.78 1544.91 L1093.42 1544.91 L1093.42 1548.85 L1073.51 1548.85 L1073.51 1544.91 Z" fill="#000000" fill-rule="nonzero" fill-opacity="1" /><path clip-path="url(#clip120)" d="M1102.86 1542.97 L1107.74 1542.97 L1107.74 1548.85 L1102.86 1548.85 L1102.86 1542.97 Z" fill="#000000" fill-rule="nonzero" fill-opacity="1" /><path clip-path="url(#clip120)" d="M1118.07 1548.13 L1118.07 1543.87 Q1119.83 1544.7 1121.63 1545.14 Q1123.44 1545.58 1125.18 1545.58 Q1129.8 1545.58 1132.24 1542.48 Q1134.69 1539.36 1135.04 1533.01 Q1133.69 1535.01 1131.63 1536.07 Q1129.57 1537.13 1127.07 1537.13 Q1121.89 1537.13 1118.86 1534.01 Q1115.85 1530.86 1115.85 1525.42 Q1115.85 1520.1 1118.99 1516.88 Q1122.14 1513.66 1127.37 1513.66 Q1133.37 1513.66 1136.52 1518.27 Q1139.69 1522.85 1139.69 1531.6 Q1139.69 1539.77 1135.8 1544.66 Q1131.93 1549.52 1125.38 1549.52 Q1123.62 1549.52 1121.82 1549.17 Q1120.01 1548.82 1118.07 1548.13 M1127.37 1533.48 Q1130.52 1533.48 1132.35 1531.32 Q1134.2 1529.17 1134.2 1525.42 Q1134.2 1521.7 1132.35 1519.54 Q1130.52 1517.37 1127.37 1517.37 Q1124.23 1517.37 1122.37 1519.54 Q1120.55 1521.7 1120.55 1525.42 Q1120.55 1529.17 1122.37 1531.32 Q1124.23 1533.48 1127.37 1533.48 Z" fill="#000000" fill-rule="nonzero" fill-opacity="1" /><path clip-path="url(#clip120)" d="M1146.91 1514.29 L1169.13 1514.29 L1169.13 1516.28 L1156.59 1548.85 L1151.7 1548.85 L1163.51 1518.22 L1146.91 1518.22 L1146.91 1514.29 Z" fill="#000000" fill-rule="nonzero" fill-opacity="1" /><path clip-path="url(#clip120)" d="M1178.3 1514.29 L1196.66 1514.29 L1196.66 1518.22 L1182.58 1518.22 L1182.58 1526.7 Q1183.6 1526.35 1184.62 1526.19 Q1185.64 1526 1186.66 1526 Q1192.44 1526 1195.82 1529.17 Q1199.2 1532.34 1199.2 1537.76 Q1199.2 1543.34 1195.73 1546.44 Q1192.26 1549.52 1185.94 1549.52 Q1183.76 1549.52 1181.49 1549.15 Q1179.25 1548.78 1176.84 1548.04 L1176.84 1543.34 Q1178.92 1544.47 1181.15 1545.03 Q1183.37 1545.58 1185.85 1545.58 Q1189.85 1545.58 1192.19 1543.48 Q1194.53 1541.37 1194.53 1537.76 Q1194.53 1534.15 1192.19 1532.04 Q1189.85 1529.94 1185.85 1529.94 Q1183.97 1529.94 1182.1 1530.35 Q1180.24 1530.77 1178.3 1531.65 L1178.3 1514.29 Z" fill="#000000" fill-rule="nonzero" fill-opacity="1" /><path clip-path="url(#clip120)" d="M1519.16 1544.91 L1535.48 1544.91 L1535.48 1548.85 L1513.54 1548.85 L1513.54 1544.91 Q1516.2 1542.16 1520.78 1537.53 Q1525.39 1532.88 1526.57 1531.53 Q1528.81 1529.01 1529.69 1527.27 Q1530.6 1525.51 1530.6 1523.82 Q1530.6 1521.07 1528.65 1519.33 Q1526.73 1517.6 1523.63 1517.6 Q1521.43 1517.6 1518.98 1518.36 Q1516.54 1519.13 1513.77 1520.68 L1513.77 1515.95 Q1516.59 1514.82 1519.04 1514.24 Q1521.5 1513.66 1523.54 1513.66 Q1528.91 1513.66 1532.1 1516.35 Q1535.29 1519.03 1535.29 1523.52 Q1535.29 1525.65 1534.48 1527.57 Q1533.7 1529.47 1531.59 1532.07 Q1531.01 1532.74 1527.91 1535.95 Q1524.81 1539.15 1519.16 1544.91 Z" fill="#000000" fill-rule="nonzero" fill-opacity="1" /><path clip-path="url(#clip120)" d="M1545.29 1542.97 L1550.18 1542.97 L1550.18 1548.85 L1545.29 1548.85 L1545.29 1542.97 Z" fill="#000000" fill-rule="nonzero" fill-opacity="1" /><path clip-path="url(#clip120)" d="M1570.36 1517.37 Q1566.75 1517.37 1564.92 1520.93 Q1563.12 1524.47 1563.12 1531.6 Q1563.12 1538.71 1564.92 1542.27 Q1566.75 1545.82 1570.36 1545.82 Q1574 1545.82 1575.8 1542.27 Q1577.63 1538.71 1577.63 1531.6 Q1577.63 1524.47 1575.8 1520.93 Q1574 1517.37 1570.36 1517.37 M1570.36 1513.66 Q1576.17 1513.66 1579.23 1518.27 Q1582.31 1522.85 1582.31 1531.6 Q1582.31 1540.33 1579.23 1544.94 Q1576.17 1549.52 1570.36 1549.52 Q1564.55 1549.52 1561.47 1544.94 Q1558.42 1540.33 1558.42 1531.6 Q1558.42 1522.85 1561.47 1518.27 Q1564.55 1513.66 1570.36 1513.66 Z" fill="#000000" fill-rule="nonzero" fill-opacity="1" /><path clip-path="url(#clip120)" d="M1600.53 1517.37 Q1596.91 1517.37 1595.09 1520.93 Q1593.28 1524.47 1593.28 1531.6 Q1593.28 1538.71 1595.09 1542.27 Q1596.91 1545.82 1600.53 1545.82 Q1604.16 1545.82 1605.97 1542.27 Q1607.79 1538.71 1607.79 1531.6 Q1607.79 1524.47 1605.97 1520.93 Q1604.16 1517.37 1600.53 1517.37 M1600.53 1513.66 Q1606.34 1513.66 1609.39 1518.27 Q1612.47 1522.85 1612.47 1531.6 Q1612.47 1540.33 1609.39 1544.94 Q1606.34 1549.52 1600.53 1549.52 Q1594.72 1549.52 1591.64 1544.94 Q1588.58 1540.33 1588.58 1531.6 Q1588.58 1522.85 1591.64 1518.27 Q1594.72 1513.66 1600.53 1513.66 Z" fill="#000000" fill-rule="nonzero" fill-opacity="1" /><path clip-path="url(#clip120)" d="M1630.69 1517.37 Q1627.08 1517.37 1625.25 1520.93 Q1623.44 1524.47 1623.44 1531.6 Q1623.44 1538.71 1625.25 1542.27 Q1627.08 1545.82 1630.69 1545.82 Q1634.32 1545.82 1636.13 1542.27 Q1637.96 1538.71 1637.96 1531.6 Q1637.96 1524.47 1636.13 1520.93 Q1634.32 1517.37 1630.69 1517.37 M1630.69 1513.66 Q1636.5 1513.66 1639.55 1518.27 Q1642.63 1522.85 1642.63 1531.6 Q1642.63 1540.33 1639.55 1544.94 Q1636.5 1549.52 1630.69 1549.52 Q1624.88 1549.52 1621.8 1544.94 Q1618.74 1540.33 1618.74 1531.6 Q1618.74 1522.85 1621.8 1518.27 Q1624.88 1513.66 1630.69 1513.66 Z" fill="#000000" fill-rule="nonzero" fill-opacity="1" /><path clip-path="url(#clip120)" d="M1961.72 1544.91 L1978.04 1544.91 L1978.04 1548.85 L1956.1 1548.85 L1956.1 1544.91 Q1958.76 1542.16 1963.34 1537.53 Q1967.95 1532.88 1969.13 1531.53 Q1971.37 1529.01 1972.25 1527.27 Q1973.16 1525.51 1973.16 1523.82 Q1973.16 1521.07 1971.21 1519.33 Q1969.29 1517.6 1966.19 1517.6 Q1963.99 1517.6 1961.54 1518.36 Q1959.11 1519.13 1956.33 1520.68 L1956.33 1515.95 Q1959.15 1514.82 1961.61 1514.24 Q1964.06 1513.66 1966.1 1513.66 Q1971.47 1513.66 1974.66 1516.35 Q1977.86 1519.03 1977.86 1523.52 Q1977.86 1525.65 1977.05 1527.57 Q1976.26 1529.47 1974.15 1532.07 Q1973.57 1532.74 1970.47 1535.95 Q1967.37 1539.15 1961.72 1544.91 Z" fill="#000000" fill-rule="nonzero" fill-opacity="1" /><path clip-path="url(#clip120)" d="M1987.86 1542.97 L1992.74 1542.97 L1992.74 1548.85 L1987.86 1548.85 L1987.86 1542.97 Z" fill="#000000" fill-rule="nonzero" fill-opacity="1" /><path clip-path="url(#clip120)" d="M2012.92 1517.37 Q2009.31 1517.37 2007.48 1520.93 Q2005.68 1524.47 2005.68 1531.6 Q2005.68 1538.71 2007.48 1542.27 Q2009.31 1545.82 2012.92 1545.82 Q2016.56 1545.82 2018.36 1542.27 Q2020.19 1538.71 2020.19 1531.6 Q2020.19 1524.47 2018.36 1520.93 Q2016.56 1517.37 2012.92 1517.37 M2012.92 1513.66 Q2018.73 1513.66 2021.79 1518.27 Q2024.87 1522.85 2024.87 1531.6 Q2024.87 1540.33 2021.79 1544.94 Q2018.73 1549.52 2012.92 1549.52 Q2007.11 1549.52 2004.04 1544.94 Q2000.98 1540.33 2000.98 1531.6 Q2000.98 1522.85 2004.04 1518.27 Q2007.11 1513.66 2012.92 1513.66 Z" fill="#000000" fill-rule="nonzero" fill-opacity="1" /><path clip-path="url(#clip120)" d="M2037.11 1544.91 L2053.43 1544.91 L2053.43 1548.85 L2031.49 1548.85 L2031.49 1544.91 Q2034.15 1542.16 2038.73 1537.53 Q2043.34 1532.88 2044.52 1531.53 Q2046.77 1529.01 2047.65 1527.27 Q2048.55 1525.51 2048.55 1523.82 Q2048.55 1521.07 2046.61 1519.33 Q2044.68 1517.6 2041.58 1517.6 Q2039.38 1517.6 2036.93 1518.36 Q2034.5 1519.13 2031.72 1520.68 L2031.72 1515.95 Q2034.55 1514.82 2037 1514.24 Q2039.45 1513.66 2041.49 1513.66 Q2046.86 1513.66 2050.05 1516.35 Q2053.25 1519.03 2053.25 1523.52 Q2053.25 1525.65 2052.44 1527.57 Q2051.65 1529.47 2049.54 1532.07 Q2048.97 1532.74 2045.86 1535.95 Q2042.76 1539.15 2037.11 1544.91 Z" fill="#000000" fill-rule="nonzero" fill-opacity="1" /><path clip-path="url(#clip120)" d="M2063.29 1514.29 L2081.65 1514.29 L2081.65 1518.22 L2067.58 1518.22 L2067.58 1526.7 Q2068.6 1526.35 2069.61 1526.19 Q2070.63 1526 2071.65 1526 Q2077.44 1526 2080.82 1529.17 Q2084.2 1532.34 2084.2 1537.76 Q2084.2 1543.34 2080.73 1546.44 Q2077.25 1549.52 2070.93 1549.52 Q2068.76 1549.52 2066.49 1549.15 Q2064.24 1548.78 2061.84 1548.04 L2061.84 1543.34 Q2063.92 1544.47 2066.14 1545.03 Q2068.36 1545.58 2070.84 1545.58 Q2074.85 1545.58 2077.18 1543.48 Q2079.52 1541.37 2079.52 1537.76 Q2079.52 1534.15 2077.18 1532.04 Q2074.85 1529.94 2070.84 1529.94 Q2068.97 1529.94 2067.09 1530.35 Q2065.24 1530.77 2063.29 1531.65 L2063.29 1514.29 Z" fill="#000000" fill-rule="nonzero" fill-opacity="1" /><polyline clip-path="url(#clip122)" style="stroke:#000000; stroke-linecap:round; stroke-linejoin:round; stroke-width:2; stroke-opacity:0.1; fill:none" points="140.696,1445.72 2352.76,1445.72 "/>
<polyline clip-path="url(#clip122)" style="stroke:#000000; stroke-linecap:round; stroke-linejoin:round; stroke-width:2; stroke-opacity:0.1; fill:none" points="140.696,1189.89 2352.76,1189.89 "/>
<polyline clip-path="url(#clip122)" style="stroke:#000000; stroke-linecap:round; stroke-linejoin:round; stroke-width:2; stroke-opacity:0.1; fill:none" points="140.696,934.057 2352.76,934.057 "/>
<polyline clip-path="url(#clip122)" style="stroke:#000000; stroke-linecap:round; stroke-linejoin:round; stroke-width:2; stroke-opacity:0.1; fill:none" points="140.696,678.228 2352.76,678.228 "/>
<polyline clip-path="url(#clip122)" style="stroke:#000000; stroke-linecap:round; stroke-linejoin:round; stroke-width:2; stroke-opacity:0.1; fill:none" points="140.696,422.399 2352.76,422.399 "/>
<polyline clip-path="url(#clip122)" style="stroke:#000000; stroke-linecap:round; stroke-linejoin:round; stroke-width:2; stroke-opacity:0.1; fill:none" points="140.696,166.569 2352.76,166.569 "/>
<polyline clip-path="url(#clip120)" style="stroke:#000000; stroke-linecap:round; stroke-linejoin:round; stroke-width:4; stroke-opacity:1; fill:none" points="140.696,1486.45 140.696,47.2441 "/>
<polyline clip-path="url(#clip120)" style="stroke:#000000; stroke-linecap:round; stroke-linejoin:round; stroke-width:4; stroke-opacity:1; fill:none" points="140.696,1445.72 159.593,1445.72 "/>
<polyline clip-path="url(#clip120)" style="stroke:#000000; stroke-linecap:round; stroke-linejoin:round; stroke-width:4; stroke-opacity:1; fill:none" points="140.696,1189.89 159.593,1189.89 "/>
<polyline clip-path="url(#clip120)" style="stroke:#000000; stroke-linecap:round; stroke-linejoin:round; stroke-width:4; stroke-opacity:1; fill:none" points="140.696,934.057 159.593,934.057 "/>
<polyline clip-path="url(#clip120)" style="stroke:#000000; stroke-linecap:round; stroke-linejoin:round; stroke-width:4; stroke-opacity:1; fill:none" points="140.696,678.228 159.593,678.228 "/>
<polyline clip-path="url(#clip120)" style="stroke:#000000; stroke-linecap:round; stroke-linejoin:round; stroke-width:4; stroke-opacity:1; fill:none" points="140.696,422.399 159.593,422.399 "/>
<polyline clip-path="url(#clip120)" style="stroke:#000000; stroke-linecap:round; stroke-linejoin:round; stroke-width:4; stroke-opacity:1; fill:none" points="140.696,166.569 159.593,166.569 "/>
<path clip-path="url(#clip120)" d="M92.7512 1431.51 Q89.1401 1431.51 87.3114 1435.08 Q85.5058 1438.62 85.5058 1445.75 Q85.5058 1452.86 87.3114 1456.42 Q89.1401 1459.96 92.7512 1459.96 Q96.3854 1459.96 98.1909 1456.42 Q100.02 1452.86 100.02 1445.75 Q100.02 1438.62 98.1909 1435.08 Q96.3854 1431.51 92.7512 1431.51 M92.7512 1427.81 Q98.5613 1427.81 101.617 1432.42 Q104.696 1437 104.696 1445.75 Q104.696 1454.48 101.617 1459.08 Q98.5613 1463.67 92.7512 1463.67 Q86.941 1463.67 83.8623 1459.08 Q80.8068 1454.48 80.8068 1445.75 Q80.8068 1437 83.8623 1432.42 Q86.941 1427.81 92.7512 1427.81 Z" fill="#000000" fill-rule="nonzero" fill-opacity="1" /><path clip-path="url(#clip120)" d="M83.7929 1172.61 L102.149 1172.61 L102.149 1176.54 L88.0753 1176.54 L88.0753 1185.01 Q89.0938 1184.67 90.1123 1184.5 Q91.1308 1184.32 92.1493 1184.32 Q97.9363 1184.32 101.316 1187.49 Q104.696 1190.66 104.696 1196.08 Q104.696 1201.66 101.223 1204.76 Q97.7511 1207.84 91.4317 1207.84 Q89.2558 1207.84 86.9873 1207.47 Q84.7419 1207.1 82.3346 1206.36 L82.3346 1201.66 Q84.4179 1202.79 86.6401 1203.35 Q88.8623 1203.9 91.3391 1203.9 Q95.3437 1203.9 97.6817 1201.8 Q100.02 1199.69 100.02 1196.08 Q100.02 1192.47 97.6817 1190.36 Q95.3437 1188.25 91.3391 1188.25 Q89.4641 1188.25 87.5892 1188.67 Q85.7373 1189.09 83.7929 1189.97 L83.7929 1172.61 Z" fill="#000000" fill-rule="nonzero" fill-opacity="1" /><path clip-path="url(#clip120)" d="M53.3995 947.402 L61.0384 947.402 L61.0384 921.036 L52.7282 922.703 L52.7282 918.444 L60.9921 916.777 L65.668 916.777 L65.668 947.402 L73.3068 947.402 L73.3068 951.337 L53.3995 951.337 L53.3995 947.402 Z" fill="#000000" fill-rule="nonzero" fill-opacity="1" /><path clip-path="url(#clip120)" d="M92.7512 919.856 Q89.1401 919.856 87.3114 923.421 Q85.5058 926.962 85.5058 934.092 Q85.5058 941.198 87.3114 944.763 Q89.1401 948.305 92.7512 948.305 Q96.3854 948.305 98.1909 944.763 Q100.02 941.198 100.02 934.092 Q100.02 926.962 98.1909 923.421 Q96.3854 919.856 92.7512 919.856 M92.7512 916.152 Q98.5613 916.152 101.617 920.759 Q104.696 925.342 104.696 934.092 Q104.696 942.819 101.617 947.425 Q98.5613 952.008 92.7512 952.008 Q86.941 952.008 83.8623 947.425 Q80.8068 942.819 80.8068 934.092 Q80.8068 925.342 83.8623 920.759 Q86.941 916.152 92.7512 916.152 Z" fill="#000000" fill-rule="nonzero" fill-opacity="1" /><path clip-path="url(#clip120)" d="M54.3949 691.573 L62.0337 691.573 L62.0337 665.207 L53.7236 666.874 L53.7236 662.615 L61.9874 660.948 L66.6633 660.948 L66.6633 691.573 L74.3022 691.573 L74.3022 695.508 L54.3949 695.508 L54.3949 691.573 Z" fill="#000000" fill-rule="nonzero" fill-opacity="1" /><path clip-path="url(#clip120)" d="M83.7929 660.948 L102.149 660.948 L102.149 664.883 L88.0753 664.883 L88.0753 673.355 Q89.0938 673.008 90.1123 672.846 Q91.1308 672.661 92.1493 672.661 Q97.9363 672.661 101.316 675.832 Q104.696 679.003 104.696 684.42 Q104.696 689.999 101.223 693.101 Q97.7511 696.179 91.4317 696.179 Q89.2558 696.179 86.9873 695.809 Q84.7419 695.439 82.3346 694.698 L82.3346 689.999 Q84.4179 691.133 86.6401 691.689 Q88.8623 692.244 91.3391 692.244 Q95.3437 692.244 97.6817 690.138 Q100.02 688.031 100.02 684.42 Q100.02 680.809 97.6817 678.702 Q95.3437 676.596 91.3391 676.596 Q89.4641 676.596 87.5892 677.013 Q85.7373 677.429 83.7929 678.309 L83.7929 660.948 Z" fill="#000000" fill-rule="nonzero" fill-opacity="1" /><path clip-path="url(#clip120)" d="M56.6171 435.744 L72.9365 435.744 L72.9365 439.679 L50.9921 439.679 L50.9921 435.744 Q53.6541 432.989 58.2375 428.359 Q62.8439 423.707 64.0245 422.364 Q66.2698 419.841 67.1494 418.105 Q68.0522 416.346 68.0522 414.656 Q68.0522 411.901 66.1078 410.165 Q64.1865 408.429 61.0847 408.429 Q58.8856 408.429 56.4319 409.193 Q54.0014 409.957 51.2236 411.508 L51.2236 406.785 Q54.0477 405.651 56.5014 405.072 Q58.955 404.494 60.9921 404.494 Q66.3624 404.494 69.5568 407.179 Q72.7513 409.864 72.7513 414.355 Q72.7513 416.484 71.9411 418.406 Q71.1541 420.304 69.0476 422.896 Q68.4689 423.568 65.367 426.785 Q62.2652 429.98 56.6171 435.744 Z" fill="#000000" fill-rule="nonzero" fill-opacity="1" /><path clip-path="url(#clip120)" d="M92.7512 408.197 Q89.1401 408.197 87.3114 411.762 Q85.5058 415.304 85.5058 422.433 Q85.5058 429.54 87.3114 433.105 Q89.1401 436.646 92.7512 436.646 Q96.3854 436.646 98.1909 433.105 Q100.02 429.54 100.02 422.433 Q100.02 415.304 98.1909 411.762 Q96.3854 408.197 92.7512 408.197 M92.7512 404.494 Q98.5613 404.494 101.617 409.1 Q104.696 413.683 104.696 422.433 Q104.696 431.16 101.617 435.767 Q98.5613 440.35 92.7512 440.35 Q86.941 440.35 83.8623 435.767 Q80.8068 431.16 80.8068 422.433 Q80.8068 413.683 83.8623 409.1 Q86.941 404.494 92.7512 404.494 Z" fill="#000000" fill-rule="nonzero" fill-opacity="1" /><path clip-path="url(#clip120)" d="M57.6125 179.914 L73.9318 179.914 L73.9318 183.849 L51.9875 183.849 L51.9875 179.914 Q54.6495 177.16 59.2328 172.53 Q63.8393 167.877 65.0198 166.535 Q67.2652 164.012 68.1448 162.276 Q69.0476 160.516 69.0476 158.826 Q69.0476 156.072 67.1032 154.336 Q65.1819 152.6 62.08 152.6 Q59.881 152.6 57.4273 153.364 Q54.9967 154.127 52.219 155.678 L52.219 150.956 Q55.043 149.822 57.4967 149.243 Q59.9504 148.664 61.9874 148.664 Q67.3578 148.664 70.5522 151.35 Q73.7466 154.035 73.7466 158.526 Q73.7466 160.655 72.9365 162.576 Q72.1494 164.475 70.0429 167.067 Q69.4642 167.738 66.3624 170.956 Q63.2606 174.15 57.6125 179.914 Z" fill="#000000" fill-rule="nonzero" fill-opacity="1" /><path clip-path="url(#clip120)" d="M83.7929 149.289 L102.149 149.289 L102.149 153.225 L88.0753 153.225 L88.0753 161.697 Q89.0938 161.35 90.1123 161.188 Q91.1308 161.002 92.1493 161.002 Q97.9363 161.002 101.316 164.174 Q104.696 167.345 104.696 172.762 Q104.696 178.34 101.223 181.442 Q97.7511 184.521 91.4317 184.521 Q89.2558 184.521 86.9873 184.15 Q84.7419 183.78 82.3346 183.039 L82.3346 178.34 Q84.4179 179.474 86.6401 180.03 Q88.8623 180.586 91.3391 180.586 Q95.3437 180.586 97.6817 178.479 Q100.02 176.373 100.02 172.762 Q100.02 169.15 97.6817 167.044 Q95.3437 164.938 91.3391 164.938 Q89.4641 164.938 87.5892 165.354 Q85.7373 165.771 83.7929 166.65 L83.7929 149.289 Z" fill="#000000" fill-rule="nonzero" fill-opacity="1" /><path clip-path="url(#clip122)" d="M203.301 1443.67 L208.438 1443.66 L213.575 1443.71 L218.713 1443.8 L223.85 1443.89 L228.987 1443.96 L234.124 1443.97 L239.262 1443.91 L244.399 1443.74 L249.536 1443.47 L254.673 1443.08 L259.81 1442.59 L264.948 1442.01 L270.085 1441.35 L275.222 1440.64 L280.359 1439.91 L285.496 1439.19 L290.634 1438.52 L295.771 1437.92 L300.908 1437.42 L306.045 1437.03 L311.183 1436.76 L316.32 1436.61 L321.457 1436.56 L326.594 1436.6 L331.731 1436.71 L336.869 1436.84 L342.006 1436.97 L347.143 1437.04 L352.28 1437.01 L357.418 1436.85 L362.555 1436.52 L367.692 1436 L372.829 1435.32 L377.966 1434.49 L383.104 1433.56 L388.241 1432.55 L393.378 1431.51 L398.515 1430.44 L403.652 1429.31 L408.79 1428.1 L413.927 1426.75 L419.064 1425.18 L424.201 1423.38 L429.339 1421.31 L434.476 1419.01 L439.613 1416.5 L444.75 1413.85 L449.887 1411.08 L455.025 1408.21 L460.162 1405.18 L465.299 1401.93 L470.436 1398.33 L475.574 1394.27 L480.711 1389.65 L485.848 1384.44 L490.985 1378.68 L496.122 1372.46 L501.26 1365.94 L506.397 1359.31 L511.534 1352.74 L516.671 1346.41 L521.808 1340.45 L526.946 1334.94 L532.083 1329.95 L537.22 1325.49 L542.357 1321.56 L547.495 1318.08 L552.632 1314.95 L557.769 1311.99 L562.906 1309.03 L568.043 1305.86 L573.181 1302.31 L578.318 1298.27 L583.455 1293.72 L588.592 1288.72 L593.73 1283.41 L598.867 1277.96 L604.004 1272.53 L609.141 1267.22 L614.278 1262.03 L619.416 1256.86 L624.553 1251.51 L629.69 1245.72 L634.827 1239.27 L639.964 1231.98 L645.102 1223.8 L650.239 1214.81 L655.376 1205.18 L660.513 1195.17 L665.651 1185.06 L670.788 1175.09 L675.925 1165.44 L681.062 1156.24 L686.199 1147.5 L691.337 1139.19 L696.474 1131.21 L701.611 1123.47 L706.748 1115.91 L711.886 1108.46 L711.886 1445.72 L706.748 1445.72 L701.611 1445.72 L696.474 1445.72 L691.337 1445.72 L686.199 1445.72 L681.062 1445.72 L675.925 1445.72 L670.788 1445.72 L665.651 1445.72 L660.513 1445.72 L655.376 1445.72 L650.239 1445.72 L645.102 1445.72 L639.964 1445.72 L634.827 1445.72 L629.69 1445.72 L624.553 1445.72 L619.416 1445.72 L614.278 1445.72 L609.141 1445.72 L604.004 1445.72 L598.867 1445.72 L593.73 1445.72 L588.592 1445.72 L583.455 1445.72 L578.318 1445.72 L573.181 1445.72 L568.043 1445.72 L562.906 1445.72 L557.769 1445.72 L552.632 1445.72 L547.495 1445.72 L542.357 1445.72 L537.22 1445.72 L532.083 1445.72 L526.946 1445.72 L521.808 1445.72 L516.671 1445.72 L511.534 1445.72 L506.397 1445.72 L501.26 1445.72 L496.122 1445.72 L490.985 1445.72 L485.848 1445.72 L480.711 1445.72 L475.574 1445.72 L470.436 1445.72 L465.299 1445.72 L460.162 1445.72 L455.025 1445.72 L449.887 1445.72 L444.75 1445.72 L439.613 1445.72 L434.476 1445.72 L429.339 1445.72 L424.201 1445.72 L419.064 1445.72 L413.927 1445.72 L408.79 1445.72 L403.652 1445.72 L398.515 1445.72 L393.378 1445.72 L388.241 1445.72 L383.104 1445.72 L377.966 1445.72 L372.829 1445.72 L367.692 1445.72 L362.555 1445.72 L357.418 1445.72 L352.28 1445.72 L347.143 1445.72 L342.006 1445.72 L336.869 1445.72 L331.731 1445.72 L326.594 1445.72 L321.457 1445.72 L316.32 1445.72 L311.183 1445.72 L306.045 1445.72 L300.908 1445.72 L295.771 1445.72 L290.634 1445.72 L285.496 1445.72 L280.359 1445.72 L275.222 1445.72 L270.085 1445.72 L264.948 1445.72 L259.81 1445.72 L254.673 1445.72 L249.536 1445.72 L244.399 1445.72 L239.262 1445.72 L234.124 1445.72 L228.987 1445.72 L223.85 1445.72 L218.713 1445.72 L213.575 1445.72 L208.438 1445.72 L203.301 1445.72  Z" fill="#ffa500" fill-rule="evenodd" fill-opacity="0.5"/>
<polyline clip-path="url(#clip122)" style="stroke:#ffa500; stroke-linecap:round; stroke-linejoin:round; stroke-width:4; stroke-opacity:1; fill:none" points="203.301,1443.67 208.438,1443.66 213.575,1443.71 218.713,1443.8 223.85,1443.89 228.987,1443.96 234.124,1443.97 239.262,1443.91 244.399,1443.74 249.536,1443.47 254.673,1443.08 259.81,1442.59 264.948,1442.01 270.085,1441.35 275.222,1440.64 280.359,1439.91 285.496,1439.19 290.634,1438.52 295.771,1437.92 300.908,1437.42 306.045,1437.03 311.183,1436.76 316.32,1436.61 321.457,1436.56 326.594,1436.6 331.731,1436.71 336.869,1436.84 342.006,1436.97 347.143,1437.04 352.28,1437.01 357.418,1436.85 362.555,1436.52 367.692,1436 372.829,1435.32 377.966,1434.49 383.104,1433.56 388.241,1432.55 393.378,1431.51 398.515,1430.44 403.652,1429.31 408.79,1428.1 413.927,1426.75 419.064,1425.18 424.201,1423.38 429.339,1421.31 434.476,1419.01 439.613,1416.5 444.75,1413.85 449.887,1411.08 455.025,1408.21 460.162,1405.18 465.299,1401.93 470.436,1398.33 475.574,1394.27 480.711,1389.65 485.848,1384.44 490.985,1378.68 496.122,1372.46 501.26,1365.94 506.397,1359.31 511.534,1352.74 516.671,1346.41 521.808,1340.45 526.946,1334.94 532.083,1329.95 537.22,1325.49 542.357,1321.56 547.495,1318.08 552.632,1314.95 557.769,1311.99 562.906,1309.03 568.043,1305.86 573.181,1302.31 578.318,1298.27 583.455,1293.72 588.592,1288.72 593.73,1283.41 598.867,1277.96 604.004,1272.53 609.141,1267.22 614.278,1262.03 619.416,1256.86 624.553,1251.51 629.69,1245.72 634.827,1239.27 639.964,1231.98 645.102,1223.8 650.239,1214.81 655.376,1205.18 660.513,1195.17 665.651,1185.06 670.788,1175.09 675.925,1165.44 681.062,1156.24 686.199,1147.5 691.337,1139.19 696.474,1131.21 701.611,1123.47 706.748,1115.91 711.886,1108.46 "/>
<path clip-path="url(#clip122)" d="M711.886 1108.46 L720.787 1095.69 L729.688 1082.8 L738.589 1069.11 L747.49 1053.62 L756.392 1035.69 L765.293 1015.43 L774.194 993.552 L783.095 970.492 L791.996 945.706 L800.898 917.749 L809.799 885.146 L818.7 847.47 L827.601 806.025 L836.503 763.714 L845.404 724.07 L854.305 689.864 L863.206 662.056 L872.107 639.723 L881.009 620.975 L889.91 604.099 L898.811 588.055 L907.712 572.077 L916.614 555.105 L925.515 535.964 L934.416 514.331 L943.317 491.463 L952.218 469.649 L961.12 450.579 L970.021 433.97 L978.922 417.631 L987.823 398.796 L996.724 375.547 L1005.63 347.376 L1014.53 314.921 L1023.43 279.506 L1032.33 242.871 L1041.23 206.956 L1050.13 173.579 L1059.03 144.15 L1067.93 119.719 L1076.84 101.383 L1085.74 90.4776 L1094.64 87.9763 L1103.54 93.3108 L1112.44 103.789 L1121.34 115.612 L1130.24 125.985 L1139.14 134.469 L1148.05 142.202 L1156.95 149.658 L1165.85 155.174 L1174.75 155.769 L1183.65 149.514 L1192.55 137.254 L1201.45 122.251 L1210.35 108.359 L1219.25 98.4613 L1228.16 94.2073 L1237.06 96.6194 L1245.96 106.522 L1254.86 124.372 L1263.76 149.846 L1272.66 181.622 L1281.56 217.343 L1290.46 253.778 L1299.37 287.456 L1308.27 315.904 L1317.17 338.897 L1326.07 358.612 L1334.97 378.27 L1343.87 400.168 L1352.77 424.511 L1361.67 449.691 L1370.58 473.497 L1379.48 494.478 L1388.38 512.914 L1397.28 531.034 L1406.18 552.129 L1415.08 578.836 L1423.98 611.635 L1432.88 648.713 L1441.79 687.217 L1450.69 724.786 L1459.59 760.263 L1468.49 793.4 L1477.39 824.166 L1486.29 852.211 L1495.19 876.675 L1504.09 896.38 L1513 910.489 L1521.9 919.493 L1530.8 925.77 L1539.7 932.923 L1548.6 944.053 L1557.5 960.306 L1566.4 980.938 L1575.3 1004.65 L1584.2 1030.77 L1593.11 1059.15 L1593.11 1445.72 L1584.2 1445.72 L1575.3 1445.72 L1566.4 1445.72 L1557.5 1445.72 L1548.6 1445.72 L1539.7 1445.72 L1530.8 1445.72 L1521.9 1445.72 L1513 1445.72 L1504.09 1445.72 L1495.19 1445.72 L1486.29 1445.72 L1477.39 1445.72 L1468.49 1445.72 L1459.59 1445.72 L1450.69 1445.72 L1441.79 1445.72 L1432.88 1445.72 L1423.98 1445.72 L1415.08 1445.72 L1406.18 1445.72 L1397.28 1445.72 L1388.38 1445.72 L1379.48 1445.72 L1370.58 1445.72 L1361.67 1445.72 L1352.77 1445.72 L1343.87 1445.72 L1334.97 1445.72 L1326.07 1445.72 L1317.17 1445.72 L1308.27 1445.72 L1299.37 1445.72 L1290.46 1445.72 L1281.56 1445.72 L1272.66 1445.72 L1263.76 1445.72 L1254.86 1445.72 L1245.96 1445.72 L1237.06 1445.72 L1228.16 1445.72 L1219.25 1445.72 L1210.35 1445.72 L1201.45 1445.72 L1192.55 1445.72 L1183.65 1445.72 L1174.75 1445.72 L1165.85 1445.72 L1156.95 1445.72 L1148.05 1445.72 L1139.14 1445.72 L1130.24 1445.72 L1121.34 1445.72 L1112.44 1445.72 L1103.54 1445.72 L1094.64 1445.72 L1085.74 1445.72 L1076.84 1445.72 L1067.93 1445.72 L1059.03 1445.72 L1050.13 1445.72 L1041.23 1445.72 L1032.33 1445.72 L1023.43 1445.72 L1014.53 1445.72 L1005.63 1445.72 L996.724 1445.72 L987.823 1445.72 L978.922 1445.72 L970.021 1445.72 L961.12 1445.72 L952.218 1445.72 L943.317 1445.72 L934.416 1445.72 L925.515 1445.72 L916.614 1445.72 L907.712 1445.72 L898.811 1445.72 L889.91 1445.72 L881.009 1445.72 L872.107 1445.72 L863.206 1445.72 L854.305 1445.72 L845.404 1445.72 L836.503 1445.72 L827.601 1445.72 L818.7 1445.72 L809.799 1445.72 L800.898 1445.72 L791.996 1445.72 L783.095 1445.72 L774.194 1445.72 L765.293 1445.72 L756.392 1445.72 L747.49 1445.72 L738.589 1445.72 L729.688 1445.72 L720.787 1445.72 L711.886 1445.72  Z" fill="#008000" fill-rule="evenodd" fill-opacity="0.5"/>
<polyline clip-path="url(#clip122)" style="stroke:#008000; stroke-linecap:round; stroke-linejoin:round; stroke-width:4; stroke-opacity:1; fill:none" points="711.886,1108.46 720.787,1095.69 729.688,1082.8 738.589,1069.11 747.49,1053.62 756.392,1035.69 765.293,1015.43 774.194,993.552 783.095,970.492 791.996,945.706 800.898,917.749 809.799,885.146 818.7,847.47 827.601,806.025 836.503,763.714 845.404,724.07 854.305,689.864 863.206,662.056 872.107,639.723 881.009,620.975 889.91,604.099 898.811,588.055 907.712,572.077 916.614,555.105 925.515,535.964 934.416,514.331 943.317,491.463 952.218,469.649 961.12,450.579 970.021,433.97 978.922,417.631 987.823,398.796 996.724,375.547 1005.63,347.376 1014.53,314.921 1023.43,279.506 1032.33,242.871 1041.23,206.956 1050.13,173.579 1059.03,144.15 1067.93,119.719 1076.84,101.383 1085.74,90.4776 1094.64,87.9763 1103.54,93.3108 1112.44,103.789 1121.34,115.612 1130.24,125.985 1139.14,134.469 1148.05,142.202 1156.95,149.658 1165.85,155.174 1174.75,155.769 1183.65,149.514 1192.55,137.254 1201.45,122.251 1210.35,108.359 1219.25,98.4613 1228.16,94.2073 1237.06,96.6194 1245.96,106.522 1254.86,124.372 1263.76,149.846 1272.66,181.622 1281.56,217.343 1290.46,253.778 1299.37,287.456 1308.27,315.904 1317.17,338.897 1326.07,358.612 1334.97,378.27 1343.87,400.168 1352.77,424.511 1361.67,449.691 1370.58,473.497 1379.48,494.478 1388.38,512.914 1397.28,531.034 1406.18,552.129 1415.08,578.836 1423.98,611.635 1432.88,648.713 1441.79,687.217 1450.69,724.786 1459.59,760.263 1468.49,793.4 1477.39,824.166 1486.29,852.211 1495.19,876.675 1504.09,896.38 1513,910.489 1521.9,919.493 1530.8,925.77 1539.7,932.923 1548.6,944.053 1557.5,960.306 1566.4,980.938 1575.3,1004.65 1584.2,1030.77 1593.11,1059.15 "/>
<path clip-path="url(#clip122)" d="M1593.11 1059.15 L1600.15 1082.96 L1607.19 1107.41 L1614.23 1131.66 L1621.27 1154.82 L1628.31 1176.05 L1635.35 1194.67 L1642.39 1210.19 L1649.43 1222.37 L1656.47 1231.33 L1663.51 1237.61 L1670.56 1242.08 L1677.6 1245.84 L1684.64 1249.9 L1691.68 1255.02 L1698.72 1261.53 L1705.76 1269.35 L1712.8 1278.1 L1719.84 1287.23 L1726.88 1296.23 L1733.92 1304.74 L1740.96 1312.61 L1748 1319.9 L1755.05 1326.8 L1762.09 1333.48 L1769.13 1340.01 L1776.17 1346.34 L1783.21 1352.33 L1790.25 1357.86 L1797.29 1362.89 L1804.33 1367.48 L1811.37 1371.77 L1818.41 1375.92 L1825.45 1380.06 L1832.5 1384.26 L1839.54 1388.55 L1846.58 1392.91 L1853.62 1397.27 L1860.66 1401.55 L1867.7 1405.65 L1874.74 1409.51 L1881.78 1413.06 L1888.82 1416.31 L1895.86 1419.26 L1902.9 1421.93 L1909.94 1424.33 L1916.99 1426.44 L1924.03 1428.27 L1931.07 1429.82 L1938.11 1431.17 L1945.15 1432.4 L1952.19 1433.62 L1959.23 1434.92 L1966.27 1436.32 L1973.31 1437.79 L1980.35 1439.24 L1987.39 1440.57 L1994.43 1441.68 L2001.48 1442.49 L2008.52 1442.97 L2015.56 1443.16 L2022.6 1443.1 L2029.64 1442.92 L2036.68 1442.69 L2043.72 1442.53 L2050.76 1442.47 L2057.8 1442.55 L2064.84 1442.74 L2071.88 1443 L2078.92 1443.26 L2085.97 1443.49 L2093.01 1443.66 L2100.05 1443.77 L2107.09 1443.84 L2114.13 1443.9 L2121.17 1443.96 L2128.21 1444.05 L2135.25 1444.15 L2142.29 1444.24 L2149.33 1444.32 L2156.37 1444.37 L2163.42 1444.4 L2170.46 1444.43 L2177.5 1444.48 L2184.54 1444.57 L2191.58 1444.69 L2198.62 1444.84 L2205.66 1444.98 L2212.7 1445.09 L2219.74 1445.15 L2226.78 1445.14 L2233.82 1445.06 L2240.86 1444.94 L2247.91 1444.8 L2254.95 1444.69 L2261.99 1444.61 L2269.03 1444.59 L2276.07 1444.62 L2283.11 1444.71 L2290.15 1444.85 L2290.15 1445.72 L2283.11 1445.72 L2276.07 1445.72 L2269.03 1445.72 L2261.99 1445.72 L2254.95 1445.72 L2247.91 1445.72 L2240.86 1445.72 L2233.82 1445.72 L2226.78 1445.72 L2219.74 1445.72 L2212.7 1445.72 L2205.66 1445.72 L2198.62 1445.72 L2191.58 1445.72 L2184.54 1445.72 L2177.5 1445.72 L2170.46 1445.72 L2163.42 1445.72 L2156.37 1445.72 L2149.33 1445.72 L2142.29 1445.72 L2135.25 1445.72 L2128.21 1445.72 L2121.17 1445.72 L2114.13 1445.72 L2107.09 1445.72 L2100.05 1445.72 L2093.01 1445.72 L2085.97 1445.72 L2078.92 1445.72 L2071.88 1445.72 L2064.84 1445.72 L2057.8 1445.72 L2050.76 1445.72 L2043.72 1445.72 L2036.68 1445.72 L2029.64 1445.72 L2022.6 1445.72 L2015.56 1445.72 L2008.52 1445.72 L2001.48 1445.72 L1994.43 1445.72 L1987.39 1445.72 L1980.35 1445.72 L1973.31 1445.72 L1966.27 1445.72 L1959.23 1445.72 L1952.19 1445.72 L1945.15 1445.72 L1938.11 1445.72 L1931.07 1445.72 L1924.03 1445.72 L1916.99 1445.72 L1909.94 1445.72 L1902.9 1445.72 L1895.86 1445.72 L1888.82 1445.72 L1881.78 1445.72 L1874.74 1445.72 L1867.7 1445.72 L1860.66 1445.72 L1853.62 1445.72 L1846.58 1445.72 L1839.54 1445.72 L1832.5 1445.72 L1825.45 1445.72 L1818.41 1445.72 L1811.37 1445.72 L1804.33 1445.72 L1797.29 1445.72 L1790.25 1445.72 L1783.21 1445.72 L1776.17 1445.72 L1769.13 1445.72 L1762.09 1445.72 L1755.05 1445.72 L1748 1445.72 L1740.96 1445.72 L1733.92 1445.72 L1726.88 1445.72 L1719.84 1445.72 L1712.8 1445.72 L1705.76 1445.72 L1698.72 1445.72 L1691.68 1445.72 L1684.64 1445.72 L1677.6 1445.72 L1670.56 1445.72 L1663.51 1445.72 L1656.47 1445.72 L1649.43 1445.72 L1642.39 1445.72 L1635.35 1445.72 L1628.31 1445.72 L1621.27 1445.72 L1614.23 1445.72 L1607.19 1445.72 L1600.15 1445.72 L1593.11 1445.72  Z" fill="#ffa500" fill-rule="evenodd" fill-opacity="0.5"/>
<polyline clip-path="url(#clip122)" style="stroke:#ffa500; stroke-linecap:round; stroke-linejoin:round; stroke-width:4; stroke-opacity:1; fill:none" points="1593.11,1059.15 1600.15,1082.96 1607.19,1107.41 1614.23,1131.66 1621.27,1154.82 1628.31,1176.05 1635.35,1194.67 1642.39,1210.19 1649.43,1222.37 1656.47,1231.33 1663.51,1237.61 1670.56,1242.08 1677.6,1245.84 1684.64,1249.9 1691.68,1255.02 1698.72,1261.53 1705.76,1269.35 1712.8,1278.1 1719.84,1287.23 1726.88,1296.23 1733.92,1304.74 1740.96,1312.61 1748,1319.9 1755.05,1326.8 1762.09,1333.48 1769.13,1340.01 1776.17,1346.34 1783.21,1352.33 1790.25,1357.86 1797.29,1362.89 1804.33,1367.48 1811.37,1371.77 1818.41,1375.92 1825.45,1380.06 1832.5,1384.26 1839.54,1388.55 1846.58,1392.91 1853.62,1397.27 1860.66,1401.55 1867.7,1405.65 1874.74,1409.51 1881.78,1413.06 1888.82,1416.31 1895.86,1419.26 1902.9,1421.93 1909.94,1424.33 1916.99,1426.44 1924.03,1428.27 1931.07,1429.82 1938.11,1431.17 1945.15,1432.4 1952.19,1433.62 1959.23,1434.92 1966.27,1436.32 1973.31,1437.79 1980.35,1439.24 1987.39,1440.57 1994.43,1441.68 2001.48,1442.49 2008.52,1442.97 2015.56,1443.16 2022.6,1443.1 2029.64,1442.92 2036.68,1442.69 2043.72,1442.53 2050.76,1442.47 2057.8,1442.55 2064.84,1442.74 2071.88,1443 2078.92,1443.26 2085.97,1443.49 2093.01,1443.66 2100.05,1443.77 2107.09,1443.84 2114.13,1443.9 2121.17,1443.96 2128.21,1444.05 2135.25,1444.15 2142.29,1444.24 2149.33,1444.32 2156.37,1444.37 2163.42,1444.4 2170.46,1444.43 2177.5,1444.48 2184.54,1444.57 2191.58,1444.69 2198.62,1444.84 2205.66,1444.98 2212.7,1445.09 2219.74,1445.15 2226.78,1445.14 2233.82,1445.06 2240.86,1444.94 2247.91,1444.8 2254.95,1444.69 2261.99,1444.61 2269.03,1444.59 2276.07,1444.62 2283.11,1444.71 2290.15,1444.85 "/>
<polyline clip-path="url(#clip122)" style="stroke:#0000ff; stroke-linecap:round; stroke-linejoin:round; stroke-width:4; stroke-opacity:1; fill:none" points="1157.24,1445.72 1157.24,149.884 "/>
<polyline clip-path="url(#clip122)" style="stroke:#000000; stroke-linecap:round; stroke-linejoin:round; stroke-width:4; stroke-opacity:1; fill:none" points="1157.34,1445.72 1157.34,149.961 "/>
<path clip-path="url(#clip120)" d="M1466.36 406.258 L2279.02 406.258 L2279.02 95.2176 L1466.36 95.2176  Z" fill="#ffffff" fill-rule="evenodd" fill-opacity="1"/>
<polyline clip-path="url(#clip120)" style="stroke:#000000; stroke-linecap:round; stroke-linejoin:round; stroke-width:4; stroke-opacity:1; fill:none" points="1466.36,406.258 2279.02,406.258 2279.02,95.2176 1466.36,95.2176 1466.36,406.258 "/>
<path clip-path="url(#clip120)" d="M1490.94 167.794 L1638.41 167.794 L1638.41 126.322 L1490.94 126.322 L1490.94 167.794  Z" fill="#ffa500" fill-rule="evenodd" fill-opacity="0.5"/>
<polyline clip-path="url(#clip120)" style="stroke:#ffa500; stroke-linecap:round; stroke-linejoin:round; stroke-width:4; stroke-opacity:1; fill:none" points="1490.94,126.322 1638.41,126.322 "/>
<path clip-path="url(#clip120)" d="M1667.39 151.398 Q1667.39 156.097 1669.31 158.782 Q1671.25 161.444 1674.63 161.444 Q1678.01 161.444 1679.95 158.782 Q1681.9 156.097 1681.9 151.398 Q1681.9 146.699 1679.95 144.037 Q1678.01 141.352 1674.63 141.352 Q1671.25 141.352 1669.31 144.037 Q1667.39 146.699 1667.39 151.398 M1681.9 160.449 Q1680.56 162.763 1678.5 163.898 Q1676.46 165.009 1673.59 165.009 Q1668.89 165.009 1665.93 161.259 Q1662.99 157.509 1662.99 151.398 Q1662.99 145.287 1665.93 141.537 Q1668.89 137.787 1673.59 137.787 Q1676.46 137.787 1678.5 138.921 Q1680.56 140.032 1681.9 142.347 L1681.9 138.412 L1686.16 138.412 L1686.16 174.199 L1681.9 174.199 L1681.9 160.449 Z" fill="#000000" fill-rule="nonzero" fill-opacity="1" /><path clip-path="url(#clip120)" d="M1705.53 132.856 Q1701.92 132.856 1700.09 136.421 Q1698.29 139.963 1698.29 147.092 Q1698.29 154.199 1700.09 157.764 Q1701.92 161.305 1705.53 161.305 Q1709.17 161.305 1710.97 157.764 Q1712.8 154.199 1712.8 147.092 Q1712.8 139.963 1710.97 136.421 Q1709.17 132.856 1705.53 132.856 M1705.53 129.153 Q1711.34 129.153 1714.4 133.759 Q1717.48 138.342 1717.48 147.092 Q1717.48 155.819 1714.4 160.426 Q1711.34 165.009 1705.53 165.009 Q1699.72 165.009 1696.64 160.426 Q1693.59 155.819 1693.59 147.092 Q1693.59 138.342 1696.64 133.759 Q1699.72 129.153 1705.53 129.153 Z" fill="#000000" fill-rule="nonzero" fill-opacity="1" /><path clip-path="url(#clip120)" d="M1725.74 129.778 L1744.1 129.778 L1744.1 133.713 L1730.02 133.713 L1730.02 142.185 Q1731.04 141.838 1732.06 141.676 Q1733.08 141.49 1734.1 141.49 Q1739.88 141.49 1743.26 144.662 Q1746.64 147.833 1746.64 153.25 Q1746.64 158.828 1743.17 161.93 Q1739.7 165.009 1733.38 165.009 Q1731.2 165.009 1728.94 164.638 Q1726.69 164.268 1724.28 163.527 L1724.28 158.828 Q1726.37 159.963 1728.59 160.518 Q1730.81 161.074 1733.29 161.074 Q1737.29 161.074 1739.63 158.967 Q1741.97 156.861 1741.97 153.25 Q1741.97 149.639 1739.63 147.532 Q1737.29 145.426 1733.29 145.426 Q1731.41 145.426 1729.54 145.842 Q1727.69 146.259 1725.74 147.139 L1725.74 129.778 Z" fill="#000000" fill-rule="nonzero" fill-opacity="1" /><path clip-path="url(#clip120)" d="M1490.94 219.634 L1638.41 219.634 L1638.41 178.162 L1490.94 178.162 L1490.94 219.634  Z" fill="#008000" fill-rule="evenodd" fill-opacity="0.5"/>
<polyline clip-path="url(#clip120)" style="stroke:#008000; stroke-linecap:round; stroke-linejoin:round; stroke-width:4; stroke-opacity:1; fill:none" points="1490.94,178.162 1638.41,178.162 "/>
<path clip-path="url(#clip120)" d="M1665.21 215.46 L1665.21 211.201 Q1666.97 212.034 1668.77 212.474 Q1670.58 212.914 1672.32 212.914 Q1676.95 212.914 1679.38 209.812 Q1681.83 206.687 1682.18 200.344 Q1680.83 202.335 1678.77 203.4 Q1676.71 204.465 1674.21 204.465 Q1669.03 204.465 1666 201.34 Q1662.99 198.192 1662.99 192.752 Q1662.99 187.428 1666.14 184.21 Q1669.28 180.993 1674.51 180.993 Q1680.51 180.993 1683.66 185.599 Q1686.83 190.182 1686.83 198.932 Q1686.83 207.104 1682.94 211.988 Q1679.07 216.849 1672.52 216.849 Q1670.76 216.849 1668.96 216.502 Q1667.15 216.154 1665.21 215.46 M1674.51 200.807 Q1677.66 200.807 1679.49 198.654 Q1681.34 196.502 1681.34 192.752 Q1681.34 189.025 1679.49 186.872 Q1677.66 184.696 1674.51 184.696 Q1671.37 184.696 1669.51 186.872 Q1667.69 189.025 1667.69 192.752 Q1667.69 196.502 1669.51 198.654 Q1671.37 200.807 1674.51 200.807 Z" fill="#000000" fill-rule="nonzero" fill-opacity="1" /><path clip-path="url(#clip120)" d="M1705.23 184.696 Q1701.62 184.696 1699.79 188.261 Q1697.99 191.803 1697.99 198.932 Q1697.99 206.039 1699.79 209.604 Q1701.62 213.145 1705.23 213.145 Q1708.87 213.145 1710.67 209.604 Q1712.5 206.039 1712.5 198.932 Q1712.5 191.803 1710.67 188.261 Q1708.87 184.696 1705.23 184.696 M1705.23 180.993 Q1711.04 180.993 1714.1 185.599 Q1717.18 190.182 1717.18 198.932 Q1717.18 207.659 1714.1 212.266 Q1711.04 216.849 1705.23 216.849 Q1699.42 216.849 1696.34 212.266 Q1693.29 207.659 1693.29 198.932 Q1693.29 190.182 1696.34 185.599 Q1699.42 180.993 1705.23 180.993 Z" fill="#000000" fill-rule="nonzero" fill-opacity="1" /><path clip-path="url(#clip120)" d="M1754.79 200.969 Q1752.78 200.969 1751.62 202.682 Q1750.49 204.395 1750.49 207.451 Q1750.49 210.46 1751.62 212.196 Q1752.78 213.909 1754.79 213.909 Q1756.76 213.909 1757.89 212.196 Q1759.05 210.46 1759.05 207.451 Q1759.05 204.418 1757.89 202.705 Q1756.76 200.969 1754.79 200.969 M1754.79 198.03 Q1758.45 198.03 1760.6 200.576 Q1762.75 203.122 1762.75 207.451 Q1762.75 211.779 1760.58 214.326 Q1758.43 216.849 1754.79 216.849 Q1751.09 216.849 1748.94 214.326 Q1746.78 211.779 1746.78 207.451 Q1746.78 203.099 1748.94 200.576 Q1751.11 198.03 1754.79 198.03 M1730.9 183.932 Q1728.91 183.932 1727.76 185.668 Q1726.62 187.381 1726.62 190.391 Q1726.62 193.446 1727.76 195.159 Q1728.89 196.872 1730.9 196.872 Q1732.92 196.872 1734.05 195.159 Q1735.21 193.446 1735.21 190.391 Q1735.21 187.405 1734.05 185.668 Q1732.89 183.932 1730.9 183.932 M1751.81 180.993 L1755.51 180.993 L1733.89 216.849 L1730.19 216.849 L1751.81 180.993 M1730.9 180.993 Q1734.56 180.993 1736.74 183.539 Q1738.91 186.062 1738.91 190.391 Q1738.91 194.766 1736.74 197.289 Q1734.58 199.812 1730.9 199.812 Q1727.22 199.812 1725.07 197.289 Q1722.94 194.742 1722.94 190.391 Q1722.94 186.085 1725.09 183.539 Q1727.25 180.993 1730.9 180.993 Z" fill="#000000" fill-rule="nonzero" fill-opacity="1" /><path clip-path="url(#clip120)" d="M1806.46 200.529 L1806.46 216.178 L1802.2 216.178 L1802.2 200.668 Q1802.2 196.988 1800.76 195.159 Q1799.33 193.33 1796.46 193.33 Q1793.01 193.33 1791.02 195.53 Q1789.03 197.729 1789.03 201.525 L1789.03 216.178 L1784.75 216.178 L1784.75 190.252 L1789.03 190.252 L1789.03 194.28 Q1790.56 191.942 1792.62 190.784 Q1794.7 189.627 1797.41 189.627 Q1801.88 189.627 1804.17 192.405 Q1806.46 195.159 1806.46 200.529 Z" fill="#000000" fill-rule="nonzero" fill-opacity="1" /><path clip-path="url(#clip120)" d="M1825 193.238 Q1821.57 193.238 1819.58 195.923 Q1817.59 198.585 1817.59 203.238 Q1817.59 207.891 1819.56 210.576 Q1821.55 213.238 1825 213.238 Q1828.4 213.238 1830.39 210.553 Q1832.38 207.867 1832.38 203.238 Q1832.38 198.631 1830.39 195.946 Q1828.4 193.238 1825 193.238 M1825 189.627 Q1830.56 189.627 1833.73 193.238 Q1836.9 196.849 1836.9 203.238 Q1836.9 209.604 1833.73 213.238 Q1830.56 216.849 1825 216.849 Q1819.42 216.849 1816.25 213.238 Q1813.1 209.604 1813.1 203.238 Q1813.1 196.849 1816.25 193.238 Q1819.42 189.627 1825 189.627 Z" fill="#000000" fill-rule="nonzero" fill-opacity="1" /><path clip-path="url(#clip120)" d="M1865.51 200.529 L1865.51 216.178 L1861.25 216.178 L1861.25 200.668 Q1861.25 196.988 1859.81 195.159 Q1858.38 193.33 1855.51 193.33 Q1852.06 193.33 1850.07 195.53 Q1848.08 197.729 1848.08 201.525 L1848.08 216.178 L1843.8 216.178 L1843.8 190.252 L1848.08 190.252 L1848.08 194.28 Q1849.61 191.942 1851.67 190.784 Q1853.75 189.627 1856.46 189.627 Q1860.93 189.627 1863.22 192.405 Q1865.51 195.159 1865.51 200.529 Z" fill="#000000" fill-rule="nonzero" fill-opacity="1" /><path clip-path="url(#clip120)" d="M1871.85 201.293 L1884.33 201.293 L1884.33 205.09 L1871.85 205.09 L1871.85 201.293 Z" fill="#000000" fill-rule="nonzero" fill-opacity="1" /><path clip-path="url(#clip120)" d="M1906.13 194.233 Q1905.42 193.817 1904.56 193.631 Q1903.73 193.423 1902.71 193.423 Q1899.1 193.423 1897.15 195.784 Q1895.23 198.122 1895.23 202.52 L1895.23 216.178 L1890.95 216.178 L1890.95 190.252 L1895.23 190.252 L1895.23 194.28 Q1896.57 191.918 1898.73 190.784 Q1900.88 189.627 1903.96 189.627 Q1904.4 189.627 1904.93 189.696 Q1905.46 189.743 1906.11 189.858 L1906.13 194.233 Z" fill="#000000" fill-rule="nonzero" fill-opacity="1" /><path clip-path="url(#clip120)" d="M1931.74 202.15 L1931.74 204.233 L1912.15 204.233 Q1912.43 208.631 1914.79 210.946 Q1917.18 213.238 1921.41 213.238 Q1923.87 213.238 1926.16 212.636 Q1928.47 212.034 1930.74 210.83 L1930.74 214.858 Q1928.45 215.83 1926.04 216.34 Q1923.63 216.849 1921.16 216.849 Q1914.95 216.849 1911.32 213.238 Q1907.71 209.627 1907.71 203.469 Q1907.71 197.104 1911.13 193.377 Q1914.58 189.627 1920.42 189.627 Q1925.65 189.627 1928.68 193.006 Q1931.74 196.363 1931.74 202.15 M1927.48 200.9 Q1927.43 197.405 1925.51 195.321 Q1923.61 193.238 1920.46 193.238 Q1916.9 193.238 1914.74 195.252 Q1912.62 197.266 1912.29 200.923 L1927.48 200.9 Z" fill="#000000" fill-rule="nonzero" fill-opacity="1" /><path clip-path="url(#clip120)" d="M1938.73 190.252 L1942.99 190.252 L1942.99 216.641 Q1942.99 221.594 1941.09 223.816 Q1939.21 226.039 1935.02 226.039 L1933.4 226.039 L1933.4 222.428 L1934.54 222.428 Q1936.97 222.428 1937.85 221.293 Q1938.73 220.182 1938.73 216.641 L1938.73 190.252 M1938.73 180.159 L1942.99 180.159 L1942.99 185.553 L1938.73 185.553 L1938.73 180.159 Z" fill="#000000" fill-rule="nonzero" fill-opacity="1" /><path clip-path="url(#clip120)" d="M1974.07 202.15 L1974.07 204.233 L1954.49 204.233 Q1954.77 208.631 1957.13 210.946 Q1959.51 213.238 1963.75 213.238 Q1966.2 213.238 1968.49 212.636 Q1970.81 212.034 1973.08 210.83 L1973.08 214.858 Q1970.79 215.83 1968.38 216.34 Q1965.97 216.849 1963.49 216.849 Q1957.29 216.849 1953.66 213.238 Q1950.05 209.627 1950.05 203.469 Q1950.05 197.104 1953.47 193.377 Q1956.92 189.627 1962.75 189.627 Q1967.99 189.627 1971.02 193.006 Q1974.07 196.363 1974.07 202.15 M1969.81 200.9 Q1969.77 197.405 1967.85 195.321 Q1965.95 193.238 1962.8 193.238 Q1959.24 193.238 1957.08 195.252 Q1954.95 197.266 1954.63 200.923 L1969.81 200.9 Z" fill="#000000" fill-rule="nonzero" fill-opacity="1" /><path clip-path="url(#clip120)" d="M1999.72 191.247 L1999.72 195.229 Q1997.92 194.233 1996.09 193.747 Q1994.28 193.238 1992.43 193.238 Q1988.29 193.238 1985.99 195.877 Q1983.7 198.492 1983.7 203.238 Q1983.7 207.983 1985.99 210.622 Q1988.29 213.238 1992.43 213.238 Q1994.28 213.238 1996.09 212.752 Q1997.92 212.242 1999.72 211.247 L1999.72 215.182 Q1997.94 216.016 1996.02 216.432 Q1994.12 216.849 1991.97 216.849 Q1986.11 216.849 1982.66 213.168 Q1979.21 209.488 1979.21 203.238 Q1979.21 196.895 1982.68 193.261 Q1986.18 189.627 1992.24 189.627 Q1994.21 189.627 1996.09 190.043 Q1997.96 190.437 1999.72 191.247 Z" fill="#000000" fill-rule="nonzero" fill-opacity="1" /><path clip-path="url(#clip120)" d="M2011.34 182.891 L2011.34 190.252 L2020.11 190.252 L2020.11 193.562 L2011.34 193.562 L2011.34 207.636 Q2011.34 210.807 2012.2 211.71 Q2013.08 212.613 2015.74 212.613 L2020.11 212.613 L2020.11 216.178 L2015.74 216.178 Q2010.81 216.178 2008.93 214.349 Q2007.06 212.497 2007.06 207.636 L2007.06 193.562 L2003.93 193.562 L2003.93 190.252 L2007.06 190.252 L2007.06 182.891 L2011.34 182.891 Z" fill="#000000" fill-rule="nonzero" fill-opacity="1" /><path clip-path="url(#clip120)" d="M2025.72 190.252 L2029.98 190.252 L2029.98 216.178 L2025.72 216.178 L2025.72 190.252 M2025.72 180.159 L2029.98 180.159 L2029.98 185.553 L2025.72 185.553 L2025.72 180.159 Z" fill="#000000" fill-rule="nonzero" fill-opacity="1" /><path clip-path="url(#clip120)" d="M2048.93 193.238 Q2045.51 193.238 2043.52 195.923 Q2041.53 198.585 2041.53 203.238 Q2041.53 207.891 2043.49 210.576 Q2045.48 213.238 2048.93 213.238 Q2052.34 213.238 2054.33 210.553 Q2056.32 207.867 2056.32 203.238 Q2056.32 198.631 2054.33 195.946 Q2052.34 193.238 2048.93 193.238 M2048.93 189.627 Q2054.49 189.627 2057.66 193.238 Q2060.83 196.849 2060.83 203.238 Q2060.83 209.604 2057.66 213.238 Q2054.49 216.849 2048.93 216.849 Q2043.36 216.849 2040.18 213.238 Q2037.04 209.604 2037.04 203.238 Q2037.04 196.849 2040.18 193.238 Q2043.36 189.627 2048.93 189.627 Z" fill="#000000" fill-rule="nonzero" fill-opacity="1" /><path clip-path="url(#clip120)" d="M2089.44 200.529 L2089.44 216.178 L2085.18 216.178 L2085.18 200.668 Q2085.18 196.988 2083.75 195.159 Q2082.31 193.33 2079.44 193.33 Q2075.99 193.33 2074 195.53 Q2072.01 197.729 2072.01 201.525 L2072.01 216.178 L2067.73 216.178 L2067.73 190.252 L2072.01 190.252 L2072.01 194.28 Q2073.54 191.942 2075.6 190.784 Q2077.68 189.627 2080.39 189.627 Q2084.86 189.627 2087.15 192.405 Q2089.44 195.159 2089.44 200.529 Z" fill="#000000" fill-rule="nonzero" fill-opacity="1" /><path clip-path="url(#clip120)" d="M2128.03 194.233 Q2127.31 193.817 2126.46 193.631 Q2125.62 193.423 2124.6 193.423 Q2120.99 193.423 2119.05 195.784 Q2117.13 198.122 2117.13 202.52 L2117.13 216.178 L2112.85 216.178 L2112.85 190.252 L2117.13 190.252 L2117.13 194.28 Q2118.47 191.918 2120.62 190.784 Q2122.78 189.627 2125.85 189.627 Q2126.29 189.627 2126.83 189.696 Q2127.36 189.743 2128.01 189.858 L2128.03 194.233 Z" fill="#000000" fill-rule="nonzero" fill-opacity="1" /><path clip-path="url(#clip120)" d="M2153.63 202.15 L2153.63 204.233 L2134.05 204.233 Q2134.33 208.631 2136.69 210.946 Q2139.07 213.238 2143.31 213.238 Q2145.76 213.238 2148.05 212.636 Q2150.37 212.034 2152.64 210.83 L2152.64 214.858 Q2150.35 215.83 2147.94 216.34 Q2145.53 216.849 2143.05 216.849 Q2136.85 216.849 2133.22 213.238 Q2129.6 209.627 2129.6 203.469 Q2129.6 197.104 2133.03 193.377 Q2136.48 189.627 2142.31 189.627 Q2147.54 189.627 2150.58 193.006 Q2153.63 196.363 2153.63 202.15 M2149.37 200.9 Q2149.33 197.405 2147.41 195.321 Q2145.51 193.238 2142.36 193.238 Q2138.79 193.238 2136.64 195.252 Q2134.51 197.266 2134.19 200.923 L2149.37 200.9 Z" fill="#000000" fill-rule="nonzero" fill-opacity="1" /><path clip-path="url(#clip120)" d="M2177.68 202.914 Q2177.68 198.284 2175.76 195.738 Q2173.86 193.192 2170.41 193.192 Q2166.99 193.192 2165.07 195.738 Q2163.17 198.284 2163.17 202.914 Q2163.17 207.52 2165.07 210.066 Q2166.99 212.613 2170.41 212.613 Q2173.86 212.613 2175.76 210.066 Q2177.68 207.52 2177.68 202.914 M2181.94 212.96 Q2181.94 219.58 2179 222.798 Q2176.06 226.039 2170 226.039 Q2167.75 226.039 2165.76 225.691 Q2163.77 225.367 2161.9 224.673 L2161.9 220.529 Q2163.77 221.548 2165.6 222.034 Q2167.43 222.52 2169.33 222.52 Q2173.52 222.52 2175.6 220.321 Q2177.68 218.145 2177.68 213.724 L2177.68 211.617 Q2176.36 213.909 2174.3 215.043 Q2172.24 216.178 2169.37 216.178 Q2164.6 216.178 2161.69 212.543 Q2158.77 208.909 2158.77 202.914 Q2158.77 196.895 2161.69 193.261 Q2164.6 189.627 2169.37 189.627 Q2172.24 189.627 2174.3 190.761 Q2176.36 191.895 2177.68 194.187 L2177.68 190.252 L2181.94 190.252 L2181.94 212.96 Z" fill="#000000" fill-rule="nonzero" fill-opacity="1" /><path clip-path="url(#clip120)" d="M2190.72 190.252 L2194.97 190.252 L2194.97 216.178 L2190.72 216.178 L2190.72 190.252 M2190.72 180.159 L2194.97 180.159 L2194.97 185.553 L2190.72 185.553 L2190.72 180.159 Z" fill="#000000" fill-rule="nonzero" fill-opacity="1" /><path clip-path="url(#clip120)" d="M2213.93 193.238 Q2210.51 193.238 2208.52 195.923 Q2206.53 198.585 2206.53 203.238 Q2206.53 207.891 2208.49 210.576 Q2210.48 213.238 2213.93 213.238 Q2217.34 213.238 2219.33 210.553 Q2221.32 207.867 2221.32 203.238 Q2221.32 198.631 2219.33 195.946 Q2217.34 193.238 2213.93 193.238 M2213.93 189.627 Q2219.49 189.627 2222.66 193.238 Q2225.83 196.849 2225.83 203.238 Q2225.83 209.604 2222.66 213.238 Q2219.49 216.849 2213.93 216.849 Q2208.35 216.849 2205.18 213.238 Q2202.03 209.604 2202.03 203.238 Q2202.03 196.849 2205.18 193.238 Q2208.35 189.627 2213.93 189.627 Z" fill="#000000" fill-rule="nonzero" fill-opacity="1" /><path clip-path="url(#clip120)" d="M2254.44 200.529 L2254.44 216.178 L2250.18 216.178 L2250.18 200.668 Q2250.18 196.988 2248.75 195.159 Q2247.31 193.33 2244.44 193.33 Q2240.99 193.33 2239 195.53 Q2237.01 197.729 2237.01 201.525 L2237.01 216.178 L2232.73 216.178 L2232.73 190.252 L2237.01 190.252 L2237.01 194.28 Q2238.54 191.942 2240.6 190.784 Q2242.68 189.627 2245.39 189.627 Q2249.86 189.627 2252.15 192.405 Q2254.44 195.159 2254.44 200.529 Z" fill="#000000" fill-rule="nonzero" fill-opacity="1" /><path clip-path="url(#clip120)" d="M1490.94 271.474 L1638.41 271.474 L1638.41 230.002 L1490.94 230.002 L1490.94 271.474  Z" fill="#ffa500" fill-rule="evenodd" fill-opacity="0.5"/>
<polyline clip-path="url(#clip120)" style="stroke:#ffa500; stroke-linecap:round; stroke-linejoin:round; stroke-width:4; stroke-opacity:1; fill:none" points="1490.94,230.002 1638.41,230.002 "/>
<path clip-path="url(#clip120)" d="M1667.39 255.078 Q1667.39 259.777 1669.31 262.462 Q1671.25 265.124 1674.63 265.124 Q1678.01 265.124 1679.95 262.462 Q1681.9 259.777 1681.9 255.078 Q1681.9 250.379 1679.95 247.717 Q1678.01 245.032 1674.63 245.032 Q1671.25 245.032 1669.31 247.717 Q1667.39 250.379 1667.39 255.078 M1681.9 264.129 Q1680.56 266.443 1678.5 267.578 Q1676.46 268.689 1673.59 268.689 Q1668.89 268.689 1665.93 264.939 Q1662.99 261.189 1662.99 255.078 Q1662.99 248.967 1665.93 245.217 Q1668.89 241.467 1673.59 241.467 Q1676.46 241.467 1678.5 242.601 Q1680.56 243.712 1681.9 246.027 L1681.9 242.092 L1686.16 242.092 L1686.16 277.879 L1681.9 277.879 L1681.9 264.129 Z" fill="#000000" fill-rule="nonzero" fill-opacity="1" /><path clip-path="url(#clip120)" d="M1695.67 267.3 L1695.67 263.041 Q1697.43 263.874 1699.24 264.314 Q1701.04 264.754 1702.78 264.754 Q1707.41 264.754 1709.84 261.652 Q1712.29 258.527 1712.64 252.184 Q1711.3 254.175 1709.24 255.24 Q1707.18 256.305 1704.68 256.305 Q1699.49 256.305 1696.46 253.18 Q1693.45 250.032 1693.45 244.592 Q1693.45 239.268 1696.6 236.05 Q1699.75 232.833 1704.98 232.833 Q1710.97 232.833 1714.12 237.439 Q1717.29 242.022 1717.29 250.772 Q1717.29 258.944 1713.4 263.828 Q1709.54 268.689 1702.99 268.689 Q1701.23 268.689 1699.42 268.342 Q1697.62 267.994 1695.67 267.3 M1704.98 252.647 Q1708.13 252.647 1709.95 250.494 Q1711.81 248.342 1711.81 244.592 Q1711.81 240.865 1709.95 238.712 Q1708.13 236.536 1704.98 236.536 Q1701.83 236.536 1699.98 238.712 Q1698.15 240.865 1698.15 244.592 Q1698.15 248.342 1699.98 250.494 Q1701.83 252.647 1704.98 252.647 Z" fill="#000000" fill-rule="nonzero" fill-opacity="1" /><path clip-path="url(#clip120)" d="M1725.74 233.458 L1744.1 233.458 L1744.1 237.393 L1730.02 237.393 L1730.02 245.865 Q1731.04 245.518 1732.06 245.356 Q1733.08 245.17 1734.1 245.17 Q1739.88 245.17 1743.26 248.342 Q1746.64 251.513 1746.64 256.93 Q1746.64 262.508 1743.17 265.61 Q1739.7 268.689 1733.38 268.689 Q1731.2 268.689 1728.94 268.318 Q1726.69 267.948 1724.28 267.207 L1724.28 262.508 Q1726.37 263.643 1728.59 264.198 Q1730.81 264.754 1733.29 264.754 Q1737.29 264.754 1739.63 262.647 Q1741.97 260.541 1741.97 256.93 Q1741.97 253.319 1739.63 251.212 Q1737.29 249.106 1733.29 249.106 Q1731.41 249.106 1729.54 249.522 Q1727.69 249.939 1725.74 250.819 L1725.74 233.458 Z" fill="#000000" fill-rule="nonzero" fill-opacity="1" /><polyline clip-path="url(#clip120)" style="stroke:#0000ff; stroke-linecap:round; stroke-linejoin:round; stroke-width:4; stroke-opacity:1; fill:none" points="1490.94,302.578 1638.41,302.578 "/>
<path clip-path="url(#clip120)" d="M1683.33 298.909 Q1684.93 296.038 1687.15 294.673 Q1689.38 293.307 1692.38 293.307 Q1696.44 293.307 1698.63 296.154 Q1700.83 298.978 1700.83 304.209 L1700.83 319.858 L1696.55 319.858 L1696.55 304.348 Q1696.55 300.622 1695.23 298.816 Q1693.91 297.01 1691.2 297.01 Q1687.89 297.01 1685.97 299.21 Q1684.05 301.409 1684.05 305.205 L1684.05 319.858 L1679.77 319.858 L1679.77 304.348 Q1679.77 300.598 1678.45 298.816 Q1677.13 297.01 1674.38 297.01 Q1671.11 297.01 1669.19 299.233 Q1667.27 301.432 1667.27 305.205 L1667.27 319.858 L1662.99 319.858 L1662.99 293.932 L1667.27 293.932 L1667.27 297.96 Q1668.73 295.575 1670.76 294.441 Q1672.8 293.307 1675.6 293.307 Q1678.43 293.307 1680.39 294.742 Q1682.38 296.177 1683.33 298.909 Z" fill="#000000" fill-rule="nonzero" fill-opacity="1" /><path clip-path="url(#clip120)" d="M1731.51 305.83 L1731.51 307.913 L1711.92 307.913 Q1712.2 312.311 1714.56 314.626 Q1716.94 316.918 1721.18 316.918 Q1723.63 316.918 1725.93 316.316 Q1728.24 315.714 1730.51 314.51 L1730.51 318.538 Q1728.22 319.51 1725.81 320.02 Q1723.4 320.529 1720.93 320.529 Q1714.72 320.529 1711.09 316.918 Q1707.48 313.307 1707.48 307.149 Q1707.48 300.784 1710.9 297.057 Q1714.35 293.307 1720.19 293.307 Q1725.42 293.307 1728.45 296.686 Q1731.51 300.043 1731.51 305.83 M1727.25 304.58 Q1727.2 301.085 1725.28 299.001 Q1723.38 296.918 1720.23 296.918 Q1716.67 296.918 1714.51 298.932 Q1712.38 300.946 1712.06 304.603 L1727.25 304.58 Z" fill="#000000" fill-rule="nonzero" fill-opacity="1" /><path clip-path="url(#clip120)" d="M1750.28 306.825 Q1745.12 306.825 1743.13 308.006 Q1741.13 309.186 1741.13 312.034 Q1741.13 314.302 1742.62 315.645 Q1744.12 316.964 1746.69 316.964 Q1750.23 316.964 1752.36 314.464 Q1754.51 311.941 1754.51 307.774 L1754.51 306.825 L1750.28 306.825 M1758.77 305.066 L1758.77 319.858 L1754.51 319.858 L1754.51 315.922 Q1753.06 318.283 1750.88 319.418 Q1748.7 320.529 1745.56 320.529 Q1741.57 320.529 1739.21 318.307 Q1736.88 316.061 1736.88 312.311 Q1736.88 307.936 1739.79 305.714 Q1742.73 303.492 1748.54 303.492 L1754.51 303.492 L1754.51 303.075 Q1754.51 300.135 1752.57 298.538 Q1750.65 296.918 1747.15 296.918 Q1744.93 296.918 1742.82 297.45 Q1740.72 297.983 1738.77 299.047 L1738.77 295.112 Q1741.11 294.21 1743.31 293.77 Q1745.51 293.307 1747.59 293.307 Q1753.22 293.307 1756 296.223 Q1758.77 299.14 1758.77 305.066 Z" fill="#000000" fill-rule="nonzero" fill-opacity="1" /><path clip-path="url(#clip120)" d="M1789.1 304.209 L1789.1 319.858 L1784.84 319.858 L1784.84 304.348 Q1784.84 300.668 1783.4 298.839 Q1781.97 297.01 1779.1 297.01 Q1775.65 297.01 1773.66 299.21 Q1771.67 301.409 1771.67 305.205 L1771.67 319.858 L1767.38 319.858 L1767.38 293.932 L1771.67 293.932 L1771.67 297.96 Q1773.19 295.622 1775.25 294.464 Q1777.34 293.307 1780.05 293.307 Q1784.51 293.307 1786.81 296.085 Q1789.1 298.839 1789.1 304.209 Z" fill="#000000" fill-rule="nonzero" fill-opacity="1" /><polyline clip-path="url(#clip120)" style="stroke:#000000; stroke-linecap:round; stroke-linejoin:round; stroke-width:4; stroke-opacity:1; fill:none" points="1490.94,354.418 1638.41,354.418 "/>
<path clip-path="url(#clip120)" d="M1683.33 350.749 Q1684.93 347.878 1687.15 346.513 Q1689.38 345.147 1692.38 345.147 Q1696.44 345.147 1698.63 347.994 Q1700.83 350.818 1700.83 356.049 L1700.83 371.698 L1696.55 371.698 L1696.55 356.188 Q1696.55 352.462 1695.23 350.656 Q1693.91 348.85 1691.2 348.85 Q1687.89 348.85 1685.97 351.05 Q1684.05 353.249 1684.05 357.045 L1684.05 371.698 L1679.77 371.698 L1679.77 356.188 Q1679.77 352.438 1678.45 350.656 Q1677.13 348.85 1674.38 348.85 Q1671.11 348.85 1669.19 351.073 Q1667.27 353.272 1667.27 357.045 L1667.27 371.698 L1662.99 371.698 L1662.99 345.772 L1667.27 345.772 L1667.27 349.8 Q1668.73 347.415 1670.76 346.281 Q1672.8 345.147 1675.6 345.147 Q1678.43 345.147 1680.39 346.582 Q1682.38 348.017 1683.33 350.749 Z" fill="#000000" fill-rule="nonzero" fill-opacity="1" /><path clip-path="url(#clip120)" d="M1731.51 357.67 L1731.51 359.753 L1711.92 359.753 Q1712.2 364.151 1714.56 366.466 Q1716.94 368.758 1721.18 368.758 Q1723.63 368.758 1725.93 368.156 Q1728.24 367.554 1730.51 366.35 L1730.51 370.378 Q1728.22 371.35 1725.81 371.86 Q1723.4 372.369 1720.93 372.369 Q1714.72 372.369 1711.09 368.758 Q1707.48 365.147 1707.48 358.989 Q1707.48 352.624 1710.9 348.897 Q1714.35 345.147 1720.19 345.147 Q1725.42 345.147 1728.45 348.526 Q1731.51 351.883 1731.51 357.67 M1727.25 356.42 Q1727.2 352.925 1725.28 350.841 Q1723.38 348.758 1720.23 348.758 Q1716.67 348.758 1714.51 350.772 Q1712.38 352.786 1712.06 356.443 L1727.25 356.42 Z" fill="#000000" fill-rule="nonzero" fill-opacity="1" /><path clip-path="url(#clip120)" d="M1755.56 349.707 L1755.56 335.679 L1759.82 335.679 L1759.82 371.698 L1755.56 371.698 L1755.56 367.809 Q1754.21 370.123 1752.15 371.258 Q1750.12 372.369 1747.25 372.369 Q1742.55 372.369 1739.58 368.619 Q1736.64 364.869 1736.64 358.758 Q1736.64 352.647 1739.58 348.897 Q1742.55 345.147 1747.25 345.147 Q1750.12 345.147 1752.15 346.281 Q1754.21 347.392 1755.56 349.707 M1741.04 358.758 Q1741.04 363.457 1742.96 366.142 Q1744.91 368.804 1748.29 368.804 Q1751.67 368.804 1753.61 366.142 Q1755.56 363.457 1755.56 358.758 Q1755.56 354.059 1753.61 351.397 Q1751.67 348.712 1748.29 348.712 Q1744.91 348.712 1742.96 351.397 Q1741.04 354.059 1741.04 358.758 Z" fill="#000000" fill-rule="nonzero" fill-opacity="1" /><path clip-path="url(#clip120)" d="M1768.59 345.772 L1772.85 345.772 L1772.85 371.698 L1768.59 371.698 L1768.59 345.772 M1768.59 335.679 L1772.85 335.679 L1772.85 341.073 L1768.59 341.073 L1768.59 335.679 Z" fill="#000000" fill-rule="nonzero" fill-opacity="1" /><path clip-path="url(#clip120)" d="M1793.54 358.665 Q1788.38 358.665 1786.39 359.846 Q1784.4 361.026 1784.4 363.874 Q1784.4 366.142 1785.88 367.485 Q1787.38 368.804 1789.95 368.804 Q1793.5 368.804 1795.63 366.304 Q1797.78 363.781 1797.78 359.614 L1797.78 358.665 L1793.54 358.665 M1802.04 356.906 L1802.04 371.698 L1797.78 371.698 L1797.78 367.762 Q1796.32 370.123 1794.14 371.258 Q1791.97 372.369 1788.82 372.369 Q1784.84 372.369 1782.48 370.147 Q1780.14 367.901 1780.14 364.151 Q1780.14 359.776 1783.06 357.554 Q1786 355.332 1791.81 355.332 L1797.78 355.332 L1797.78 354.915 Q1797.78 351.975 1795.83 350.378 Q1793.91 348.758 1790.42 348.758 Q1788.19 348.758 1786.09 349.29 Q1783.98 349.823 1782.04 350.887 L1782.04 346.952 Q1784.38 346.05 1786.57 345.61 Q1788.77 345.147 1790.86 345.147 Q1796.48 345.147 1799.26 348.063 Q1802.04 350.98 1802.04 356.906 Z" fill="#000000" fill-rule="nonzero" fill-opacity="1" /><path clip-path="url(#clip120)" d="M1832.36 356.049 L1832.36 371.698 L1828.1 371.698 L1828.1 356.188 Q1828.1 352.508 1826.67 350.679 Q1825.23 348.85 1822.36 348.85 Q1818.91 348.85 1816.92 351.05 Q1814.93 353.249 1814.93 357.045 L1814.93 371.698 L1810.65 371.698 L1810.65 345.772 L1814.93 345.772 L1814.93 349.8 Q1816.46 347.462 1818.52 346.304 Q1820.6 345.147 1823.31 345.147 Q1827.78 345.147 1830.07 347.925 Q1832.36 350.679 1832.36 356.049 Z" fill="#000000" fill-rule="nonzero" fill-opacity="1" /></svg>
