<?xml version="1.0" encoding="utf-8"?>
<svg xmlns="http://www.w3.org/2000/svg" xmlns:xlink="http://www.w3.org/1999/xlink" width="600" height="400" viewBox="0 0 2400 1600">
<defs>
  <clipPath id="clip900">
    <rect x="0" y="0" width="2400" height="1600"/>
  </clipPath>
</defs>
<path clip-path="url(#clip900)" d="M0 1600 L2400 1600 L2400 0 L0 0  Z" fill="#ffffff" fill-rule="evenodd" fill-opacity="1"/>
<defs>
  <clipPath id="clip901">
    <rect x="480" y="0" width="1681" height="1600"/>
  </clipPath>
</defs>
<path clip-path="url(#clip900)" d="M140.696 1486.45 L2352.76 1486.45 L2352.76 47.2441 L140.696 47.2441  Z" fill="#ffffff" fill-rule="evenodd" fill-opacity="1"/>
<defs>
  <clipPath id="clip902">
    <rect x="140" y="47" width="2213" height="1440"/>
  </clipPath>
</defs>
<polyline clip-path="url(#clip902)" style="stroke:#000000; stroke-linecap:round; stroke-linejoin:round; stroke-width:2; stroke-opacity:0.1; fill:none" points="257.761,1486.45 257.761,47.2441 "/>
<polyline clip-path="url(#clip902)" style="stroke:#000000; stroke-linecap:round; stroke-linejoin:round; stroke-width:2; stroke-opacity:0.1; fill:none" points="569.044,1486.45 569.044,47.2441 "/>
<polyline clip-path="url(#clip902)" style="stroke:#000000; stroke-linecap:round; stroke-linejoin:round; stroke-width:2; stroke-opacity:0.1; fill:none" points="880.326,1486.45 880.326,47.2441 "/>
<polyline clip-path="url(#clip902)" style="stroke:#000000; stroke-linecap:round; stroke-linejoin:round; stroke-width:2; stroke-opacity:0.1; fill:none" points="1191.61,1486.45 1191.61,47.2441 "/>
<polyline clip-path="url(#clip902)" style="stroke:#000000; stroke-linecap:round; stroke-linejoin:round; stroke-width:2; stroke-opacity:0.1; fill:none" points="1502.89,1486.45 1502.89,47.2441 "/>
<polyline clip-path="url(#clip902)" style="stroke:#000000; stroke-linecap:round; stroke-linejoin:round; stroke-width:2; stroke-opacity:0.1; fill:none" points="1814.18,1486.45 1814.18,47.2441 "/>
<polyline clip-path="url(#clip902)" style="stroke:#000000; stroke-linecap:round; stroke-linejoin:round; stroke-width:2; stroke-opacity:0.1; fill:none" points="2125.46,1486.45 2125.46,47.2441 "/>
<polyline clip-path="url(#clip900)" style="stroke:#000000; stroke-linecap:round; stroke-linejoin:round; stroke-width:4; stroke-opacity:1; fill:none" points="140.696,1486.45 2352.76,1486.45 "/>
<polyline clip-path="url(#clip900)" style="stroke:#000000; stroke-linecap:round; stroke-linejoin:round; stroke-width:4; stroke-opacity:1; fill:none" points="257.761,1486.45 257.761,1467.55 "/>
<polyline clip-path="url(#clip900)" style="stroke:#000000; stroke-linecap:round; stroke-linejoin:round; stroke-width:4; stroke-opacity:1; fill:none" points="569.044,1486.45 569.044,1467.55 "/>
<polyline clip-path="url(#clip900)" style="stroke:#000000; stroke-linecap:round; stroke-linejoin:round; stroke-width:4; stroke-opacity:1; fill:none" points="880.326,1486.45 880.326,1467.55 "/>
<polyline clip-path="url(#clip900)" style="stroke:#000000; stroke-linecap:round; stroke-linejoin:round; stroke-width:4; stroke-opacity:1; fill:none" points="1191.61,1486.45 1191.61,1467.55 "/>
<polyline clip-path="url(#clip900)" style="stroke:#000000; stroke-linecap:round; stroke-linejoin:round; stroke-width:4; stroke-opacity:1; fill:none" points="1502.89,1486.45 1502.89,1467.55 "/>
<polyline clip-path="url(#clip900)" style="stroke:#000000; stroke-linecap:round; stroke-linejoin:round; stroke-width:4; stroke-opacity:1; fill:none" points="1814.18,1486.45 1814.18,1467.55 "/>
<polyline clip-path="url(#clip900)" style="stroke:#000000; stroke-linecap:round; stroke-linejoin:round; stroke-width:4; stroke-opacity:1; fill:none" points="2125.46,1486.45 2125.46,1467.55 "/>
<path clip-path="url(#clip900)" d="M210.631 1544.91 L218.27 1544.91 L218.27 1518.55 L209.96 1520.21 L209.96 1515.95 L218.224 1514.29 L222.9 1514.29 L222.9 1544.91 L230.539 1544.91 L230.539 1548.85 L210.631 1548.85 L210.631 1544.91 Z" fill="#000000" fill-rule="nonzero" fill-opacity="1" /><path clip-path="url(#clip900)" d="M239.983 1542.97 L244.867 1542.97 L244.867 1548.85 L239.983 1548.85 L239.983 1542.97 Z" fill="#000000" fill-rule="nonzero" fill-opacity="1" /><path clip-path="url(#clip900)" d="M255.191 1548.13 L255.191 1543.87 Q256.951 1544.7 258.756 1545.14 Q260.562 1545.58 262.298 1545.58 Q266.927 1545.58 269.358 1542.48 Q271.812 1539.36 272.159 1533.01 Q270.816 1535.01 268.756 1536.07 Q266.696 1537.13 264.196 1537.13 Q259.011 1537.13 255.978 1534.01 Q252.969 1530.86 252.969 1525.42 Q252.969 1520.1 256.117 1516.88 Q259.265 1513.66 264.497 1513.66 Q270.492 1513.66 273.64 1518.27 Q276.812 1522.85 276.812 1531.6 Q276.812 1539.77 272.923 1544.66 Q269.057 1549.52 262.506 1549.52 Q260.747 1549.52 258.941 1549.17 Q257.136 1548.82 255.191 1548.13 M264.497 1533.48 Q267.645 1533.48 269.474 1531.32 Q271.325 1529.17 271.325 1525.42 Q271.325 1521.7 269.474 1519.54 Q267.645 1517.37 264.497 1517.37 Q261.349 1517.37 259.497 1519.54 Q257.668 1521.7 257.668 1525.42 Q257.668 1529.17 259.497 1531.32 Q261.349 1533.48 264.497 1533.48 Z" fill="#000000" fill-rule="nonzero" fill-opacity="1" /><path clip-path="url(#clip900)" d="M289.242 1544.91 L305.561 1544.91 L305.561 1548.85 L283.617 1548.85 L283.617 1544.91 Q286.279 1542.16 290.862 1537.53 Q295.469 1532.88 296.649 1531.53 Q298.895 1529.01 299.774 1527.27 Q300.677 1525.51 300.677 1523.82 Q300.677 1521.07 298.733 1519.33 Q296.811 1517.6 293.71 1517.6 Q291.511 1517.6 289.057 1518.36 Q286.626 1519.13 283.849 1520.68 L283.849 1515.95 Q286.673 1514.82 289.126 1514.24 Q291.58 1513.66 293.617 1513.66 Q298.987 1513.66 302.182 1516.35 Q305.376 1519.03 305.376 1523.52 Q305.376 1525.65 304.566 1527.57 Q303.779 1529.47 301.672 1532.07 Q301.094 1532.74 297.992 1535.95 Q294.89 1539.15 289.242 1544.91 Z" fill="#000000" fill-rule="nonzero" fill-opacity="1" /><path clip-path="url(#clip900)" d="M520.873 1544.91 L528.511 1544.91 L528.511 1518.55 L520.201 1520.21 L520.201 1515.95 L528.465 1514.29 L533.141 1514.29 L533.141 1544.91 L540.78 1544.91 L540.78 1548.85 L520.873 1548.85 L520.873 1544.91 Z" fill="#000000" fill-rule="nonzero" fill-opacity="1" /><path clip-path="url(#clip900)" d="M550.224 1542.97 L555.108 1542.97 L555.108 1548.85 L550.224 1548.85 L550.224 1542.97 Z" fill="#000000" fill-rule="nonzero" fill-opacity="1" /><path clip-path="url(#clip900)" d="M565.432 1548.13 L565.432 1543.87 Q567.192 1544.7 568.997 1545.14 Q570.803 1545.58 572.539 1545.58 Q577.169 1545.58 579.599 1542.48 Q582.053 1539.36 582.4 1533.01 Q581.057 1535.01 578.997 1536.07 Q576.937 1537.13 574.437 1537.13 Q569.252 1537.13 566.219 1534.01 Q563.21 1530.86 563.21 1525.42 Q563.21 1520.1 566.358 1516.88 Q569.507 1513.66 574.738 1513.66 Q580.733 1513.66 583.881 1518.27 Q587.053 1522.85 587.053 1531.6 Q587.053 1539.77 583.164 1544.66 Q579.298 1549.52 572.747 1549.52 Q570.988 1549.52 569.182 1549.17 Q567.377 1548.82 565.432 1548.13 M574.738 1533.48 Q577.886 1533.48 579.715 1531.32 Q581.567 1529.17 581.567 1525.42 Q581.567 1521.7 579.715 1519.54 Q577.886 1517.37 574.738 1517.37 Q571.59 1517.37 569.738 1519.54 Q567.909 1521.7 567.909 1525.42 Q567.909 1529.17 569.738 1531.32 Q571.59 1533.48 574.738 1533.48 Z" fill="#000000" fill-rule="nonzero" fill-opacity="1" /><path clip-path="url(#clip900)" d="M608.303 1518.36 L596.497 1536.81 L608.303 1536.81 L608.303 1518.36 M607.076 1514.29 L612.955 1514.29 L612.955 1536.81 L617.886 1536.81 L617.886 1540.7 L612.955 1540.7 L612.955 1548.85 L608.303 1548.85 L608.303 1540.7 L592.701 1540.7 L592.701 1536.19 L607.076 1514.29 Z" fill="#000000" fill-rule="nonzero" fill-opacity="1" /><path clip-path="url(#clip900)" d="M832.317 1544.91 L839.956 1544.91 L839.956 1518.55 L831.646 1520.21 L831.646 1515.95 L839.91 1514.29 L844.586 1514.29 L844.586 1544.91 L852.225 1544.91 L852.225 1548.85 L832.317 1548.85 L832.317 1544.91 Z" fill="#000000" fill-rule="nonzero" fill-opacity="1" /><path clip-path="url(#clip900)" d="M861.669 1542.97 L866.553 1542.97 L866.553 1548.85 L861.669 1548.85 L861.669 1542.97 Z" fill="#000000" fill-rule="nonzero" fill-opacity="1" /><path clip-path="url(#clip900)" d="M876.877 1548.13 L876.877 1543.87 Q878.637 1544.7 880.442 1545.14 Q882.248 1545.58 883.984 1545.58 Q888.613 1545.58 891.044 1542.48 Q893.498 1539.36 893.845 1533.01 Q892.502 1535.01 890.442 1536.07 Q888.382 1537.13 885.882 1537.13 Q880.697 1537.13 877.664 1534.01 Q874.655 1530.86 874.655 1525.42 Q874.655 1520.1 877.803 1516.88 Q880.951 1513.66 886.183 1513.66 Q892.178 1513.66 895.326 1518.27 Q898.498 1522.85 898.498 1531.6 Q898.498 1539.77 894.609 1544.66 Q890.743 1549.52 884.192 1549.52 Q882.433 1549.52 880.627 1549.17 Q878.822 1548.82 876.877 1548.13 M886.183 1533.48 Q889.331 1533.48 891.16 1531.32 Q893.012 1529.17 893.012 1525.42 Q893.012 1521.7 891.16 1519.54 Q889.331 1517.37 886.183 1517.37 Q883.035 1517.37 881.183 1519.54 Q879.354 1521.7 879.354 1525.42 Q879.354 1529.17 881.183 1531.32 Q883.035 1533.48 886.183 1533.48 Z" fill="#000000" fill-rule="nonzero" fill-opacity="1" /><path clip-path="url(#clip900)" d="M917.479 1529.7 Q914.331 1529.7 912.479 1531.86 Q910.65 1534.01 910.65 1537.76 Q910.65 1541.49 912.479 1543.66 Q914.331 1545.82 917.479 1545.82 Q920.627 1545.82 922.456 1543.66 Q924.308 1541.49 924.308 1537.76 Q924.308 1534.01 922.456 1531.86 Q920.627 1529.7 917.479 1529.7 M926.761 1515.05 L926.761 1519.31 Q925.002 1518.48 923.197 1518.04 Q921.414 1517.6 919.655 1517.6 Q915.025 1517.6 912.572 1520.72 Q910.141 1523.85 909.794 1530.17 Q911.16 1528.15 913.22 1527.09 Q915.28 1526 917.757 1526 Q922.965 1526 925.974 1529.17 Q929.007 1532.32 929.007 1537.76 Q929.007 1543.08 925.859 1546.3 Q922.71 1549.52 917.479 1549.52 Q911.484 1549.52 908.312 1544.94 Q905.141 1540.33 905.141 1531.6 Q905.141 1523.41 909.03 1518.55 Q912.919 1513.66 919.47 1513.66 Q921.229 1513.66 923.011 1514.01 Q924.817 1514.36 926.761 1515.05 Z" fill="#000000" fill-rule="nonzero" fill-opacity="1" /><path clip-path="url(#clip900)" d="M1143.73 1544.91 L1151.37 1544.91 L1151.37 1518.55 L1143.06 1520.21 L1143.06 1515.95 L1151.32 1514.29 L1156 1514.29 L1156 1544.91 L1163.63 1544.91 L1163.63 1548.85 L1143.73 1548.85 L1143.73 1544.91 Z" fill="#000000" fill-rule="nonzero" fill-opacity="1" /><path clip-path="url(#clip900)" d="M1173.08 1542.97 L1177.96 1542.97 L1177.96 1548.85 L1173.08 1548.85 L1173.08 1542.97 Z" fill="#000000" fill-rule="nonzero" fill-opacity="1" /><path clip-path="url(#clip900)" d="M1188.29 1548.13 L1188.29 1543.87 Q1190.05 1544.7 1191.85 1545.14 Q1193.66 1545.58 1195.39 1545.58 Q1200.02 1545.58 1202.45 1542.48 Q1204.91 1539.36 1205.26 1533.01 Q1203.91 1535.01 1201.85 1536.07 Q1199.79 1537.13 1197.29 1537.13 Q1192.11 1537.13 1189.07 1534.01 Q1186.07 1530.86 1186.07 1525.42 Q1186.07 1520.1 1189.21 1516.88 Q1192.36 1513.66 1197.59 1513.66 Q1203.59 1513.66 1206.74 1518.27 Q1209.91 1522.85 1209.91 1531.6 Q1209.91 1539.77 1206.02 1544.66 Q1202.15 1549.52 1195.6 1549.52 Q1193.84 1549.52 1192.04 1549.17 Q1190.23 1548.82 1188.29 1548.13 M1197.59 1533.48 Q1200.74 1533.48 1202.57 1531.32 Q1204.42 1529.17 1204.42 1525.42 Q1204.42 1521.7 1202.57 1519.54 Q1200.74 1517.37 1197.59 1517.37 Q1194.44 1517.37 1192.59 1519.54 Q1190.76 1521.7 1190.76 1525.42 Q1190.76 1529.17 1192.59 1531.32 Q1194.44 1533.48 1197.59 1533.48 Z" fill="#000000" fill-rule="nonzero" fill-opacity="1" /><path clip-path="url(#clip900)" d="M1228.31 1532.44 Q1224.98 1532.44 1223.06 1534.22 Q1221.16 1536 1221.16 1539.13 Q1221.16 1542.25 1223.06 1544.03 Q1224.98 1545.82 1228.31 1545.82 Q1231.64 1545.82 1233.57 1544.03 Q1235.49 1542.23 1235.49 1539.13 Q1235.49 1536 1233.57 1534.22 Q1231.67 1532.44 1228.31 1532.44 M1223.63 1530.45 Q1220.63 1529.7 1218.94 1527.64 Q1217.27 1525.58 1217.27 1522.62 Q1217.27 1518.48 1220.21 1516.07 Q1223.17 1513.66 1228.31 1513.66 Q1233.47 1513.66 1236.41 1516.07 Q1239.35 1518.48 1239.35 1522.62 Q1239.35 1525.58 1237.66 1527.64 Q1236 1529.7 1233.01 1530.45 Q1236.39 1531.23 1238.26 1533.52 Q1240.16 1535.82 1240.16 1539.13 Q1240.16 1544.15 1237.08 1546.83 Q1234.03 1549.52 1228.31 1549.52 Q1222.59 1549.52 1219.51 1546.83 Q1216.46 1544.15 1216.46 1539.13 Q1216.46 1535.82 1218.36 1533.52 Q1220.25 1531.23 1223.63 1530.45 M1221.92 1523.06 Q1221.92 1525.75 1223.59 1527.25 Q1225.28 1528.76 1228.31 1528.76 Q1231.32 1528.76 1233.01 1527.25 Q1234.72 1525.75 1234.72 1523.06 Q1234.72 1520.38 1233.01 1518.87 Q1231.32 1517.37 1228.31 1517.37 Q1225.28 1517.37 1223.59 1518.87 Q1221.92 1520.38 1221.92 1523.06 Z" fill="#000000" fill-rule="nonzero" fill-opacity="1" /><path clip-path="url(#clip900)" d="M1459.05 1544.91 L1475.37 1544.91 L1475.37 1548.85 L1453.42 1548.85 L1453.42 1544.91 Q1456.09 1542.16 1460.67 1537.53 Q1465.28 1532.88 1466.46 1531.53 Q1468.7 1529.01 1469.58 1527.27 Q1470.48 1525.51 1470.48 1523.82 Q1470.48 1521.07 1468.54 1519.33 Q1466.62 1517.6 1463.52 1517.6 Q1461.32 1517.6 1458.86 1518.36 Q1456.43 1519.13 1453.66 1520.68 L1453.66 1515.95 Q1456.48 1514.82 1458.93 1514.24 Q1461.39 1513.66 1463.42 1513.66 Q1468.8 1513.66 1471.99 1516.35 Q1475.18 1519.03 1475.18 1523.52 Q1475.18 1525.65 1474.37 1527.57 Q1473.59 1529.47 1471.48 1532.07 Q1470.9 1532.74 1467.8 1535.95 Q1464.7 1539.15 1459.05 1544.91 Z" fill="#000000" fill-rule="nonzero" fill-opacity="1" /><path clip-path="url(#clip900)" d="M1485.18 1542.97 L1490.07 1542.97 L1490.07 1548.85 L1485.18 1548.85 L1485.18 1542.97 Z" fill="#000000" fill-rule="nonzero" fill-opacity="1" /><path clip-path="url(#clip900)" d="M1510.25 1517.37 Q1506.64 1517.37 1504.81 1520.93 Q1503.01 1524.47 1503.01 1531.6 Q1503.01 1538.71 1504.81 1542.27 Q1506.64 1545.82 1510.25 1545.82 Q1513.89 1545.82 1515.69 1542.27 Q1517.52 1538.71 1517.52 1531.6 Q1517.52 1524.47 1515.69 1520.93 Q1513.89 1517.37 1510.25 1517.37 M1510.25 1513.66 Q1516.06 1513.66 1519.12 1518.27 Q1522.2 1522.85 1522.2 1531.6 Q1522.2 1540.33 1519.12 1544.94 Q1516.06 1549.52 1510.25 1549.52 Q1504.44 1549.52 1501.36 1544.94 Q1498.31 1540.33 1498.31 1531.6 Q1498.31 1522.85 1501.36 1518.27 Q1504.44 1513.66 1510.25 1513.66 Z" fill="#000000" fill-rule="nonzero" fill-opacity="1" /><path clip-path="url(#clip900)" d="M1540.42 1517.37 Q1536.8 1517.37 1534.98 1520.93 Q1533.17 1524.47 1533.17 1531.6 Q1533.17 1538.71 1534.98 1542.27 Q1536.8 1545.82 1540.42 1545.82 Q1544.05 1545.82 1545.85 1542.27 Q1547.68 1538.71 1547.68 1531.6 Q1547.68 1524.47 1545.85 1520.93 Q1544.05 1517.37 1540.42 1517.37 M1540.42 1513.66 Q1546.23 1513.66 1549.28 1518.27 Q1552.36 1522.85 1552.36 1531.6 Q1552.36 1540.33 1549.28 1544.94 Q1546.23 1549.52 1540.42 1549.52 Q1534.6 1549.52 1531.53 1544.94 Q1528.47 1540.33 1528.47 1531.6 Q1528.47 1522.85 1531.53 1518.27 Q1534.6 1513.66 1540.42 1513.66 Z" fill="#000000" fill-rule="nonzero" fill-opacity="1" /><path clip-path="url(#clip900)" d="M1771.13 1544.91 L1787.45 1544.91 L1787.45 1548.85 L1765.51 1548.85 L1765.51 1544.91 Q1768.17 1542.16 1772.75 1537.53 Q1777.36 1532.88 1778.54 1531.53 Q1780.78 1529.01 1781.66 1527.27 Q1782.57 1525.51 1782.57 1523.82 Q1782.57 1521.07 1780.62 1519.33 Q1778.7 1517.6 1775.6 1517.6 Q1773.4 1517.6 1770.95 1518.36 Q1768.52 1519.13 1765.74 1520.68 L1765.74 1515.95 Q1768.56 1514.82 1771.02 1514.24 Q1773.47 1513.66 1775.51 1513.66 Q1780.88 1513.66 1784.07 1516.35 Q1787.27 1519.03 1787.27 1523.52 Q1787.27 1525.65 1786.46 1527.57 Q1785.67 1529.47 1783.56 1532.07 Q1782.98 1532.74 1779.88 1535.95 Q1776.78 1539.15 1771.13 1544.91 Z" fill="#000000" fill-rule="nonzero" fill-opacity="1" /><path clip-path="url(#clip900)" d="M1797.27 1542.97 L1802.15 1542.97 L1802.15 1548.85 L1797.27 1548.85 L1797.27 1542.97 Z" fill="#000000" fill-rule="nonzero" fill-opacity="1" /><path clip-path="url(#clip900)" d="M1822.33 1517.37 Q1818.72 1517.37 1816.89 1520.93 Q1815.09 1524.47 1815.09 1531.6 Q1815.09 1538.71 1816.89 1542.27 Q1818.72 1545.82 1822.33 1545.82 Q1825.97 1545.82 1827.77 1542.27 Q1829.6 1538.71 1829.6 1531.6 Q1829.6 1524.47 1827.77 1520.93 Q1825.97 1517.37 1822.33 1517.37 M1822.33 1513.66 Q1828.14 1513.66 1831.2 1518.27 Q1834.28 1522.85 1834.28 1531.6 Q1834.28 1540.33 1831.2 1544.94 Q1828.14 1549.52 1822.33 1549.52 Q1816.52 1549.52 1813.45 1544.94 Q1810.39 1540.33 1810.39 1531.6 Q1810.39 1522.85 1813.45 1518.27 Q1816.52 1513.66 1822.33 1513.66 Z" fill="#000000" fill-rule="nonzero" fill-opacity="1" /><path clip-path="url(#clip900)" d="M1846.52 1544.91 L1862.84 1544.91 L1862.84 1548.85 L1840.9 1548.85 L1840.9 1544.91 Q1843.56 1542.16 1848.14 1537.53 Q1852.75 1532.88 1853.93 1531.53 Q1856.18 1529.01 1857.06 1527.27 Q1857.96 1525.51 1857.96 1523.82 Q1857.96 1521.07 1856.02 1519.33 Q1854.09 1517.6 1850.99 1517.6 Q1848.79 1517.6 1846.34 1518.36 Q1843.91 1519.13 1841.13 1520.68 L1841.13 1515.95 Q1843.95 1514.82 1846.41 1514.24 Q1848.86 1513.66 1850.9 1513.66 Q1856.27 1513.66 1859.46 1516.35 Q1862.66 1519.03 1862.66 1523.52 Q1862.66 1525.65 1861.85 1527.57 Q1861.06 1529.47 1858.95 1532.07 Q1858.38 1532.74 1855.27 1535.95 Q1852.17 1539.15 1846.52 1544.91 Z" fill="#000000" fill-rule="nonzero" fill-opacity="1" /><path clip-path="url(#clip900)" d="M2081.37 1544.91 L2097.69 1544.91 L2097.69 1548.85 L2075.75 1548.85 L2075.75 1544.91 Q2078.41 1542.16 2082.99 1537.53 Q2087.6 1532.88 2088.78 1531.53 Q2091.03 1529.01 2091.9 1527.27 Q2092.81 1525.51 2092.81 1523.82 Q2092.81 1521.07 2090.86 1519.33 Q2088.94 1517.6 2085.84 1517.6 Q2083.64 1517.6 2081.19 1518.36 Q2078.76 1519.13 2075.98 1520.68 L2075.98 1515.95 Q2078.8 1514.82 2081.26 1514.24 Q2083.71 1513.66 2085.75 1513.66 Q2091.12 1513.66 2094.31 1516.35 Q2097.51 1519.03 2097.51 1523.52 Q2097.51 1525.65 2096.7 1527.57 Q2095.91 1529.47 2093.8 1532.07 Q2093.22 1532.74 2090.12 1535.95 Q2087.02 1539.15 2081.37 1544.91 Z" fill="#000000" fill-rule="nonzero" fill-opacity="1" /><path clip-path="url(#clip900)" d="M2107.51 1542.97 L2112.39 1542.97 L2112.39 1548.85 L2107.51 1548.85 L2107.51 1542.97 Z" fill="#000000" fill-rule="nonzero" fill-opacity="1" /><path clip-path="url(#clip900)" d="M2132.58 1517.37 Q2128.96 1517.37 2127.14 1520.93 Q2125.33 1524.47 2125.33 1531.6 Q2125.33 1538.71 2127.14 1542.27 Q2128.96 1545.82 2132.58 1545.82 Q2136.21 1545.82 2138.02 1542.27 Q2139.84 1538.71 2139.84 1531.6 Q2139.84 1524.47 2138.02 1520.93 Q2136.21 1517.37 2132.58 1517.37 M2132.58 1513.66 Q2138.39 1513.66 2141.44 1518.27 Q2144.52 1522.85 2144.52 1531.6 Q2144.52 1540.33 2141.44 1544.94 Q2138.39 1549.52 2132.58 1549.52 Q2126.77 1549.52 2123.69 1544.94 Q2120.63 1540.33 2120.63 1531.6 Q2120.63 1522.85 2123.69 1518.27 Q2126.77 1513.66 2132.58 1513.66 Z" fill="#000000" fill-rule="nonzero" fill-opacity="1" /><path clip-path="url(#clip900)" d="M2165.58 1518.36 L2153.78 1536.81 L2165.58 1536.81 L2165.58 1518.36 M2164.36 1514.29 L2170.24 1514.29 L2170.24 1536.81 L2175.17 1536.81 L2175.17 1540.7 L2170.24 1540.7 L2170.24 1548.85 L2165.58 1548.85 L2165.58 1540.7 L2149.98 1540.7 L2149.98 1536.19 L2164.36 1514.29 Z" fill="#000000" fill-rule="nonzero" fill-opacity="1" /><polyline clip-path="url(#clip902)" style="stroke:#000000; stroke-linecap:round; stroke-linejoin:round; stroke-width:2; stroke-opacity:0.1; fill:none" points="140.696,1445.72 2352.76,1445.72 "/>
<polyline clip-path="url(#clip902)" style="stroke:#000000; stroke-linecap:round; stroke-linejoin:round; stroke-width:2; stroke-opacity:0.1; fill:none" points="140.696,1191.35 2352.76,1191.35 "/>
<polyline clip-path="url(#clip902)" style="stroke:#000000; stroke-linecap:round; stroke-linejoin:round; stroke-width:2; stroke-opacity:0.1; fill:none" points="140.696,936.987 2352.76,936.987 "/>
<polyline clip-path="url(#clip902)" style="stroke:#000000; stroke-linecap:round; stroke-linejoin:round; stroke-width:2; stroke-opacity:0.1; fill:none" points="140.696,682.623 2352.76,682.623 "/>
<polyline clip-path="url(#clip902)" style="stroke:#000000; stroke-linecap:round; stroke-linejoin:round; stroke-width:2; stroke-opacity:0.1; fill:none" points="140.696,428.259 2352.76,428.259 "/>
<polyline clip-path="url(#clip902)" style="stroke:#000000; stroke-linecap:round; stroke-linejoin:round; stroke-width:2; stroke-opacity:0.1; fill:none" points="140.696,173.895 2352.76,173.895 "/>
<polyline clip-path="url(#clip900)" style="stroke:#000000; stroke-linecap:round; stroke-linejoin:round; stroke-width:4; stroke-opacity:1; fill:none" points="140.696,1486.45 140.696,47.2441 "/>
<polyline clip-path="url(#clip900)" style="stroke:#000000; stroke-linecap:round; stroke-linejoin:round; stroke-width:4; stroke-opacity:1; fill:none" points="140.696,1445.72 159.593,1445.72 "/>
<polyline clip-path="url(#clip900)" style="stroke:#000000; stroke-linecap:round; stroke-linejoin:round; stroke-width:4; stroke-opacity:1; fill:none" points="140.696,1191.35 159.593,1191.35 "/>
<polyline clip-path="url(#clip900)" style="stroke:#000000; stroke-linecap:round; stroke-linejoin:round; stroke-width:4; stroke-opacity:1; fill:none" points="140.696,936.987 159.593,936.987 "/>
<polyline clip-path="url(#clip900)" style="stroke:#000000; stroke-linecap:round; stroke-linejoin:round; stroke-width:4; stroke-opacity:1; fill:none" points="140.696,682.623 159.593,682.623 "/>
<polyline clip-path="url(#clip900)" style="stroke:#000000; stroke-linecap:round; stroke-linejoin:round; stroke-width:4; stroke-opacity:1; fill:none" points="140.696,428.259 159.593,428.259 "/>
<polyline clip-path="url(#clip900)" style="stroke:#000000; stroke-linecap:round; stroke-linejoin:round; stroke-width:4; stroke-opacity:1; fill:none" points="140.696,173.895 159.593,173.895 "/>
<path clip-path="url(#clip900)" d="M92.7512 1431.51 Q89.1401 1431.51 87.3114 1435.08 Q85.5058 1438.62 85.5058 1445.75 Q85.5058 1452.86 87.3114 1456.42 Q89.1401 1459.96 92.7512 1459.96 Q96.3854 1459.96 98.1909 1456.42 Q100.02 1452.86 100.02 1445.75 Q100.02 1438.62 98.1909 1435.08 Q96.3854 1431.51 92.7512 1431.51 M92.7512 1427.81 Q98.5613 1427.81 101.617 1432.42 Q104.696 1437 104.696 1445.75 Q104.696 1454.48 101.617 1459.08 Q98.5613 1463.67 92.7512 1463.67 Q86.941 1463.67 83.8623 1459.08 Q80.8068 1454.48 80.8068 1445.75 Q80.8068 1437 83.8623 1432.42 Q86.941 1427.81 92.7512 1427.81 Z" fill="#000000" fill-rule="nonzero" fill-opacity="1" /><path clip-path="url(#clip900)" d="M83.7929 1174.07 L102.149 1174.07 L102.149 1178.01 L88.0753 1178.01 L88.0753 1186.48 Q89.0938 1186.13 90.1123 1185.97 Q91.1308 1185.78 92.1493 1185.78 Q97.9363 1185.78 101.316 1188.96 Q104.696 1192.13 104.696 1197.54 Q104.696 1203.12 101.223 1206.22 Q97.7511 1209.3 91.4317 1209.3 Q89.2558 1209.3 86.9873 1208.93 Q84.7419 1208.56 82.3346 1207.82 L82.3346 1203.12 Q84.4179 1204.26 86.6401 1204.81 Q88.8623 1205.37 91.3391 1205.37 Q95.3437 1205.37 97.6817 1203.26 Q100.02 1201.15 100.02 1197.54 Q100.02 1193.93 97.6817 1191.83 Q95.3437 1189.72 91.3391 1189.72 Q89.4641 1189.72 87.5892 1190.14 Q85.7373 1190.55 83.7929 1191.43 L83.7929 1174.07 Z" fill="#000000" fill-rule="nonzero" fill-opacity="1" /><path clip-path="url(#clip900)" d="M53.3995 950.332 L61.0384 950.332 L61.0384 923.967 L52.7282 925.633 L52.7282 921.374 L60.9921 919.707 L65.668 919.707 L65.668 950.332 L73.3068 950.332 L73.3068 954.267 L53.3995 954.267 L53.3995 950.332 Z" fill="#000000" fill-rule="nonzero" fill-opacity="1" /><path clip-path="url(#clip900)" d="M92.7512 922.786 Q89.1401 922.786 87.3114 926.351 Q85.5058 929.892 85.5058 937.022 Q85.5058 944.128 87.3114 947.693 Q89.1401 951.235 92.7512 951.235 Q96.3854 951.235 98.1909 947.693 Q100.02 944.128 100.02 937.022 Q100.02 929.892 98.1909 926.351 Q96.3854 922.786 92.7512 922.786 M92.7512 919.082 Q98.5613 919.082 101.617 923.689 Q104.696 928.272 104.696 937.022 Q104.696 945.749 101.617 950.355 Q98.5613 954.939 92.7512 954.939 Q86.941 954.939 83.8623 950.355 Q80.8068 945.749 80.8068 937.022 Q80.8068 928.272 83.8623 923.689 Q86.941 919.082 92.7512 919.082 Z" fill="#000000" fill-rule="nonzero" fill-opacity="1" /><path clip-path="url(#clip900)" d="M54.3949 695.968 L62.0337 695.968 L62.0337 669.602 L53.7236 671.269 L53.7236 667.01 L61.9874 665.343 L66.6633 665.343 L66.6633 695.968 L74.3022 695.968 L74.3022 699.903 L54.3949 699.903 L54.3949 695.968 Z" fill="#000000" fill-rule="nonzero" fill-opacity="1" /><path clip-path="url(#clip900)" d="M83.7929 665.343 L102.149 665.343 L102.149 669.278 L88.0753 669.278 L88.0753 677.75 Q89.0938 677.403 90.1123 677.241 Q91.1308 677.056 92.1493 677.056 Q97.9363 677.056 101.316 680.227 Q104.696 683.399 104.696 688.815 Q104.696 694.394 101.223 697.496 Q97.7511 700.574 91.4317 700.574 Q89.2558 700.574 86.9873 700.204 Q84.7419 699.834 82.3346 699.093 L82.3346 694.394 Q84.4179 695.528 86.6401 696.084 Q88.8623 696.639 91.3391 696.639 Q95.3437 696.639 97.6817 694.533 Q100.02 692.426 100.02 688.815 Q100.02 685.204 97.6817 683.098 Q95.3437 680.991 91.3391 680.991 Q89.4641 680.991 87.5892 681.408 Q85.7373 681.824 83.7929 682.704 L83.7929 665.343 Z" fill="#000000" fill-rule="nonzero" fill-opacity="1" /><path clip-path="url(#clip900)" d="M56.6171 441.604 L72.9365 441.604 L72.9365 445.539 L50.9921 445.539 L50.9921 441.604 Q53.6541 438.849 58.2375 434.219 Q62.8439 429.567 64.0245 428.224 Q66.2698 425.701 67.1494 423.965 Q68.0522 422.206 68.0522 420.516 Q68.0522 417.761 66.1078 416.025 Q64.1865 414.289 61.0847 414.289 Q58.8856 414.289 56.4319 415.053 Q54.0014 415.817 51.2236 417.368 L51.2236 412.646 Q54.0477 411.511 56.5014 410.933 Q58.955 410.354 60.9921 410.354 Q66.3624 410.354 69.5568 413.039 Q72.7513 415.724 72.7513 420.215 Q72.7513 422.345 71.9411 424.266 Q71.1541 426.164 69.0476 428.757 Q68.4689 429.428 65.367 432.645 Q62.2652 435.84 56.6171 441.604 Z" fill="#000000" fill-rule="nonzero" fill-opacity="1" /><path clip-path="url(#clip900)" d="M92.7512 414.058 Q89.1401 414.058 87.3114 417.622 Q85.5058 421.164 85.5058 428.294 Q85.5058 435.4 87.3114 438.965 Q89.1401 442.506 92.7512 442.506 Q96.3854 442.506 98.1909 438.965 Q100.02 435.4 100.02 428.294 Q100.02 421.164 98.1909 417.622 Q96.3854 414.058 92.7512 414.058 M92.7512 410.354 Q98.5613 410.354 101.617 414.96 Q104.696 419.544 104.696 428.294 Q104.696 437.02 101.617 441.627 Q98.5613 446.21 92.7512 446.21 Q86.941 446.21 83.8623 441.627 Q80.8068 437.02 80.8068 428.294 Q80.8068 419.544 83.8623 414.96 Q86.941 410.354 92.7512 410.354 Z" fill="#000000" fill-rule="nonzero" fill-opacity="1" /><path clip-path="url(#clip900)" d="M57.6125 187.239 L73.9318 187.239 L73.9318 191.175 L51.9875 191.175 L51.9875 187.239 Q54.6495 184.485 59.2328 179.855 Q63.8393 175.203 65.0198 173.86 Q67.2652 171.337 68.1448 169.601 Q69.0476 167.841 69.0476 166.152 Q69.0476 163.397 67.1032 161.661 Q65.1819 159.925 62.08 159.925 Q59.881 159.925 57.4273 160.689 Q54.9967 161.453 52.219 163.004 L52.219 158.281 Q55.043 157.147 57.4967 156.568 Q59.9504 155.99 61.9874 155.99 Q67.3578 155.99 70.5522 158.675 Q73.7466 161.36 73.7466 165.851 Q73.7466 167.98 72.9365 169.902 Q72.1494 171.8 70.0429 174.392 Q69.4642 175.064 66.3624 178.281 Q63.2606 181.476 57.6125 187.239 Z" fill="#000000" fill-rule="nonzero" fill-opacity="1" /><path clip-path="url(#clip900)" d="M83.7929 156.615 L102.149 156.615 L102.149 160.55 L88.0753 160.55 L88.0753 169.022 Q89.0938 168.675 90.1123 168.513 Q91.1308 168.328 92.1493 168.328 Q97.9363 168.328 101.316 171.499 Q104.696 174.67 104.696 180.087 Q104.696 185.665 101.223 188.767 Q97.7511 191.846 91.4317 191.846 Q89.2558 191.846 86.9873 191.476 Q84.7419 191.105 82.3346 190.364 L82.3346 185.665 Q84.4179 186.8 86.6401 187.355 Q88.8623 187.911 91.3391 187.911 Q95.3437 187.911 97.6817 185.804 Q100.02 183.698 100.02 180.087 Q100.02 176.476 97.6817 174.369 Q95.3437 172.263 91.3391 172.263 Q89.4641 172.263 87.5892 172.679 Q85.7373 173.096 83.7929 173.976 L83.7929 156.615 Z" fill="#000000" fill-rule="nonzero" fill-opacity="1" /><path clip-path="url(#clip902)" d="M203.301 1444.96 L208.615 1444.96 L213.929 1444.99 L219.243 1445.02 L224.557 1445.05 L229.87 1445.06 L235.184 1445.05 L240.498 1445 L245.812 1444.93 L251.126 1444.85 L256.44 1444.78 L261.754 1444.72 L267.067 1444.67 L272.381 1444.64 L277.695 1444.6 L283.009 1444.55 L288.323 1444.44 L293.637 1444.26 L298.951 1443.96 L304.265 1443.51 L309.578 1442.87 L314.892 1442.03 L320.206 1440.98 L325.52 1439.75 L330.834 1438.4 L336.148 1436.97 L341.462 1435.52 L346.775 1434.08 L352.089 1432.61 L357.403 1431.06 L362.717 1429.38 L368.031 1427.53 L373.345 1425.55 L378.659 1423.54 L383.973 1421.68 L389.286 1420.14 L394.6 1419.05 L399.914 1418.46 L405.228 1418.27 L410.542 1418.3 L415.856 1418.29 L421.17 1418.03 L426.484 1417.37 L431.797 1416.26 L437.111 1414.76 L442.425 1412.98 L447.739 1411.08 L453.053 1409.17 L458.367 1407.33 L463.681 1405.6 L468.994 1404 L474.308 1402.5 L479.622 1401.11 L484.936 1399.81 L490.25 1398.59 L495.564 1397.42 L500.878 1396.22 L506.192 1394.93 L511.505 1393.5 L516.819 1391.9 L522.133 1390.18 L527.447 1388.42 L532.761 1386.77 L538.075 1385.32 L543.389 1384.13 L548.703 1383.12 L554.016 1382.13 L559.33 1380.89 L564.644 1379.11 L569.958 1376.53 L575.272 1372.97 L580.586 1368.36 L585.9 1362.76 L591.213 1356.34 L596.527 1349.31 L601.841 1341.9 L607.155 1334.3 L612.469 1326.58 L617.783 1318.71 L623.097 1310.51 L628.411 1301.71 L633.724 1292.03 L639.038 1281.19 L644.352 1269.03 L649.666 1255.55 L654.98 1240.93 L660.294 1225.57 L665.608 1210.08 L670.922 1195.16 L676.235 1181.57 L681.549 1169.93 L686.863 1160.62 L692.177 1153.67 L697.491 1148.73 L702.805 1145.12 L708.119 1141.98 L713.432 1138.41 L718.746 1133.71 L724.06 1127.44 L729.374 1119.53 L729.374 1445.72 L724.06 1445.72 L718.746 1445.72 L713.432 1445.72 L708.119 1445.72 L702.805 1445.72 L697.491 1445.72 L692.177 1445.72 L686.863 1445.72 L681.549 1445.72 L676.235 1445.72 L670.922 1445.72 L665.608 1445.72 L660.294 1445.72 L654.98 1445.72 L649.666 1445.72 L644.352 1445.72 L639.038 1445.72 L633.724 1445.72 L628.411 1445.72 L623.097 1445.72 L617.783 1445.72 L612.469 1445.72 L607.155 1445.72 L601.841 1445.72 L596.527 1445.72 L591.213 1445.72 L585.9 1445.72 L580.586 1445.72 L575.272 1445.72 L569.958 1445.72 L564.644 1445.72 L559.33 1445.72 L554.016 1445.72 L548.703 1445.72 L543.389 1445.72 L538.075 1445.72 L532.761 1445.72 L527.447 1445.72 L522.133 1445.72 L516.819 1445.72 L511.505 1445.72 L506.192 1445.72 L500.878 1445.72 L495.564 1445.72 L490.25 1445.72 L484.936 1445.72 L479.622 1445.72 L474.308 1445.72 L468.994 1445.72 L463.681 1445.72 L458.367 1445.72 L453.053 1445.72 L447.739 1445.72 L442.425 1445.72 L437.111 1445.72 L431.797 1445.72 L426.484 1445.72 L421.17 1445.72 L415.856 1445.72 L410.542 1445.72 L405.228 1445.72 L399.914 1445.72 L394.6 1445.72 L389.286 1445.72 L383.973 1445.72 L378.659 1445.72 L373.345 1445.72 L368.031 1445.72 L362.717 1445.72 L357.403 1445.72 L352.089 1445.72 L346.775 1445.72 L341.462 1445.72 L336.148 1445.72 L330.834 1445.72 L325.52 1445.72 L320.206 1445.72 L314.892 1445.72 L309.578 1445.72 L304.265 1445.72 L298.951 1445.72 L293.637 1445.72 L288.323 1445.72 L283.009 1445.72 L277.695 1445.72 L272.381 1445.72 L267.067 1445.72 L261.754 1445.72 L256.44 1445.72 L251.126 1445.72 L245.812 1445.72 L240.498 1445.72 L235.184 1445.72 L229.87 1445.72 L224.557 1445.72 L219.243 1445.72 L213.929 1445.72 L208.615 1445.72 L203.301 1445.72  Z" fill="#ffa500" fill-rule="evenodd" fill-opacity="0.5"/>
<polyline clip-path="url(#clip902)" style="stroke:#ffa500; stroke-linecap:round; stroke-linejoin:round; stroke-width:4; stroke-opacity:1; fill:none" points="203.301,1444.96 208.615,1444.96 213.929,1444.99 219.243,1445.02 224.557,1445.05 229.87,1445.06 235.184,1445.05 240.498,1445 245.812,1444.93 251.126,1444.85 256.44,1444.78 261.754,1444.72 267.067,1444.67 272.381,1444.64 277.695,1444.6 283.009,1444.55 288.323,1444.44 293.637,1444.26 298.951,1443.96 304.265,1443.51 309.578,1442.87 314.892,1442.03 320.206,1440.98 325.52,1439.75 330.834,1438.4 336.148,1436.97 341.462,1435.52 346.775,1434.08 352.089,1432.61 357.403,1431.06 362.717,1429.38 368.031,1427.53 373.345,1425.55 378.659,1423.54 383.973,1421.68 389.286,1420.14 394.6,1419.05 399.914,1418.46 405.228,1418.27 410.542,1418.3 415.856,1418.29 421.17,1418.03 426.484,1417.37 431.797,1416.26 437.111,1414.76 442.425,1412.98 447.739,1411.08 453.053,1409.17 458.367,1407.33 463.681,1405.6 468.994,1404 474.308,1402.5 479.622,1401.11 484.936,1399.81 490.25,1398.59 495.564,1397.42 500.878,1396.22 506.192,1394.93 511.505,1393.5 516.819,1391.9 522.133,1390.18 527.447,1388.42 532.761,1386.77 538.075,1385.32 543.389,1384.13 548.703,1383.12 554.016,1382.13 559.33,1380.89 564.644,1379.11 569.958,1376.53 575.272,1372.97 580.586,1368.36 585.9,1362.76 591.213,1356.34 596.527,1349.31 601.841,1341.9 607.155,1334.3 612.469,1326.58 617.783,1318.71 623.097,1310.51 628.411,1301.71 633.724,1292.03 639.038,1281.19 644.352,1269.03 649.666,1255.55 654.98,1240.93 660.294,1225.57 665.608,1210.08 670.922,1195.16 676.235,1181.57 681.549,1169.93 686.863,1160.62 692.177,1153.67 697.491,1148.73 702.805,1145.12 708.119,1141.98 713.432,1138.41 718.746,1133.71 724.06,1127.44 729.374,1119.53 "/>
<path clip-path="url(#clip902)" d="M729.374 1119.53 L737.376 1105.05 L745.377 1088.86 L753.379 1072.45 L761.38 1056.6 L769.382 1041.29 L777.383 1025.94 L785.385 1009.82 L793.386 992.293 L801.388 972.795 L809.389 950.658 L817.391 924.955 L825.392 894.698 L833.394 859.418 L841.395 819.842 L849.397 778.2 L857.398 737.872 L865.4 702.401 L873.402 674.246 L881.403 653.822 L889.405 639.417 L897.406 628.093 L905.408 617.102 L913.409 604.957 L921.411 591.476 L929.412 576.837 L937.414 560.384 L945.415 540.217 L953.417 514.102 L961.418 481.278 L969.42 443.853 L977.421 406.581 L985.423 374.922 L993.424 352.568 L1001.43 339.931 L1009.43 334.271 L1017.43 331.109 L1025.43 326.072 L1033.43 316.468 L1041.43 302.071 L1049.44 284.85 L1057.44 267.778 L1065.44 253.385 L1073.44 242.846 L1081.44 235.91 L1089.44 231.362 L1097.44 227.511 L1105.45 222.498 L1113.45 214.547 L1121.45 202.332 L1129.45 185.368 L1137.45 164.266 L1145.45 140.757 L1153.45 117.621 L1161.46 98.5872 L1169.46 87.9763 L1177.46 89.6522 L1185.46 105.33 L1193.46 133.069 L1201.46 167.185 L1209.47 200.13 L1217.47 225.517 L1225.47 240.499 L1233.47 246.147 L1241.47 246.012 L1249.47 244.254 L1257.47 244.453 L1265.48 249.138 L1273.48 259.435 L1281.48 274.798 L1289.48 293.363 L1297.48 313.073 L1305.48 332.908 L1313.49 353.391 L1321.49 376.147 L1329.49 402.944 L1337.49 434.783 L1345.49 471.442 L1353.49 511.689 L1361.49 553.99 L1369.5 597.069 L1377.5 639.821 L1385.5 680.81 L1393.5 718.189 L1401.5 750.536 L1409.5 777.956 L1417.51 802.266 L1425.51 825.865 L1433.51 850.209 L1441.51 875.24 L1449.51 900.088 L1457.51 924.148 L1465.51 947.492 L1473.52 970.434 L1481.52 992.981 L1489.52 1014.82 L1497.52 1035.83 L1505.52 1056.47 L1513.52 1077.49 L1521.53 1099.15 L1521.53 1445.72 L1513.52 1445.72 L1505.52 1445.72 L1497.52 1445.72 L1489.52 1445.72 L1481.52 1445.72 L1473.52 1445.72 L1465.51 1445.72 L1457.51 1445.72 L1449.51 1445.72 L1441.51 1445.72 L1433.51 1445.72 L1425.51 1445.72 L1417.51 1445.72 L1409.5 1445.72 L1401.5 1445.72 L1393.5 1445.72 L1385.5 1445.72 L1377.5 1445.72 L1369.5 1445.72 L1361.49 1445.72 L1353.49 1445.72 L1345.49 1445.72 L1337.49 1445.72 L1329.49 1445.72 L1321.49 1445.72 L1313.49 1445.72 L1305.48 1445.72 L1297.48 1445.72 L1289.48 1445.72 L1281.48 1445.72 L1273.48 1445.72 L1265.48 1445.72 L1257.47 1445.72 L1249.47 1445.72 L1241.47 1445.72 L1233.47 1445.72 L1225.47 1445.72 L1217.47 1445.72 L1209.47 1445.72 L1201.46 1445.72 L1193.46 1445.72 L1185.46 1445.72 L1177.46 1445.72 L1169.46 1445.72 L1161.46 1445.72 L1153.45 1445.72 L1145.45 1445.72 L1137.45 1445.72 L1129.45 1445.72 L1121.45 1445.72 L1113.45 1445.72 L1105.45 1445.72 L1097.44 1445.72 L1089.44 1445.72 L1081.44 1445.72 L1073.44 1445.72 L1065.44 1445.72 L1057.44 1445.72 L1049.44 1445.72 L1041.43 1445.72 L1033.43 1445.72 L1025.43 1445.72 L1017.43 1445.72 L1009.43 1445.72 L1001.43 1445.72 L993.424 1445.72 L985.423 1445.72 L977.421 1445.72 L969.42 1445.72 L961.418 1445.72 L953.417 1445.72 L945.415 1445.72 L937.414 1445.72 L929.412 1445.72 L921.411 1445.72 L913.409 1445.72 L905.408 1445.72 L897.406 1445.72 L889.405 1445.72 L881.403 1445.72 L873.402 1445.72 L865.4 1445.72 L857.398 1445.72 L849.397 1445.72 L841.395 1445.72 L833.394 1445.72 L825.392 1445.72 L817.391 1445.72 L809.389 1445.72 L801.388 1445.72 L793.386 1445.72 L785.385 1445.72 L777.383 1445.72 L769.382 1445.72 L761.38 1445.72 L753.379 1445.72 L745.377 1445.72 L737.376 1445.72 L729.374 1445.72  Z" fill="#008000" fill-rule="evenodd" fill-opacity="0.5"/>
<polyline clip-path="url(#clip902)" style="stroke:#008000; stroke-linecap:round; stroke-linejoin:round; stroke-width:4; stroke-opacity:1; fill:none" points="729.374,1119.53 737.376,1105.05 745.377,1088.86 753.379,1072.45 761.38,1056.6 769.382,1041.29 777.383,1025.94 785.385,1009.82 793.386,992.293 801.388,972.795 809.389,950.658 817.391,924.955 825.392,894.698 833.394,859.418 841.395,819.842 849.397,778.2 857.398,737.872 865.4,702.401 873.402,674.246 881.403,653.822 889.405,639.417 897.406,628.093 905.408,617.102 913.409,604.957 921.411,591.476 929.412,576.837 937.414,560.384 945.415,540.217 953.417,514.102 961.418,481.278 969.42,443.853 977.421,406.581 985.423,374.922 993.424,352.568 1001.43,339.931 1009.43,334.271 1017.43,331.109 1025.43,326.072 1033.43,316.468 1041.43,302.071 1049.44,284.85 1057.44,267.778 1065.44,253.385 1073.44,242.846 1081.44,235.91 1089.44,231.362 1097.44,227.511 1105.45,222.498 1113.45,214.547 1121.45,202.332 1129.45,185.368 1137.45,164.266 1145.45,140.757 1153.45,117.621 1161.46,98.5872 1169.46,87.9763 1177.46,89.6522 1185.46,105.33 1193.46,133.069 1201.46,167.185 1209.47,200.13 1217.47,225.517 1225.47,240.499 1233.47,246.147 1241.47,246.012 1249.47,244.254 1257.47,244.453 1265.48,249.138 1273.48,259.435 1281.48,274.798 1289.48,293.363 1297.48,313.073 1305.48,332.908 1313.49,353.391 1321.49,376.147 1329.49,402.944 1337.49,434.783 1345.49,471.442 1353.49,511.689 1361.49,553.99 1369.5,597.069 1377.5,639.821 1385.5,680.81 1393.5,718.189 1401.5,750.536 1409.5,777.956 1417.51,802.266 1425.51,825.865 1433.51,850.209 1441.51,875.24 1449.51,900.088 1457.51,924.148 1465.51,947.492 1473.52,970.434 1481.52,992.981 1489.52,1014.82 1497.52,1035.83 1505.52,1056.47 1513.52,1077.49 1521.53,1099.15 "/>
<path clip-path="url(#clip902)" d="M1521.53 1099.15 L1529.29 1119.99 L1537.05 1139.18 L1544.82 1155.5 L1552.58 1168.92 L1560.34 1180.77 L1568.11 1193.01 L1575.87 1207.14 L1583.64 1223.41 L1591.4 1240.73 L1599.16 1257.38 L1606.93 1271.92 L1614.69 1283.99 L1622.46 1294.31 L1630.22 1304.15 L1637.98 1314.34 L1645.75 1324.78 L1653.51 1334.57 L1661.28 1342.74 L1669.04 1348.95 L1676.8 1353.69 L1684.57 1357.92 L1692.33 1362.53 L1700.09 1367.86 L1707.86 1373.69 L1715.62 1379.48 L1723.39 1384.71 L1731.15 1389.1 L1738.91 1392.66 L1746.68 1395.62 L1754.44 1398.29 L1762.21 1400.97 L1769.97 1403.86 L1777.73 1407.02 L1785.5 1410.44 L1793.26 1413.96 L1801.03 1417.37 L1808.79 1420.39 L1816.55 1422.83 L1824.32 1424.59 L1832.08 1425.83 L1839.84 1426.85 L1847.61 1428 L1855.37 1429.44 L1863.14 1431.13 L1870.9 1432.83 L1878.66 1434.29 L1886.43 1435.4 L1894.19 1436.17 L1901.96 1436.75 L1909.72 1437.25 L1917.48 1437.72 L1925.25 1438.11 L1933.01 1438.36 L1940.78 1438.5 L1948.54 1438.61 L1956.3 1438.81 L1964.07 1439.21 L1971.83 1439.83 L1979.59 1440.61 L1987.36 1441.45 L1995.12 1442.23 L2002.89 1442.89 L2010.65 1443.43 L2018.41 1443.88 L2026.18 1444.24 L2033.94 1444.49 L2041.71 1444.6 L2049.47 1444.54 L2057.23 1444.28 L2065 1443.87 L2072.76 1443.41 L2080.53 1443.02 L2088.29 1442.82 L2096.05 1442.86 L2103.82 1443.11 L2111.58 1443.48 L2119.34 1443.87 L2127.11 1444.21 L2134.87 1444.46 L2142.64 1444.64 L2150.4 1444.76 L2158.16 1444.86 L2165.93 1444.94 L2173.69 1445.02 L2181.46 1445.09 L2189.22 1445.11 L2196.98 1445.09 L2204.75 1445.03 L2212.51 1444.97 L2220.28 1444.95 L2228.04 1444.98 L2235.8 1445.06 L2243.57 1445.14 L2251.33 1445.16 L2259.09 1445.07 L2266.86 1444.89 L2274.62 1444.66 L2282.39 1444.48 L2290.15 1444.41 L2290.15 1445.72 L2282.39 1445.72 L2274.62 1445.72 L2266.86 1445.72 L2259.09 1445.72 L2251.33 1445.72 L2243.57 1445.72 L2235.8 1445.72 L2228.04 1445.72 L2220.28 1445.72 L2212.51 1445.72 L2204.75 1445.72 L2196.98 1445.72 L2189.22 1445.72 L2181.46 1445.72 L2173.69 1445.72 L2165.93 1445.72 L2158.16 1445.72 L2150.4 1445.72 L2142.64 1445.72 L2134.87 1445.72 L2127.11 1445.72 L2119.34 1445.72 L2111.58 1445.72 L2103.82 1445.72 L2096.05 1445.72 L2088.29 1445.72 L2080.53 1445.72 L2072.76 1445.72 L2065 1445.72 L2057.23 1445.72 L2049.47 1445.72 L2041.71 1445.72 L2033.94 1445.72 L2026.18 1445.72 L2018.41 1445.72 L2010.65 1445.72 L2002.89 1445.72 L1995.12 1445.72 L1987.36 1445.72 L1979.59 1445.72 L1971.83 1445.72 L1964.07 1445.72 L1956.3 1445.72 L1948.54 1445.72 L1940.78 1445.72 L1933.01 1445.72 L1925.25 1445.72 L1917.48 1445.72 L1909.72 1445.72 L1901.96 1445.72 L1894.19 1445.72 L1886.43 1445.72 L1878.66 1445.72 L1870.9 1445.72 L1863.14 1445.72 L1855.37 1445.72 L1847.61 1445.72 L1839.84 1445.72 L1832.08 1445.72 L1824.32 1445.72 L1816.55 1445.72 L1808.79 1445.72 L1801.03 1445.72 L1793.26 1445.72 L1785.5 1445.72 L1777.73 1445.72 L1769.97 1445.72 L1762.21 1445.72 L1754.44 1445.72 L1746.68 1445.72 L1738.91 1445.72 L1731.15 1445.72 L1723.39 1445.72 L1715.62 1445.72 L1707.86 1445.72 L1700.09 1445.72 L1692.33 1445.72 L1684.57 1445.72 L1676.8 1445.72 L1669.04 1445.72 L1661.28 1445.72 L1653.51 1445.72 L1645.75 1445.72 L1637.98 1445.72 L1630.22 1445.72 L1622.46 1445.72 L1614.69 1445.72 L1606.93 1445.72 L1599.16 1445.72 L1591.4 1445.72 L1583.64 1445.72 L1575.87 1445.72 L1568.11 1445.72 L1560.34 1445.72 L1552.58 1445.72 L1544.82 1445.72 L1537.05 1445.72 L1529.29 1445.72 L1521.53 1445.72  Z" fill="#ffa500" fill-rule="evenodd" fill-opacity="0.5"/>
<polyline clip-path="url(#clip902)" style="stroke:#ffa500; stroke-linecap:round; stroke-linejoin:round; stroke-width:4; stroke-opacity:1; fill:none" points="1521.53,1099.15 1529.29,1119.99 1537.05,1139.18 1544.82,1155.5 1552.58,1168.92 1560.34,1180.77 1568.11,1193.01 1575.87,1207.14 1583.64,1223.41 1591.4,1240.73 1599.16,1257.38 1606.93,1271.92 1614.69,1283.99 1622.46,1294.31 1630.22,1304.15 1637.98,1314.34 1645.75,1324.78 1653.51,1334.57 1661.28,1342.74 1669.04,1348.95 1676.8,1353.69 1684.57,1357.92 1692.33,1362.53 1700.09,1367.86 1707.86,1373.69 1715.62,1379.48 1723.39,1384.71 1731.15,1389.1 1738.91,1392.66 1746.68,1395.62 1754.44,1398.29 1762.21,1400.97 1769.97,1403.86 1777.73,1407.02 1785.5,1410.44 1793.26,1413.96 1801.03,1417.37 1808.79,1420.39 1816.55,1422.83 1824.32,1424.59 1832.08,1425.83 1839.84,1426.85 1847.61,1428 1855.37,1429.44 1863.14,1431.13 1870.9,1432.83 1878.66,1434.29 1886.43,1435.4 1894.19,1436.17 1901.96,1436.75 1909.72,1437.25 1917.48,1437.72 1925.25,1438.11 1933.01,1438.36 1940.78,1438.5 1948.54,1438.61 1956.3,1438.81 1964.07,1439.21 1971.83,1439.83 1979.59,1440.61 1987.36,1441.45 1995.12,1442.23 2002.89,1442.89 2010.65,1443.43 2018.41,1443.88 2026.18,1444.24 2033.94,1444.49 2041.71,1444.6 2049.47,1444.54 2057.23,1444.28 2065,1443.87 2072.76,1443.41 2080.53,1443.02 2088.29,1442.82 2096.05,1442.86 2103.82,1443.11 2111.58,1443.48 2119.34,1443.87 2127.11,1444.21 2134.87,1444.46 2142.64,1444.64 2150.4,1444.76 2158.16,1444.86 2165.93,1444.94 2173.69,1445.02 2181.46,1445.09 2189.22,1445.11 2196.98,1445.09 2204.75,1445.03 2212.51,1444.97 2220.28,1444.95 2228.04,1444.98 2235.8,1445.06 2243.57,1445.14 2251.33,1445.16 2259.09,1445.07 2266.86,1444.89 2274.62,1444.66 2282.39,1444.48 2290.15,1444.41 "/>
<polyline clip-path="url(#clip902)" style="stroke:#0000ff; stroke-linecap:round; stroke-linejoin:round; stroke-width:4; stroke-opacity:1; fill:none" points="1134.06,1445.72 1134.06,173.625 "/>
<polyline clip-path="url(#clip902)" style="stroke:#000000; stroke-linecap:round; stroke-linejoin:round; stroke-width:4; stroke-opacity:1; fill:none" points="1141.19,1445.72 1141.19,153.441 "/>
<path clip-path="url(#clip900)" d="M1466.36 406.258 L2279.02 406.258 L2279.02 95.2176 L1466.36 95.2176  Z" fill="#ffffff" fill-rule="evenodd" fill-opacity="1"/>
<polyline clip-path="url(#clip900)" style="stroke:#000000; stroke-linecap:round; stroke-linejoin:round; stroke-width:4; stroke-opacity:1; fill:none" points="1466.36,406.258 2279.02,406.258 2279.02,95.2176 1466.36,95.2176 1466.36,406.258 "/>
<path clip-path="url(#clip900)" d="M1490.94 167.794 L1638.41 167.794 L1638.41 126.322 L1490.94 126.322 L1490.94 167.794  Z" fill="#ffa500" fill-rule="evenodd" fill-opacity="0.5"/>
<polyline clip-path="url(#clip900)" style="stroke:#ffa500; stroke-linecap:round; stroke-linejoin:round; stroke-width:4; stroke-opacity:1; fill:none" points="1490.94,126.322 1638.41,126.322 "/>
<path clip-path="url(#clip900)" d="M1667.39 151.398 Q1667.39 156.097 1669.31 158.782 Q1671.25 161.444 1674.63 161.444 Q1678.01 161.444 1679.95 158.782 Q1681.9 156.097 1681.9 151.398 Q1681.9 146.699 1679.95 144.037 Q1678.01 141.352 1674.63 141.352 Q1671.25 141.352 1669.31 144.037 Q1667.39 146.699 1667.39 151.398 M1681.9 160.449 Q1680.56 162.763 1678.5 163.898 Q1676.46 165.009 1673.59 165.009 Q1668.89 165.009 1665.93 161.259 Q1662.99 157.509 1662.99 151.398 Q1662.99 145.287 1665.93 141.537 Q1668.89 137.787 1673.59 137.787 Q1676.46 137.787 1678.5 138.921 Q1680.56 140.032 1681.9 142.347 L1681.9 138.412 L1686.16 138.412 L1686.16 174.199 L1681.9 174.199 L1681.9 160.449 Z" fill="#000000" fill-rule="nonzero" fill-opacity="1" /><path clip-path="url(#clip900)" d="M1705.53 132.856 Q1701.92 132.856 1700.09 136.421 Q1698.29 139.963 1698.29 147.092 Q1698.29 154.199 1700.09 157.764 Q1701.92 161.305 1705.53 161.305 Q1709.17 161.305 1710.97 157.764 Q1712.8 154.199 1712.8 147.092 Q1712.8 139.963 1710.97 136.421 Q1709.17 132.856 1705.53 132.856 M1705.53 129.153 Q1711.34 129.153 1714.4 133.759 Q1717.48 138.342 1717.48 147.092 Q1717.48 155.819 1714.4 160.426 Q1711.34 165.009 1705.53 165.009 Q1699.72 165.009 1696.64 160.426 Q1693.59 155.819 1693.59 147.092 Q1693.59 138.342 1696.64 133.759 Q1699.72 129.153 1705.53 129.153 Z" fill="#000000" fill-rule="nonzero" fill-opacity="1" /><path clip-path="url(#clip900)" d="M1725.74 129.778 L1744.1 129.778 L1744.1 133.713 L1730.02 133.713 L1730.02 142.185 Q1731.04 141.838 1732.06 141.676 Q1733.08 141.49 1734.1 141.49 Q1739.88 141.49 1743.26 144.662 Q1746.64 147.833 1746.64 153.25 Q1746.64 158.828 1743.17 161.93 Q1739.7 165.009 1733.38 165.009 Q1731.2 165.009 1728.94 164.638 Q1726.69 164.268 1724.28 163.527 L1724.28 158.828 Q1726.37 159.963 1728.59 160.518 Q1730.81 161.074 1733.29 161.074 Q1737.29 161.074 1739.63 158.967 Q1741.97 156.861 1741.97 153.25 Q1741.97 149.639 1739.63 147.532 Q1737.29 145.426 1733.29 145.426 Q1731.41 145.426 1729.54 145.842 Q1727.69 146.259 1725.74 147.139 L1725.74 129.778 Z" fill="#000000" fill-rule="nonzero" fill-opacity="1" /><path clip-path="url(#clip900)" d="M1490.94 219.634 L1638.41 219.634 L1638.41 178.162 L1490.94 178.162 L1490.94 219.634  Z" fill="#008000" fill-rule="evenodd" fill-opacity="0.5"/>
<polyline clip-path="url(#clip900)" style="stroke:#008000; stroke-linecap:round; stroke-linejoin:round; stroke-width:4; stroke-opacity:1; fill:none" points="1490.94,178.162 1638.41,178.162 "/>
<path clip-path="url(#clip900)" d="M1665.21 215.46 L1665.21 211.201 Q1666.97 212.034 1668.77 212.474 Q1670.58 212.914 1672.32 212.914 Q1676.95 212.914 1679.38 209.812 Q1681.83 206.687 1682.18 200.344 Q1680.83 202.335 1678.77 203.4 Q1676.71 204.465 1674.21 204.465 Q1669.03 204.465 1666 201.34 Q1662.99 198.192 1662.99 192.752 Q1662.99 187.428 1666.14 184.21 Q1669.28 180.993 1674.51 180.993 Q1680.51 180.993 1683.66 185.599 Q1686.83 190.182 1686.83 198.932 Q1686.83 207.104 1682.94 211.988 Q1679.07 216.849 1672.52 216.849 Q1670.76 216.849 1668.96 216.502 Q1667.15 216.154 1665.21 215.46 M1674.51 200.807 Q1677.66 200.807 1679.49 198.654 Q1681.34 196.502 1681.34 192.752 Q1681.34 189.025 1679.49 186.872 Q1677.66 184.696 1674.51 184.696 Q1671.37 184.696 1669.51 186.872 Q1667.69 189.025 1667.69 192.752 Q1667.69 196.502 1669.51 198.654 Q1671.37 200.807 1674.51 200.807 Z" fill="#000000" fill-rule="nonzero" fill-opacity="1" /><path clip-path="url(#clip900)" d="M1705.23 184.696 Q1701.62 184.696 1699.79 188.261 Q1697.99 191.803 1697.99 198.932 Q1697.99 206.039 1699.79 209.604 Q1701.62 213.145 1705.23 213.145 Q1708.87 213.145 1710.67 209.604 Q1712.5 206.039 1712.5 198.932 Q1712.5 191.803 1710.67 188.261 Q1708.87 184.696 1705.23 184.696 M1705.23 180.993 Q1711.04 180.993 1714.1 185.599 Q1717.18 190.182 1717.18 198.932 Q1717.18 207.659 1714.1 212.266 Q1711.04 216.849 1705.23 216.849 Q1699.42 216.849 1696.34 212.266 Q1693.29 207.659 1693.29 198.932 Q1693.29 190.182 1696.34 185.599 Q1699.42 180.993 1705.23 180.993 Z" fill="#000000" fill-rule="nonzero" fill-opacity="1" /><path clip-path="url(#clip900)" d="M1754.79 200.969 Q1752.78 200.969 1751.62 202.682 Q1750.49 204.395 1750.49 207.451 Q1750.49 210.46 1751.62 212.196 Q1752.78 213.909 1754.79 213.909 Q1756.76 213.909 1757.89 212.196 Q1759.05 210.46 1759.05 207.451 Q1759.05 204.418 1757.89 202.705 Q1756.76 200.969 1754.79 200.969 M1754.79 198.03 Q1758.45 198.03 1760.6 200.576 Q1762.75 203.122 1762.75 207.451 Q1762.75 211.779 1760.58 214.326 Q1758.43 216.849 1754.79 216.849 Q1751.09 216.849 1748.94 214.326 Q1746.78 211.779 1746.78 207.451 Q1746.78 203.099 1748.94 200.576 Q1751.11 198.03 1754.79 198.03 M1730.9 183.932 Q1728.91 183.932 1727.76 185.668 Q1726.62 187.381 1726.62 190.391 Q1726.62 193.446 1727.76 195.159 Q1728.89 196.872 1730.9 196.872 Q1732.92 196.872 1734.05 195.159 Q1735.21 193.446 1735.21 190.391 Q1735.21 187.405 1734.05 185.668 Q1732.89 183.932 1730.9 183.932 M1751.81 180.993 L1755.51 180.993 L1733.89 216.849 L1730.19 216.849 L1751.81 180.993 M1730.9 180.993 Q1734.56 180.993 1736.74 183.539 Q1738.91 186.062 1738.91 190.391 Q1738.91 194.766 1736.74 197.289 Q1734.58 199.812 1730.9 199.812 Q1727.22 199.812 1725.07 197.289 Q1722.94 194.742 1722.94 190.391 Q1722.94 186.085 1725.09 183.539 Q1727.25 180.993 1730.9 180.993 Z" fill="#000000" fill-rule="nonzero" fill-opacity="1" /><path clip-path="url(#clip900)" d="M1806.46 200.529 L1806.46 216.178 L1802.2 216.178 L1802.2 200.668 Q1802.2 196.988 1800.76 195.159 Q1799.33 193.33 1796.46 193.33 Q1793.01 193.33 1791.02 195.53 Q1789.03 197.729 1789.03 201.525 L1789.03 216.178 L1784.75 216.178 L1784.75 190.252 L1789.03 190.252 L1789.03 194.28 Q1790.56 191.942 1792.62 190.784 Q1794.7 189.627 1797.41 189.627 Q1801.88 189.627 1804.17 192.405 Q1806.46 195.159 1806.46 200.529 Z" fill="#000000" fill-rule="nonzero" fill-opacity="1" /><path clip-path="url(#clip900)" d="M1825 193.238 Q1821.57 193.238 1819.58 195.923 Q1817.59 198.585 1817.59 203.238 Q1817.59 207.891 1819.56 210.576 Q1821.55 213.238 1825 213.238 Q1828.4 213.238 1830.39 210.553 Q1832.38 207.867 1832.38 203.238 Q1832.38 198.631 1830.39 195.946 Q1828.4 193.238 1825 193.238 M1825 189.627 Q1830.56 189.627 1833.73 193.238 Q1836.9 196.849 1836.9 203.238 Q1836.9 209.604 1833.73 213.238 Q1830.56 216.849 1825 216.849 Q1819.42 216.849 1816.25 213.238 Q1813.1 209.604 1813.1 203.238 Q1813.1 196.849 1816.25 193.238 Q1819.42 189.627 1825 189.627 Z" fill="#000000" fill-rule="nonzero" fill-opacity="1" /><path clip-path="url(#clip900)" d="M1865.51 200.529 L1865.51 216.178 L1861.25 216.178 L1861.25 200.668 Q1861.25 196.988 1859.81 195.159 Q1858.38 193.33 1855.51 193.33 Q1852.06 193.33 1850.07 195.53 Q1848.08 197.729 1848.08 201.525 L1848.08 216.178 L1843.8 216.178 L1843.8 190.252 L1848.08 190.252 L1848.08 194.28 Q1849.61 191.942 1851.67 190.784 Q1853.75 189.627 1856.46 189.627 Q1860.93 189.627 1863.22 192.405 Q1865.51 195.159 1865.51 200.529 Z" fill="#000000" fill-rule="nonzero" fill-opacity="1" /><path clip-path="url(#clip900)" d="M1871.85 201.293 L1884.33 201.293 L1884.33 205.09 L1871.85 205.09 L1871.85 201.293 Z" fill="#000000" fill-rule="nonzero" fill-opacity="1" /><path clip-path="url(#clip900)" d="M1906.13 194.233 Q1905.42 193.817 1904.56 193.631 Q1903.73 193.423 1902.71 193.423 Q1899.1 193.423 1897.15 195.784 Q1895.23 198.122 1895.23 202.52 L1895.23 216.178 L1890.95 216.178 L1890.95 190.252 L1895.23 190.252 L1895.23 194.28 Q1896.57 191.918 1898.73 190.784 Q1900.88 189.627 1903.96 189.627 Q1904.4 189.627 1904.93 189.696 Q1905.46 189.743 1906.11 189.858 L1906.13 194.233 Z" fill="#000000" fill-rule="nonzero" fill-opacity="1" /><path clip-path="url(#clip900)" d="M1931.74 202.15 L1931.74 204.233 L1912.15 204.233 Q1912.43 208.631 1914.79 210.946 Q1917.18 213.238 1921.41 213.238 Q1923.87 213.238 1926.16 212.636 Q1928.47 212.034 1930.74 210.83 L1930.74 214.858 Q1928.45 215.83 1926.04 216.34 Q1923.63 216.849 1921.16 216.849 Q1914.95 216.849 1911.32 213.238 Q1907.71 209.627 1907.71 203.469 Q1907.71 197.104 1911.13 193.377 Q1914.58 189.627 1920.42 189.627 Q1925.65 189.627 1928.68 193.006 Q1931.74 196.363 1931.74 202.15 M1927.48 200.9 Q1927.43 197.405 1925.51 195.321 Q1923.61 193.238 1920.46 193.238 Q1916.9 193.238 1914.74 195.252 Q1912.62 197.266 1912.29 200.923 L1927.48 200.9 Z" fill="#000000" fill-rule="nonzero" fill-opacity="1" /><path clip-path="url(#clip900)" d="M1938.73 190.252 L1942.99 190.252 L1942.99 216.641 Q1942.99 221.594 1941.09 223.816 Q1939.21 226.039 1935.02 226.039 L1933.4 226.039 L1933.4 222.428 L1934.54 222.428 Q1936.97 222.428 1937.85 221.293 Q1938.73 220.182 1938.73 216.641 L1938.73 190.252 M1938.73 180.159 L1942.99 180.159 L1942.99 185.553 L1938.73 185.553 L1938.73 180.159 Z" fill="#000000" fill-rule="nonzero" fill-opacity="1" /><path clip-path="url(#clip900)" d="M1974.07 202.15 L1974.07 204.233 L1954.49 204.233 Q1954.77 208.631 1957.13 210.946 Q1959.51 213.238 1963.75 213.238 Q1966.2 213.238 1968.49 212.636 Q1970.81 212.034 1973.08 210.83 L1973.08 214.858 Q1970.79 215.83 1968.38 216.34 Q1965.97 216.849 1963.49 216.849 Q1957.29 216.849 1953.66 213.238 Q1950.05 209.627 1950.05 203.469 Q1950.05 197.104 1953.47 193.377 Q1956.92 189.627 1962.75 189.627 Q1967.99 189.627 1971.02 193.006 Q1974.07 196.363 1974.07 202.15 M1969.81 200.9 Q1969.77 197.405 1967.85 195.321 Q1965.95 193.238 1962.8 193.238 Q1959.24 193.238 1957.08 195.252 Q1954.95 197.266 1954.63 200.923 L1969.81 200.9 Z" fill="#000000" fill-rule="nonzero" fill-opacity="1" /><path clip-path="url(#clip900)" d="M1999.72 191.247 L1999.72 195.229 Q1997.92 194.233 1996.09 193.747 Q1994.28 193.238 1992.43 193.238 Q1988.29 193.238 1985.99 195.877 Q1983.7 198.492 1983.7 203.238 Q1983.7 207.983 1985.99 210.622 Q1988.29 213.238 1992.43 213.238 Q1994.28 213.238 1996.09 212.752 Q1997.92 212.242 1999.72 211.247 L1999.72 215.182 Q1997.94 216.016 1996.02 216.432 Q1994.12 216.849 1991.97 216.849 Q1986.11 216.849 1982.66 213.168 Q1979.21 209.488 1979.21 203.238 Q1979.21 196.895 1982.68 193.261 Q1986.18 189.627 1992.24 189.627 Q1994.21 189.627 1996.09 190.043 Q1997.96 190.437 1999.72 191.247 Z" fill="#000000" fill-rule="nonzero" fill-opacity="1" /><path clip-path="url(#clip900)" d="M2011.34 182.891 L2011.34 190.252 L2020.11 190.252 L2020.11 193.562 L2011.34 193.562 L2011.34 207.636 Q2011.34 210.807 2012.2 211.71 Q2013.08 212.613 2015.74 212.613 L2020.11 212.613 L2020.11 216.178 L2015.74 216.178 Q2010.81 216.178 2008.93 214.349 Q2007.06 212.497 2007.06 207.636 L2007.06 193.562 L2003.93 193.562 L2003.93 190.252 L2007.06 190.252 L2007.06 182.891 L2011.34 182.891 Z" fill="#000000" fill-rule="nonzero" fill-opacity="1" /><path clip-path="url(#clip900)" d="M2025.72 190.252 L2029.98 190.252 L2029.98 216.178 L2025.72 216.178 L2025.72 190.252 M2025.72 180.159 L2029.98 180.159 L2029.98 185.553 L2025.72 185.553 L2025.72 180.159 Z" fill="#000000" fill-rule="nonzero" fill-opacity="1" /><path clip-path="url(#clip900)" d="M2048.93 193.238 Q2045.51 193.238 2043.52 195.923 Q2041.53 198.585 2041.53 203.238 Q2041.53 207.891 2043.49 210.576 Q2045.48 213.238 2048.93 213.238 Q2052.34 213.238 2054.33 210.553 Q2056.32 207.867 2056.32 203.238 Q2056.32 198.631 2054.33 195.946 Q2052.34 193.238 2048.93 193.238 M2048.93 189.627 Q2054.49 189.627 2057.66 193.238 Q2060.83 196.849 2060.83 203.238 Q2060.83 209.604 2057.66 213.238 Q2054.49 216.849 2048.93 216.849 Q2043.36 216.849 2040.18 213.238 Q2037.04 209.604 2037.04 203.238 Q2037.04 196.849 2040.18 193.238 Q2043.36 189.627 2048.93 189.627 Z" fill="#000000" fill-rule="nonzero" fill-opacity="1" /><path clip-path="url(#clip900)" d="M2089.44 200.529 L2089.44 216.178 L2085.18 216.178 L2085.18 200.668 Q2085.18 196.988 2083.75 195.159 Q2082.31 193.33 2079.44 193.33 Q2075.99 193.33 2074 195.53 Q2072.01 197.729 2072.01 201.525 L2072.01 216.178 L2067.73 216.178 L2067.73 190.252 L2072.01 190.252 L2072.01 194.28 Q2073.54 191.942 2075.6 190.784 Q2077.68 189.627 2080.39 189.627 Q2084.86 189.627 2087.15 192.405 Q2089.44 195.159 2089.44 200.529 Z" fill="#000000" fill-rule="nonzero" fill-opacity="1" /><path clip-path="url(#clip900)" d="M2128.03 194.233 Q2127.31 193.817 2126.46 193.631 Q2125.62 193.423 2124.6 193.423 Q2120.99 193.423 2119.05 195.784 Q2117.13 198.122 2117.13 202.52 L2117.13 216.178 L2112.85 216.178 L2112.85 190.252 L2117.13 190.252 L2117.13 194.28 Q2118.47 191.918 2120.62 190.784 Q2122.78 189.627 2125.85 189.627 Q2126.29 189.627 2126.83 189.696 Q2127.36 189.743 2128.01 189.858 L2128.03 194.233 Z" fill="#000000" fill-rule="nonzero" fill-opacity="1" /><path clip-path="url(#clip900)" d="M2153.63 202.15 L2153.63 204.233 L2134.05 204.233 Q2134.33 208.631 2136.69 210.946 Q2139.07 213.238 2143.31 213.238 Q2145.76 213.238 2148.05 212.636 Q2150.37 212.034 2152.64 210.83 L2152.64 214.858 Q2150.35 215.83 2147.94 216.34 Q2145.53 216.849 2143.05 216.849 Q2136.85 216.849 2133.22 213.238 Q2129.6 209.627 2129.6 203.469 Q2129.6 197.104 2133.03 193.377 Q2136.48 189.627 2142.31 189.627 Q2147.54 189.627 2150.58 193.006 Q2153.63 196.363 2153.63 202.15 M2149.37 200.9 Q2149.33 197.405 2147.41 195.321 Q2145.51 193.238 2142.36 193.238 Q2138.79 193.238 2136.64 195.252 Q2134.51 197.266 2134.19 200.923 L2149.37 200.9 Z" fill="#000000" fill-rule="nonzero" fill-opacity="1" /><path clip-path="url(#clip900)" d="M2177.68 202.914 Q2177.68 198.284 2175.76 195.738 Q2173.86 193.192 2170.41 193.192 Q2166.99 193.192 2165.07 195.738 Q2163.17 198.284 2163.17 202.914 Q2163.17 207.52 2165.07 210.066 Q2166.99 212.613 2170.41 212.613 Q2173.86 212.613 2175.76 210.066 Q2177.68 207.52 2177.68 202.914 M2181.94 212.96 Q2181.94 219.58 2179 222.798 Q2176.06 226.039 2170 226.039 Q2167.75 226.039 2165.76 225.691 Q2163.77 225.367 2161.9 224.673 L2161.9 220.529 Q2163.77 221.548 2165.6 222.034 Q2167.43 222.52 2169.33 222.52 Q2173.52 222.52 2175.6 220.321 Q2177.68 218.145 2177.68 213.724 L2177.68 211.617 Q2176.36 213.909 2174.3 215.043 Q2172.24 216.178 2169.37 216.178 Q2164.6 216.178 2161.69 212.543 Q2158.77 208.909 2158.77 202.914 Q2158.77 196.895 2161.69 193.261 Q2164.6 189.627 2169.37 189.627 Q2172.24 189.627 2174.3 190.761 Q2176.36 191.895 2177.68 194.187 L2177.68 190.252 L2181.94 190.252 L2181.94 212.96 Z" fill="#000000" fill-rule="nonzero" fill-opacity="1" /><path clip-path="url(#clip900)" d="M2190.72 190.252 L2194.97 190.252 L2194.97 216.178 L2190.72 216.178 L2190.72 190.252 M2190.72 180.159 L2194.97 180.159 L2194.97 185.553 L2190.72 185.553 L2190.72 180.159 Z" fill="#000000" fill-rule="nonzero" fill-opacity="1" /><path clip-path="url(#clip900)" d="M2213.93 193.238 Q2210.51 193.238 2208.52 195.923 Q2206.53 198.585 2206.53 203.238 Q2206.53 207.891 2208.49 210.576 Q2210.48 213.238 2213.93 213.238 Q2217.34 213.238 2219.33 210.553 Q2221.32 207.867 2221.32 203.238 Q2221.32 198.631 2219.33 195.946 Q2217.34 193.238 2213.93 193.238 M2213.93 189.627 Q2219.49 189.627 2222.66 193.238 Q2225.83 196.849 2225.83 203.238 Q2225.83 209.604 2222.66 213.238 Q2219.49 216.849 2213.93 216.849 Q2208.35 216.849 2205.18 213.238 Q2202.03 209.604 2202.03 203.238 Q2202.03 196.849 2205.18 193.238 Q2208.35 189.627 2213.93 189.627 Z" fill="#000000" fill-rule="nonzero" fill-opacity="1" /><path clip-path="url(#clip900)" d="M2254.44 200.529 L2254.44 216.178 L2250.18 216.178 L2250.18 200.668 Q2250.18 196.988 2248.75 195.159 Q2247.31 193.33 2244.44 193.33 Q2240.99 193.33 2239 195.53 Q2237.01 197.729 2237.01 201.525 L2237.01 216.178 L2232.73 216.178 L2232.73 190.252 L2237.01 190.252 L2237.01 194.28 Q2238.54 191.942 2240.6 190.784 Q2242.68 189.627 2245.39 189.627 Q2249.86 189.627 2252.15 192.405 Q2254.44 195.159 2254.44 200.529 Z" fill="#000000" fill-rule="nonzero" fill-opacity="1" /><path clip-path="url(#clip900)" d="M1490.94 271.474 L1638.41 271.474 L1638.41 230.002 L1490.94 230.002 L1490.94 271.474  Z" fill="#ffa500" fill-rule="evenodd" fill-opacity="0.5"/>
<polyline clip-path="url(#clip900)" style="stroke:#ffa500; stroke-linecap:round; stroke-linejoin:round; stroke-width:4; stroke-opacity:1; fill:none" points="1490.94,230.002 1638.41,230.002 "/>
<path clip-path="url(#clip900)" d="M1667.39 255.078 Q1667.39 259.777 1669.31 262.462 Q1671.25 265.124 1674.63 265.124 Q1678.01 265.124 1679.95 262.462 Q1681.9 259.777 1681.9 255.078 Q1681.9 250.379 1679.95 247.717 Q1678.01 245.032 1674.63 245.032 Q1671.25 245.032 1669.31 247.717 Q1667.39 250.379 1667.39 255.078 M1681.9 264.129 Q1680.56 266.443 1678.5 267.578 Q1676.46 268.689 1673.59 268.689 Q1668.89 268.689 1665.93 264.939 Q1662.99 261.189 1662.99 255.078 Q1662.99 248.967 1665.93 245.217 Q1668.89 241.467 1673.59 241.467 Q1676.46 241.467 1678.5 242.601 Q1680.56 243.712 1681.9 246.027 L1681.9 242.092 L1686.16 242.092 L1686.16 277.879 L1681.9 277.879 L1681.9 264.129 Z" fill="#000000" fill-rule="nonzero" fill-opacity="1" /><path clip-path="url(#clip900)" d="M1695.67 267.3 L1695.67 263.041 Q1697.43 263.874 1699.24 264.314 Q1701.04 264.754 1702.78 264.754 Q1707.41 264.754 1709.84 261.652 Q1712.29 258.527 1712.64 252.184 Q1711.3 254.175 1709.24 255.24 Q1707.18 256.305 1704.68 256.305 Q1699.49 256.305 1696.46 253.18 Q1693.45 250.032 1693.45 244.592 Q1693.45 239.268 1696.6 236.05 Q1699.75 232.833 1704.98 232.833 Q1710.97 232.833 1714.12 237.439 Q1717.29 242.022 1717.29 250.772 Q1717.29 258.944 1713.4 263.828 Q1709.54 268.689 1702.99 268.689 Q1701.23 268.689 1699.42 268.342 Q1697.62 267.994 1695.67 267.3 M1704.98 252.647 Q1708.13 252.647 1709.95 250.494 Q1711.81 248.342 1711.81 244.592 Q1711.81 240.865 1709.95 238.712 Q1708.13 236.536 1704.98 236.536 Q1701.83 236.536 1699.98 238.712 Q1698.15 240.865 1698.15 244.592 Q1698.15 248.342 1699.98 250.494 Q1701.83 252.647 1704.98 252.647 Z" fill="#000000" fill-rule="nonzero" fill-opacity="1" /><path clip-path="url(#clip900)" d="M1725.74 233.458 L1744.1 233.458 L1744.1 237.393 L1730.02 237.393 L1730.02 245.865 Q1731.04 245.518 1732.06 245.356 Q1733.08 245.17 1734.1 245.17 Q1739.88 245.17 1743.26 248.342 Q1746.64 251.513 1746.64 256.93 Q1746.64 262.508 1743.17 265.61 Q1739.7 268.689 1733.38 268.689 Q1731.2 268.689 1728.94 268.318 Q1726.69 267.948 1724.28 267.207 L1724.28 262.508 Q1726.37 263.643 1728.59 264.198 Q1730.81 264.754 1733.29 264.754 Q1737.29 264.754 1739.63 262.647 Q1741.97 260.541 1741.97 256.93 Q1741.97 253.319 1739.63 251.212 Q1737.29 249.106 1733.29 249.106 Q1731.41 249.106 1729.54 249.522 Q1727.69 249.939 1725.74 250.819 L1725.74 233.458 Z" fill="#000000" fill-rule="nonzero" fill-opacity="1" /><polyline clip-path="url(#clip900)" style="stroke:#0000ff; stroke-linecap:round; stroke-linejoin:round; stroke-width:4; stroke-opacity:1; fill:none" points="1490.94,302.578 1638.41,302.578 "/>
<path clip-path="url(#clip900)" d="M1683.33 298.909 Q1684.93 296.038 1687.15 294.673 Q1689.38 293.307 1692.38 293.307 Q1696.44 293.307 1698.63 296.154 Q1700.83 298.978 1700.83 304.209 L1700.83 319.858 L1696.55 319.858 L1696.55 304.348 Q1696.55 300.622 1695.23 298.816 Q1693.91 297.01 1691.2 297.01 Q1687.89 297.01 1685.97 299.21 Q1684.05 301.409 1684.05 305.205 L1684.05 319.858 L1679.77 319.858 L1679.77 304.348 Q1679.77 300.598 1678.45 298.816 Q1677.13 297.01 1674.38 297.01 Q1671.11 297.01 1669.19 299.233 Q1667.27 301.432 1667.27 305.205 L1667.27 319.858 L1662.99 319.858 L1662.99 293.932 L1667.27 293.932 L1667.27 297.96 Q1668.73 295.575 1670.76 294.441 Q1672.8 293.307 1675.6 293.307 Q1678.43 293.307 1680.39 294.742 Q1682.38 296.177 1683.33 298.909 Z" fill="#000000" fill-rule="nonzero" fill-opacity="1" /><path clip-path="url(#clip900)" d="M1731.51 305.83 L1731.51 307.913 L1711.92 307.913 Q1712.2 312.311 1714.56 314.626 Q1716.94 316.918 1721.18 316.918 Q1723.63 316.918 1725.93 316.316 Q1728.24 315.714 1730.51 314.51 L1730.51 318.538 Q1728.22 319.51 1725.81 320.02 Q1723.4 320.529 1720.93 320.529 Q1714.72 320.529 1711.09 316.918 Q1707.48 313.307 1707.48 307.149 Q1707.48 300.784 1710.9 297.057 Q1714.35 293.307 1720.19 293.307 Q1725.42 293.307 1728.45 296.686 Q1731.51 300.043 1731.51 305.83 M1727.25 304.58 Q1727.2 301.085 1725.28 299.001 Q1723.38 296.918 1720.23 296.918 Q1716.67 296.918 1714.51 298.932 Q1712.38 300.946 1712.06 304.603 L1727.25 304.58 Z" fill="#000000" fill-rule="nonzero" fill-opacity="1" /><path clip-path="url(#clip900)" d="M1750.28 306.825 Q1745.12 306.825 1743.13 308.006 Q1741.13 309.186 1741.13 312.034 Q1741.13 314.302 1742.62 315.645 Q1744.12 316.964 1746.69 316.964 Q1750.23 316.964 1752.36 314.464 Q1754.51 311.941 1754.51 307.774 L1754.51 306.825 L1750.28 306.825 M1758.77 305.066 L1758.77 319.858 L1754.51 319.858 L1754.51 315.922 Q1753.06 318.283 1750.88 319.418 Q1748.7 320.529 1745.56 320.529 Q1741.57 320.529 1739.21 318.307 Q1736.88 316.061 1736.88 312.311 Q1736.88 307.936 1739.79 305.714 Q1742.73 303.492 1748.54 303.492 L1754.51 303.492 L1754.51 303.075 Q1754.51 300.135 1752.57 298.538 Q1750.65 296.918 1747.15 296.918 Q1744.93 296.918 1742.82 297.45 Q1740.72 297.983 1738.77 299.047 L1738.77 295.112 Q1741.11 294.21 1743.31 293.77 Q1745.51 293.307 1747.59 293.307 Q1753.22 293.307 1756 296.223 Q1758.77 299.14 1758.77 305.066 Z" fill="#000000" fill-rule="nonzero" fill-opacity="1" /><path clip-path="url(#clip900)" d="M1789.1 304.209 L1789.1 319.858 L1784.84 319.858 L1784.84 304.348 Q1784.84 300.668 1783.4 298.839 Q1781.97 297.01 1779.1 297.01 Q1775.65 297.01 1773.66 299.21 Q1771.67 301.409 1771.67 305.205 L1771.67 319.858 L1767.38 319.858 L1767.38 293.932 L1771.67 293.932 L1771.67 297.96 Q1773.19 295.622 1775.25 294.464 Q1777.34 293.307 1780.05 293.307 Q1784.51 293.307 1786.81 296.085 Q1789.1 298.839 1789.1 304.209 Z" fill="#000000" fill-rule="nonzero" fill-opacity="1" /><polyline clip-path="url(#clip900)" style="stroke:#000000; stroke-linecap:round; stroke-linejoin:round; stroke-width:4; stroke-opacity:1; fill:none" points="1490.94,354.418 1638.41,354.418 "/>
<path clip-path="url(#clip900)" d="M1683.33 350.749 Q1684.93 347.878 1687.15 346.513 Q1689.38 345.147 1692.38 345.147 Q1696.44 345.147 1698.63 347.994 Q1700.83 350.818 1700.83 356.049 L1700.83 371.698 L1696.55 371.698 L1696.55 356.188 Q1696.55 352.462 1695.23 350.656 Q1693.91 348.85 1691.2 348.85 Q1687.89 348.85 1685.97 351.05 Q1684.05 353.249 1684.05 357.045 L1684.05 371.698 L1679.77 371.698 L1679.77 356.188 Q1679.77 352.438 1678.45 350.656 Q1677.13 348.85 1674.38 348.85 Q1671.11 348.85 1669.19 351.073 Q1667.27 353.272 1667.27 357.045 L1667.27 371.698 L1662.99 371.698 L1662.99 345.772 L1667.27 345.772 L1667.27 349.8 Q1668.73 347.415 1670.76 346.281 Q1672.8 345.147 1675.6 345.147 Q1678.43 345.147 1680.39 346.582 Q1682.38 348.017 1683.33 350.749 Z" fill="#000000" fill-rule="nonzero" fill-opacity="1" /><path clip-path="url(#clip900)" d="M1731.51 357.67 L1731.51 359.753 L1711.92 359.753 Q1712.2 364.151 1714.56 366.466 Q1716.94 368.758 1721.18 368.758 Q1723.63 368.758 1725.93 368.156 Q1728.24 367.554 1730.51 366.35 L1730.51 370.378 Q1728.22 371.35 1725.81 371.86 Q1723.4 372.369 1720.93 372.369 Q1714.72 372.369 1711.09 368.758 Q1707.48 365.147 1707.48 358.989 Q1707.48 352.624 1710.9 348.897 Q1714.35 345.147 1720.19 345.147 Q1725.42 345.147 1728.45 348.526 Q1731.51 351.883 1731.51 357.67 M1727.25 356.42 Q1727.2 352.925 1725.28 350.841 Q1723.38 348.758 1720.23 348.758 Q1716.67 348.758 1714.51 350.772 Q1712.38 352.786 1712.06 356.443 L1727.25 356.42 Z" fill="#000000" fill-rule="nonzero" fill-opacity="1" /><path clip-path="url(#clip900)" d="M1755.56 349.707 L1755.56 335.679 L1759.82 335.679 L1759.82 371.698 L1755.56 371.698 L1755.56 367.809 Q1754.21 370.123 1752.15 371.258 Q1750.12 372.369 1747.25 372.369 Q1742.55 372.369 1739.58 368.619 Q1736.64 364.869 1736.64 358.758 Q1736.64 352.647 1739.58 348.897 Q1742.55 345.147 1747.25 345.147 Q1750.12 345.147 1752.15 346.281 Q1754.21 347.392 1755.56 349.707 M1741.04 358.758 Q1741.04 363.457 1742.96 366.142 Q1744.91 368.804 1748.29 368.804 Q1751.67 368.804 1753.61 366.142 Q1755.56 363.457 1755.56 358.758 Q1755.56 354.059 1753.61 351.397 Q1751.67 348.712 1748.29 348.712 Q1744.91 348.712 1742.96 351.397 Q1741.04 354.059 1741.04 358.758 Z" fill="#000000" fill-rule="nonzero" fill-opacity="1" /><path clip-path="url(#clip900)" d="M1768.59 345.772 L1772.85 345.772 L1772.85 371.698 L1768.59 371.698 L1768.59 345.772 M1768.59 335.679 L1772.85 335.679 L1772.85 341.073 L1768.59 341.073 L1768.59 335.679 Z" fill="#000000" fill-rule="nonzero" fill-opacity="1" /><path clip-path="url(#clip900)" d="M1793.54 358.665 Q1788.38 358.665 1786.39 359.846 Q1784.4 361.026 1784.4 363.874 Q1784.4 366.142 1785.88 367.485 Q1787.38 368.804 1789.95 368.804 Q1793.5 368.804 1795.63 366.304 Q1797.78 363.781 1797.78 359.614 L1797.78 358.665 L1793.54 358.665 M1802.04 356.906 L1802.04 371.698 L1797.78 371.698 L1797.78 367.762 Q1796.32 370.123 1794.14 371.258 Q1791.97 372.369 1788.82 372.369 Q1784.84 372.369 1782.48 370.147 Q1780.14 367.901 1780.14 364.151 Q1780.14 359.776 1783.06 357.554 Q1786 355.332 1791.81 355.332 L1797.78 355.332 L1797.78 354.915 Q1797.78 351.975 1795.83 350.378 Q1793.91 348.758 1790.42 348.758 Q1788.19 348.758 1786.09 349.29 Q1783.98 349.823 1782.04 350.887 L1782.04 346.952 Q1784.38 346.05 1786.57 345.61 Q1788.77 345.147 1790.86 345.147 Q1796.48 345.147 1799.26 348.063 Q1802.04 350.98 1802.04 356.906 Z" fill="#000000" fill-rule="nonzero" fill-opacity="1" /><path clip-path="url(#clip900)" d="M1832.36 356.049 L1832.36 371.698 L1828.1 371.698 L1828.1 356.188 Q1828.1 352.508 1826.67 350.679 Q1825.23 348.85 1822.36 348.85 Q1818.91 348.85 1816.92 351.05 Q1814.93 353.249 1814.93 357.045 L1814.93 371.698 L1810.65 371.698 L1810.65 345.772 L1814.93 345.772 L1814.93 349.8 Q1816.46 347.462 1818.52 346.304 Q1820.6 345.147 1823.31 345.147 Q1827.78 345.147 1830.07 347.925 Q1832.36 350.679 1832.36 356.049 Z" fill="#000000" fill-rule="nonzero" fill-opacity="1" /></svg>
