<?xml version="1.0" encoding="utf-8"?>
<svg xmlns="http://www.w3.org/2000/svg" xmlns:xlink="http://www.w3.org/1999/xlink" width="600" height="400" viewBox="0 0 2400 1600">
<defs>
  <clipPath id="clip130">
    <rect x="0" y="0" width="2400" height="1600"/>
  </clipPath>
</defs>
<path clip-path="url(#clip130)" d="M0 1600 L2400 1600 L2400 0 L0 0  Z" fill="#ffffff" fill-rule="evenodd" fill-opacity="1"/>
<defs>
  <clipPath id="clip131">
    <rect x="480" y="0" width="1681" height="1600"/>
  </clipPath>
</defs>
<path clip-path="url(#clip130)" d="M156.112 1486.45 L1907.26 1486.45 L1907.26 47.2441 L156.112 47.2441  Z" fill="#ffffff" fill-rule="evenodd" fill-opacity="1"/>
<defs>
  <clipPath id="clip132">
    <rect x="156" y="47" width="1752" height="1440"/>
  </clipPath>
</defs>
<polyline clip-path="url(#clip132)" style="stroke:#000000; stroke-linecap:round; stroke-linejoin:round; stroke-width:2; stroke-opacity:0.1; fill:none" points="195.283,1486.45 195.283,47.2441 "/>
<polyline clip-path="url(#clip132)" style="stroke:#000000; stroke-linecap:round; stroke-linejoin:round; stroke-width:2; stroke-opacity:0.1; fill:none" points="714.786,1486.45 714.786,47.2441 "/>
<polyline clip-path="url(#clip132)" style="stroke:#000000; stroke-linecap:round; stroke-linejoin:round; stroke-width:2; stroke-opacity:0.1; fill:none" points="1234.29,1486.45 1234.29,47.2441 "/>
<polyline clip-path="url(#clip132)" style="stroke:#000000; stroke-linecap:round; stroke-linejoin:round; stroke-width:2; stroke-opacity:0.1; fill:none" points="1753.79,1486.45 1753.79,47.2441 "/>
<polyline clip-path="url(#clip130)" style="stroke:#000000; stroke-linecap:round; stroke-linejoin:round; stroke-width:4; stroke-opacity:1; fill:none" points="156.112,1486.45 1907.26,1486.45 "/>
<polyline clip-path="url(#clip130)" style="stroke:#000000; stroke-linecap:round; stroke-linejoin:round; stroke-width:4; stroke-opacity:1; fill:none" points="195.283,1486.45 195.283,1467.55 "/>
<polyline clip-path="url(#clip130)" style="stroke:#000000; stroke-linecap:round; stroke-linejoin:round; stroke-width:4; stroke-opacity:1; fill:none" points="714.786,1486.45 714.786,1467.55 "/>
<polyline clip-path="url(#clip130)" style="stroke:#000000; stroke-linecap:round; stroke-linejoin:round; stroke-width:4; stroke-opacity:1; fill:none" points="1234.29,1486.45 1234.29,1467.55 "/>
<polyline clip-path="url(#clip130)" style="stroke:#000000; stroke-linecap:round; stroke-linejoin:round; stroke-width:4; stroke-opacity:1; fill:none" points="1753.79,1486.45 1753.79,1467.55 "/>
<path clip-path="url(#clip130)" d="M195.283 1517.37 Q191.672 1517.37 189.843 1520.93 Q188.037 1524.47 188.037 1531.6 Q188.037 1538.71 189.843 1542.27 Q191.672 1545.82 195.283 1545.82 Q198.917 1545.82 200.722 1542.27 Q202.551 1538.71 202.551 1531.6 Q202.551 1524.47 200.722 1520.93 Q198.917 1517.37 195.283 1517.37 M195.283 1513.66 Q201.093 1513.66 204.148 1518.27 Q207.227 1522.85 207.227 1531.6 Q207.227 1540.33 204.148 1544.94 Q201.093 1549.52 195.283 1549.52 Q189.473 1549.52 186.394 1544.94 Q183.338 1540.33 183.338 1531.6 Q183.338 1522.85 186.394 1518.27 Q189.473 1513.66 195.283 1513.66 Z" fill="#000000" fill-rule="nonzero" fill-opacity="1" /><path clip-path="url(#clip130)" d="M689.486 1514.29 L707.842 1514.29 L707.842 1518.22 L693.768 1518.22 L693.768 1526.7 Q694.786 1526.35 695.805 1526.19 Q696.824 1526 697.842 1526 Q703.629 1526 707.009 1529.17 Q710.388 1532.34 710.388 1537.76 Q710.388 1543.34 706.916 1546.44 Q703.444 1549.52 697.124 1549.52 Q694.949 1549.52 692.68 1549.15 Q690.435 1548.78 688.027 1548.04 L688.027 1543.34 Q690.111 1544.47 692.333 1545.03 Q694.555 1545.58 697.032 1545.58 Q701.036 1545.58 703.374 1543.48 Q705.712 1541.37 705.712 1537.76 Q705.712 1534.15 703.374 1532.04 Q701.036 1529.94 697.032 1529.94 Q695.157 1529.94 693.282 1530.35 Q691.43 1530.77 689.486 1531.65 L689.486 1514.29 Z" fill="#000000" fill-rule="nonzero" fill-opacity="1" /><path clip-path="url(#clip130)" d="M729.601 1517.37 Q725.99 1517.37 724.161 1520.93 Q722.356 1524.47 722.356 1531.6 Q722.356 1538.71 724.161 1542.27 Q725.99 1545.82 729.601 1545.82 Q733.235 1545.82 735.041 1542.27 Q736.87 1538.71 736.87 1531.6 Q736.87 1524.47 735.041 1520.93 Q733.235 1517.37 729.601 1517.37 M729.601 1513.66 Q735.411 1513.66 738.467 1518.27 Q741.546 1522.85 741.546 1531.6 Q741.546 1540.33 738.467 1544.94 Q735.411 1549.52 729.601 1549.52 Q723.791 1549.52 720.712 1544.94 Q717.657 1540.33 717.657 1531.6 Q717.657 1522.85 720.712 1518.27 Q723.791 1513.66 729.601 1513.66 Z" fill="#000000" fill-rule="nonzero" fill-opacity="1" /><path clip-path="url(#clip130)" d="M1193.9 1544.91 L1201.54 1544.91 L1201.54 1518.55 L1193.23 1520.21 L1193.23 1515.95 L1201.49 1514.29 L1206.17 1514.29 L1206.17 1544.91 L1213.8 1544.91 L1213.8 1548.85 L1193.9 1548.85 L1193.9 1544.91 Z" fill="#000000" fill-rule="nonzero" fill-opacity="1" /><path clip-path="url(#clip130)" d="M1233.25 1517.37 Q1229.64 1517.37 1227.81 1520.93 Q1226 1524.47 1226 1531.6 Q1226 1538.71 1227.81 1542.27 Q1229.64 1545.82 1233.25 1545.82 Q1236.88 1545.82 1238.69 1542.27 Q1240.52 1538.71 1240.52 1531.6 Q1240.52 1524.47 1238.69 1520.93 Q1236.88 1517.37 1233.25 1517.37 M1233.25 1513.66 Q1239.06 1513.66 1242.11 1518.27 Q1245.19 1522.85 1245.19 1531.6 Q1245.19 1540.33 1242.11 1544.94 Q1239.06 1549.52 1233.25 1549.52 Q1227.44 1549.52 1224.36 1544.94 Q1221.3 1540.33 1221.3 1531.6 Q1221.3 1522.85 1224.36 1518.27 Q1227.44 1513.66 1233.25 1513.66 Z" fill="#000000" fill-rule="nonzero" fill-opacity="1" /><path clip-path="url(#clip130)" d="M1263.41 1517.37 Q1259.8 1517.37 1257.97 1520.93 Q1256.16 1524.47 1256.16 1531.6 Q1256.16 1538.71 1257.97 1542.27 Q1259.8 1545.82 1263.41 1545.82 Q1267.04 1545.82 1268.85 1542.27 Q1270.68 1538.71 1270.68 1531.6 Q1270.68 1524.47 1268.85 1520.93 Q1267.04 1517.37 1263.41 1517.37 M1263.41 1513.66 Q1269.22 1513.66 1272.28 1518.27 Q1275.35 1522.85 1275.35 1531.6 Q1275.35 1540.33 1272.28 1544.94 Q1269.22 1549.52 1263.41 1549.52 Q1257.6 1549.52 1254.52 1544.94 Q1251.47 1540.33 1251.47 1531.6 Q1251.47 1522.85 1254.52 1518.27 Q1257.6 1513.66 1263.41 1513.66 Z" fill="#000000" fill-rule="nonzero" fill-opacity="1" /><path clip-path="url(#clip130)" d="M1713.4 1544.91 L1721.04 1544.91 L1721.04 1518.55 L1712.73 1520.21 L1712.73 1515.95 L1720.99 1514.29 L1725.67 1514.29 L1725.67 1544.91 L1733.31 1544.91 L1733.31 1548.85 L1713.4 1548.85 L1713.4 1544.91 Z" fill="#000000" fill-rule="nonzero" fill-opacity="1" /><path clip-path="url(#clip130)" d="M1742.8 1514.29 L1761.15 1514.29 L1761.15 1518.22 L1747.08 1518.22 L1747.08 1526.7 Q1748.1 1526.35 1749.12 1526.19 Q1750.14 1526 1751.15 1526 Q1756.94 1526 1760.32 1529.17 Q1763.7 1532.34 1763.7 1537.76 Q1763.7 1543.34 1760.23 1546.44 Q1756.76 1549.52 1750.44 1549.52 Q1748.26 1549.52 1745.99 1549.15 Q1743.75 1548.78 1741.34 1548.04 L1741.34 1543.34 Q1743.42 1544.47 1745.65 1545.03 Q1747.87 1545.58 1750.34 1545.58 Q1754.35 1545.58 1756.69 1543.48 Q1759.03 1541.37 1759.03 1537.76 Q1759.03 1534.15 1756.69 1532.04 Q1754.35 1529.94 1750.34 1529.94 Q1748.47 1529.94 1746.59 1530.35 Q1744.74 1530.77 1742.8 1531.65 L1742.8 1514.29 Z" fill="#000000" fill-rule="nonzero" fill-opacity="1" /><path clip-path="url(#clip130)" d="M1782.91 1517.37 Q1779.3 1517.37 1777.47 1520.93 Q1775.67 1524.47 1775.67 1531.6 Q1775.67 1538.71 1777.47 1542.27 Q1779.3 1545.82 1782.91 1545.82 Q1786.55 1545.82 1788.35 1542.27 Q1790.18 1538.71 1790.18 1531.6 Q1790.18 1524.47 1788.35 1520.93 Q1786.55 1517.37 1782.91 1517.37 M1782.91 1513.66 Q1788.72 1513.66 1791.78 1518.27 Q1794.86 1522.85 1794.86 1531.6 Q1794.86 1540.33 1791.78 1544.94 Q1788.72 1549.52 1782.91 1549.52 Q1777.1 1549.52 1774.03 1544.94 Q1770.97 1540.33 1770.97 1531.6 Q1770.97 1522.85 1774.03 1518.27 Q1777.1 1513.66 1782.91 1513.66 Z" fill="#000000" fill-rule="nonzero" fill-opacity="1" /><polyline clip-path="url(#clip132)" style="stroke:#000000; stroke-linecap:round; stroke-linejoin:round; stroke-width:2; stroke-opacity:0.1; fill:none" points="156.112,1464.05 1907.26,1464.05 "/>
<polyline clip-path="url(#clip132)" style="stroke:#000000; stroke-linecap:round; stroke-linejoin:round; stroke-width:2; stroke-opacity:0.1; fill:none" points="156.112,1160.27 1907.26,1160.27 "/>
<polyline clip-path="url(#clip132)" style="stroke:#000000; stroke-linecap:round; stroke-linejoin:round; stroke-width:2; stroke-opacity:0.1; fill:none" points="156.112,856.493 1907.26,856.493 "/>
<polyline clip-path="url(#clip132)" style="stroke:#000000; stroke-linecap:round; stroke-linejoin:round; stroke-width:2; stroke-opacity:0.1; fill:none" points="156.112,552.715 1907.26,552.715 "/>
<polyline clip-path="url(#clip132)" style="stroke:#000000; stroke-linecap:round; stroke-linejoin:round; stroke-width:2; stroke-opacity:0.1; fill:none" points="156.112,248.937 1907.26,248.937 "/>
<polyline clip-path="url(#clip130)" style="stroke:#000000; stroke-linecap:round; stroke-linejoin:round; stroke-width:4; stroke-opacity:1; fill:none" points="156.112,1486.45 156.112,47.2441 "/>
<polyline clip-path="url(#clip130)" style="stroke:#000000; stroke-linecap:round; stroke-linejoin:round; stroke-width:4; stroke-opacity:1; fill:none" points="156.112,1464.05 171.177,1464.05 "/>
<polyline clip-path="url(#clip130)" style="stroke:#000000; stroke-linecap:round; stroke-linejoin:round; stroke-width:4; stroke-opacity:1; fill:none" points="156.112,1160.27 171.177,1160.27 "/>
<polyline clip-path="url(#clip130)" style="stroke:#000000; stroke-linecap:round; stroke-linejoin:round; stroke-width:4; stroke-opacity:1; fill:none" points="156.112,856.493 171.177,856.493 "/>
<polyline clip-path="url(#clip130)" style="stroke:#000000; stroke-linecap:round; stroke-linejoin:round; stroke-width:4; stroke-opacity:1; fill:none" points="156.112,552.715 171.177,552.715 "/>
<polyline clip-path="url(#clip130)" style="stroke:#000000; stroke-linecap:round; stroke-linejoin:round; stroke-width:4; stroke-opacity:1; fill:none" points="156.112,248.937 171.177,248.937 "/>
<path clip-path="url(#clip130)" d="M62.9365 1449.85 Q59.3254 1449.85 57.4967 1453.41 Q55.6912 1456.95 55.6912 1464.08 Q55.6912 1471.19 57.4967 1474.75 Q59.3254 1478.3 62.9365 1478.3 Q66.5707 1478.3 68.3763 1474.75 Q70.205 1471.19 70.205 1464.08 Q70.205 1456.95 68.3763 1453.41 Q66.5707 1449.85 62.9365 1449.85 M62.9365 1446.14 Q68.7467 1446.14 71.8022 1450.75 Q74.8809 1455.33 74.8809 1464.08 Q74.8809 1472.81 71.8022 1477.42 Q68.7467 1482 62.9365 1482 Q57.1264 1482 54.0477 1477.42 Q50.9921 1472.81 50.9921 1464.08 Q50.9921 1455.33 54.0477 1450.75 Q57.1264 1446.14 62.9365 1446.14 Z" fill="#000000" fill-rule="nonzero" fill-opacity="1" /><path clip-path="url(#clip130)" d="M83.0984 1475.45 L87.9827 1475.45 L87.9827 1481.33 L83.0984 1481.33 L83.0984 1475.45 Z" fill="#000000" fill-rule="nonzero" fill-opacity="1" /><path clip-path="url(#clip130)" d="M108.168 1449.85 Q104.557 1449.85 102.728 1453.41 Q100.922 1456.95 100.922 1464.08 Q100.922 1471.19 102.728 1474.75 Q104.557 1478.3 108.168 1478.3 Q111.802 1478.3 113.608 1474.75 Q115.436 1471.19 115.436 1464.08 Q115.436 1456.95 113.608 1453.41 Q111.802 1449.85 108.168 1449.85 M108.168 1446.14 Q113.978 1446.14 117.033 1450.75 Q120.112 1455.33 120.112 1464.08 Q120.112 1472.81 117.033 1477.42 Q113.978 1482 108.168 1482 Q102.358 1482 99.2789 1477.42 Q96.2234 1472.81 96.2234 1464.08 Q96.2234 1455.33 99.2789 1450.75 Q102.358 1446.14 108.168 1446.14 Z" fill="#000000" fill-rule="nonzero" fill-opacity="1" /><path clip-path="url(#clip130)" d="M63.9319 1146.07 Q60.3208 1146.07 58.4921 1149.63 Q56.6865 1153.18 56.6865 1160.3 Q56.6865 1167.41 58.4921 1170.98 Q60.3208 1174.52 63.9319 1174.52 Q67.5661 1174.52 69.3717 1170.98 Q71.2004 1167.41 71.2004 1160.3 Q71.2004 1153.18 69.3717 1149.63 Q67.5661 1146.07 63.9319 1146.07 M63.9319 1142.37 Q69.742 1142.37 72.7976 1146.97 Q75.8763 1151.55 75.8763 1160.3 Q75.8763 1169.03 72.7976 1173.64 Q69.742 1178.22 63.9319 1178.22 Q58.1217 1178.22 55.043 1173.64 Q51.9875 1169.03 51.9875 1160.3 Q51.9875 1151.55 55.043 1146.97 Q58.1217 1142.37 63.9319 1142.37 Z" fill="#000000" fill-rule="nonzero" fill-opacity="1" /><path clip-path="url(#clip130)" d="M84.0938 1171.67 L88.978 1171.67 L88.978 1177.55 L84.0938 1177.55 L84.0938 1171.67 Z" fill="#000000" fill-rule="nonzero" fill-opacity="1" /><path clip-path="url(#clip130)" d="M99.2095 1142.99 L117.566 1142.99 L117.566 1146.93 L103.492 1146.93 L103.492 1155.4 Q104.51 1155.05 105.529 1154.89 Q106.547 1154.7 107.566 1154.7 Q113.353 1154.7 116.733 1157.87 Q120.112 1161.05 120.112 1166.46 Q120.112 1172.04 116.64 1175.14 Q113.168 1178.22 106.848 1178.22 Q104.672 1178.22 102.404 1177.85 Q100.159 1177.48 97.7511 1176.74 L97.7511 1172.04 Q99.8345 1173.18 102.057 1173.73 Q104.279 1174.29 106.756 1174.29 Q110.76 1174.29 113.098 1172.18 Q115.436 1170.07 115.436 1166.46 Q115.436 1162.85 113.098 1160.74 Q110.76 1158.64 106.756 1158.64 Q104.881 1158.64 103.006 1159.05 Q101.154 1159.47 99.2095 1160.35 L99.2095 1142.99 Z" fill="#000000" fill-rule="nonzero" fill-opacity="1" /><path clip-path="url(#clip130)" d="M53.7467 869.837 L61.3856 869.837 L61.3856 843.472 L53.0754 845.138 L53.0754 840.879 L61.3393 839.213 L66.0152 839.213 L66.0152 869.837 L73.654 869.837 L73.654 873.773 L53.7467 873.773 L53.7467 869.837 Z" fill="#000000" fill-rule="nonzero" fill-opacity="1" /><path clip-path="url(#clip130)" d="M83.0984 867.893 L87.9827 867.893 L87.9827 873.773 L83.0984 873.773 L83.0984 867.893 Z" fill="#000000" fill-rule="nonzero" fill-opacity="1" /><path clip-path="url(#clip130)" d="M108.168 842.291 Q104.557 842.291 102.728 845.856 Q100.922 849.398 100.922 856.527 Q100.922 863.634 102.728 867.199 Q104.557 870.74 108.168 870.74 Q111.802 870.74 113.608 867.199 Q115.436 863.634 115.436 856.527 Q115.436 849.398 113.608 845.856 Q111.802 842.291 108.168 842.291 M108.168 838.588 Q113.978 838.588 117.033 843.194 Q120.112 847.777 120.112 856.527 Q120.112 865.254 117.033 869.861 Q113.978 874.444 108.168 874.444 Q102.358 874.444 99.2789 869.861 Q96.2234 865.254 96.2234 856.527 Q96.2234 847.777 99.2789 843.194 Q102.358 838.588 108.168 838.588 Z" fill="#000000" fill-rule="nonzero" fill-opacity="1" /><path clip-path="url(#clip130)" d="M54.7421 566.06 L62.381 566.06 L62.381 539.694 L54.0708 541.361 L54.0708 537.102 L62.3347 535.435 L67.0106 535.435 L67.0106 566.06 L74.6494 566.06 L74.6494 569.995 L54.7421 569.995 L54.7421 566.06 Z" fill="#000000" fill-rule="nonzero" fill-opacity="1" /><path clip-path="url(#clip130)" d="M84.0938 564.115 L88.978 564.115 L88.978 569.995 L84.0938 569.995 L84.0938 564.115 Z" fill="#000000" fill-rule="nonzero" fill-opacity="1" /><path clip-path="url(#clip130)" d="M99.2095 535.435 L117.566 535.435 L117.566 539.37 L103.492 539.37 L103.492 547.842 Q104.51 547.495 105.529 547.333 Q106.547 547.148 107.566 547.148 Q113.353 547.148 116.733 550.319 Q120.112 553.49 120.112 558.907 Q120.112 564.486 116.64 567.587 Q113.168 570.666 106.848 570.666 Q104.672 570.666 102.404 570.296 Q100.159 569.925 97.7511 569.185 L97.7511 564.486 Q99.8345 565.62 102.057 566.175 Q104.279 566.731 106.756 566.731 Q110.76 566.731 113.098 564.625 Q115.436 562.518 115.436 558.907 Q115.436 555.296 113.098 553.189 Q110.76 551.083 106.756 551.083 Q104.881 551.083 103.006 551.5 Q101.154 551.916 99.2095 552.796 L99.2095 535.435 Z" fill="#000000" fill-rule="nonzero" fill-opacity="1" /><path clip-path="url(#clip130)" d="M56.9643 262.282 L73.2837 262.282 L73.2837 266.217 L51.3393 266.217 L51.3393 262.282 Q54.0014 259.527 58.5847 254.898 Q63.1911 250.245 64.3717 248.902 Q66.617 246.379 67.4967 244.643 Q68.3994 242.884 68.3994 241.194 Q68.3994 238.44 66.455 236.703 Q64.5337 234.967 61.4319 234.967 Q59.2328 234.967 56.7791 235.731 Q54.3486 236.495 51.5708 238.046 L51.5708 233.324 Q54.3949 232.19 56.8486 231.611 Q59.3023 231.032 61.3393 231.032 Q66.7096 231.032 69.9041 233.717 Q73.0985 236.403 73.0985 240.893 Q73.0985 243.023 72.2883 244.944 Q71.5013 246.842 69.3948 249.435 Q68.8161 250.106 65.7143 253.324 Q62.6124 256.518 56.9643 262.282 Z" fill="#000000" fill-rule="nonzero" fill-opacity="1" /><path clip-path="url(#clip130)" d="M83.0984 260.338 L87.9827 260.338 L87.9827 266.217 L83.0984 266.217 L83.0984 260.338 Z" fill="#000000" fill-rule="nonzero" fill-opacity="1" /><path clip-path="url(#clip130)" d="M108.168 234.736 Q104.557 234.736 102.728 238.301 Q100.922 241.842 100.922 248.972 Q100.922 256.078 102.728 259.643 Q104.557 263.185 108.168 263.185 Q111.802 263.185 113.608 259.643 Q115.436 256.078 115.436 248.972 Q115.436 241.842 113.608 238.301 Q111.802 234.736 108.168 234.736 M108.168 231.032 Q113.978 231.032 117.033 235.639 Q120.112 240.222 120.112 248.972 Q120.112 257.699 117.033 262.305 Q113.978 266.889 108.168 266.889 Q102.358 266.889 99.2789 262.305 Q96.2234 257.699 96.2234 248.972 Q96.2234 240.222 99.2789 235.639 Q102.358 231.032 108.168 231.032 Z" fill="#000000" fill-rule="nonzero" fill-opacity="1" /><polyline clip-path="url(#clip132)" style="stroke:#009af9; stroke-linecap:round; stroke-linejoin:round; stroke-width:4; stroke-opacity:1; fill:none" points="205.673,789.715 216.063,836.44 226.453,815.391 236.843,818.994 247.233,823.22 257.623,847.648 268.013,864.104 278.403,888.714 288.793,831.758 299.183,869.29 309.574,868.175 319.964,880.493 330.354,889.155 340.744,846.031 351.134,864.795 361.524,816.551 371.914,843.073 382.304,824.573 392.694,875.044 403.084,890.57 413.474,845.436 423.864,863.922 434.254,870.491 444.644,905.15 455.035,873.743 465.425,873.619 475.815,875.256 486.205,889.733 496.595,894.95 506.985,871.168 517.375,854.024 527.765,900.518 538.155,858.037 548.545,861.191 558.935,854.648 569.325,876.328 579.715,844.526 590.106,832.569 600.496,808.857 610.886,879.43 621.276,828.698 631.666,831.389 642.056,811.437 652.446,816.797 662.836,836.479 673.226,828.312 683.616,871.532 694.006,821.955 704.396,809.857 714.786,830.755 725.176,857.245 735.567,904.753 745.957,915.858 756.347,868.955 766.737,880.856 777.127,870.838 787.517,894.15 797.907,888.79 808.297,896.571 818.687,861.008 829.077,904.012 839.467,915.974 849.857,960.044 860.247,919.99 870.637,916.321 881.028,951.121 891.418,896.535 901.808,911.929 912.198,876.404 922.588,901.416 932.978,888.084 943.368,867.14 953.758,862.014 964.148,843.887 974.538,882.979 984.928,873.077 995.318,880.272 1005.71,848.487 1016.1,838.479 1026.49,873.239 1036.88,860.551 1047.27,825.867 1057.66,816.433 1068.05,864.598 1078.44,856.348 1088.83,856.498 1099.22,863.145 1109.61,844.159 1120,826.362 1130.39,857.666 1140.78,863.566 1151.17,884.017 1161.56,870.823 1171.95,848.635 1182.34,805.325 1192.73,764.529 1203.12,816.851 1213.51,828.928 1223.9,840.17 1234.29,815.878 1244.68,824.387 1255.07,801.04 1265.46,840.518 1275.85,813.559 1286.24,848.889 1296.63,848.348 1307.02,854.203 1317.41,882.966 1327.8,880.14 1338.19,834.577 1348.58,853.2 1358.97,854.966 1369.36,853.648 1379.75,846.674 1390.14,757.044 1400.53,804.736 1410.92,822.411 1421.31,826.458 1431.7,800.444 1442.09,834.768 1452.48,796.643 1462.87,846.996 1473.26,834.127 1483.65,835.744 1494.04,783.816 1504.43,752.777 1514.82,790.784 1525.21,834.038 1535.6,854.292 1545.99,908.185 1556.38,876.742 1566.77,839.361 1577.16,859.691 1587.55,874.22 1597.94,875.427 1608.33,882.577 1618.72,871.862 1629.11,898.012 1639.5,880.965 1649.89,855.866 1660.28,807.966 1670.67,810.529 1681.06,793.352 1691.45,849.123 1701.84,829.232 1712.23,823.357 1722.62,826.503 1733.01,801.468 1743.4,809.851 1753.79,814.709 1764.18,855.881 1774.57,852.852 1784.96,836.299 1795.35,867.882 1805.74,841.879 1816.13,808.657 1826.52,771.997 1836.91,822.454 1847.3,801.94 1857.69,851.845 "/>
<polyline clip-path="url(#clip132)" style="stroke:#e26f46; stroke-linecap:round; stroke-linejoin:round; stroke-width:4; stroke-opacity:1; fill:none" points="205.673,991.258 216.063,982.582 226.453,978.043 236.843,985.545 247.233,980.531 257.623,990.898 268.013,1001.44 278.403,992.599 288.793,986.039 299.183,980.663 309.574,984.825 319.964,982.616 330.354,981.071 340.744,969.866 351.134,1005.25 361.524,989.489 371.914,1001.38 382.304,987.312 392.694,1002.79 403.084,993.786 413.474,977.363 423.864,994.31 434.254,989.376 444.644,980.86 455.035,1004.78 465.425,994.861 475.815,999.923 486.205,983.39 496.595,997.362 506.985,979.917 517.375,994.655 527.765,987.488 538.155,983.473 548.545,993.241 558.935,997.38 569.325,995.228 579.715,1014.21 590.106,976.982 600.496,998.075 610.886,994.817 621.276,976.007 631.666,993.454 642.056,999.908 652.446,996.032 662.836,1004.21 673.226,993.895 683.616,993.827 694.006,990.262 704.396,1006.64 714.786,1000.65 725.176,995.584 735.567,1003.84 745.957,993.541 756.347,1002.33 766.737,995.063 777.127,993.354 787.517,1000.05 797.907,1007.51 808.297,1006.88 818.687,1014.7 829.077,1002.49 839.467,983.809 849.857,1015.5 860.247,1017.62 870.637,1003.07 881.028,1012.59 891.418,1026.09 901.808,998.161 912.198,1020.3 922.588,1003.69 932.978,1020.01 943.368,991.825 953.758,1027.03 964.148,1006.15 974.538,1000.11 984.928,1007.43 995.318,1008.34 1005.71,1007.47 1016.1,1014.87 1026.49,1004.55 1036.88,1012.48 1047.27,1010.07 1057.66,993.64 1068.05,1004.74 1078.44,1002.01 1088.83,1008.97 1099.22,1038.78 1109.61,990.326 1120,992.598 1130.39,992.242 1140.78,1004.54 1151.17,996.555 1161.56,1016.48 1171.95,1004.2 1182.34,986.309 1192.73,994.729 1203.12,1004.22 1213.51,993.353 1223.9,998.754 1234.29,995.009 1244.68,987.76 1255.07,993.328 1265.46,975.314 1275.85,1007.69 1286.24,990.773 1296.63,976.041 1307.02,995.487 1317.41,992.564 1327.8,999.177 1338.19,1000.66 1348.58,995.248 1358.97,994.238 1369.36,994.053 1379.75,981.073 1390.14,989.436 1400.53,992.656 1410.92,992.826 1421.31,998.019 1431.7,989.829 1442.09,1005.37 1452.48,980.4 1462.87,986.171 1473.26,995.98 1483.65,984.431 1494.04,984.157 1504.43,981.187 1514.82,985.658 1525.21,998.492 1535.6,977.649 1545.99,978.659 1556.38,984.311 1566.77,986.014 1577.16,996.121 1587.55,1009.49 1597.94,1008.28 1608.33,981.962 1618.72,994.849 1629.11,992.073 1639.5,979.651 1649.89,994.68 1660.28,992.315 1670.67,986.518 1681.06,994.028 1691.45,1011.81 1701.84,995.288 1712.23,979.531 1722.62,997.264 1733.01,982.583 1743.4,969.026 1753.79,997.087 1764.18,993.006 1774.57,996.974 1784.96,985.695 1795.35,980.605 1805.74,984.04 1816.13,973.3 1826.52,1002.69 1836.91,977.93 1847.3,985.624 1857.69,995.888 "/>
<polyline clip-path="url(#clip132)" style="stroke:#3da44d; stroke-linecap:round; stroke-linejoin:round; stroke-width:4; stroke-opacity:1; fill:none" points="205.673,1247.15 216.063,1266.86 226.453,1259.97 236.843,1251.08 247.233,1256.53 257.623,1279.82 268.013,1264.38 278.403,1273.29 288.793,1264.19 299.183,1266.27 309.574,1272.62 319.964,1266.83 330.354,1280.31 340.744,1259.09 351.134,1267.8 361.524,1255.49 371.914,1242.72 382.304,1252.52 392.694,1269.68 403.084,1285.28 413.474,1269.33 423.864,1260.3 434.254,1270.24 444.644,1283.84 455.035,1273.42 465.425,1279.03 475.815,1270.06 486.205,1282.78 496.595,1282.27 506.985,1272.57 517.375,1276.43 527.765,1275.8 538.155,1272.42 548.545,1262.47 558.935,1265.13 569.325,1262.19 579.715,1247.19 590.106,1247.54 600.496,1244.43 610.886,1252.07 621.276,1237.76 631.666,1251.57 642.056,1241.63 652.446,1249.81 662.836,1260.48 673.226,1269.27 683.616,1274.48 694.006,1242.41 704.396,1262.46 714.786,1253.65 725.176,1275.98 735.567,1276.78 745.957,1295.12 756.347,1273.07 766.737,1277.17 777.127,1259.66 787.517,1259.93 797.907,1272.51 808.297,1277.17 818.687,1269.72 829.077,1282.91 839.467,1292.04 849.857,1308.46 860.247,1291.78 870.637,1283.58 881.028,1289.62 891.418,1264.28 901.808,1272.17 912.198,1270.18 922.588,1269.78 932.978,1262.16 943.368,1265.57 953.758,1265.88 964.148,1248.85 974.538,1268.45 984.928,1269.95 995.318,1274.09 1005.71,1258.04 1016.1,1259.46 1026.49,1261.57 1036.88,1266.51 1047.27,1254.22 1057.66,1247.61 1068.05,1263.72 1078.44,1258.47 1088.83,1263.17 1099.22,1255.47 1109.61,1249.35 1120,1241.64 1130.39,1260.63 1140.78,1261.98 1151.17,1266.5 1161.56,1263.19 1171.95,1251.89 1182.34,1247.3 1192.73,1220.43 1203.12,1246.86 1213.51,1246.99 1223.9,1253.62 1234.29,1248.48 1244.68,1240.04 1255.07,1240.33 1265.46,1257.73 1275.85,1248.67 1286.24,1257.24 1296.63,1264.16 1307.02,1262.99 1317.41,1281.2 1327.8,1267.28 1338.19,1257.29 1348.58,1259.23 1358.97,1263.09 1369.36,1258.05 1379.75,1250.66 1390.14,1229.89 1400.53,1251.05 1410.92,1259.98 1421.31,1253.06 1431.7,1256.72 1442.09,1260.2 1452.48,1251.18 1462.87,1278.16 1473.26,1277.66 1483.65,1262.71 1494.04,1257.11 1504.43,1238.77 1514.82,1257.58 1525.21,1267.38 1535.6,1283.38 1545.99,1288.72 1556.38,1268.99 1566.77,1264.92 1577.16,1274.05 1587.55,1276.46 1597.94,1286.37 1608.33,1281.18 1618.72,1282.03 1629.11,1284.1 1639.5,1277.09 1649.89,1269.58 1660.28,1266.42 1670.67,1248.12 1681.06,1254.38 1691.45,1263.87 1701.84,1260.43 1712.23,1246.99 1722.62,1247.89 1733.01,1233.7 1743.4,1253.55 1753.79,1250.94 1764.18,1260.23 1774.57,1269.06 1784.96,1273.46 1795.35,1272.39 1805.74,1255.79 1816.13,1236.19 1826.52,1227.89 1836.91,1243.83 1847.3,1240.95 1857.69,1274.15 "/>
<polyline clip-path="url(#clip132)" style="stroke:#c271d2; stroke-linecap:round; stroke-linejoin:round; stroke-width:4; stroke-opacity:1; fill:none" points="205.673,1442.91 216.063,1444.32 226.453,1443.45 236.843,1443.42 247.233,1442.87 257.623,1445.42 268.013,1444.52 278.403,1444.61 288.793,1444.37 299.183,1443.82 309.574,1445.04 319.964,1444.43 330.354,1444.45 340.744,1443.9 351.134,1444.92 361.524,1442.67 371.914,1442.9 382.304,1443.64 392.694,1443.82 403.084,1445.05 413.474,1444.11 423.864,1443.54 434.254,1443.82 444.644,1445.37 455.035,1444.17 465.425,1444.31 475.815,1444.06 486.205,1444.99 496.595,1444.26 506.985,1444.34 517.375,1443.71 527.765,1443.83 538.155,1443.19 548.545,1442.61 558.935,1441.91 569.325,1443.5 579.715,1441.48 590.106,1441.76 600.496,1441.81 610.886,1441.98 621.276,1441.14 631.666,1441.81 642.056,1441.93 652.446,1442.35 662.836,1442.34 673.226,1443.09 683.616,1443.46 694.006,1441.2 704.396,1443.03 714.786,1442.43 725.176,1444.35 735.567,1444.56 745.957,1445.68 756.347,1443.07 766.737,1444.18 777.127,1443.06 787.517,1442.53 797.907,1443.81 808.297,1443.52 818.687,1442.51 829.077,1443.34 839.467,1444.72 849.857,1444.76 860.247,1444.73 870.637,1442.59 881.028,1444.51 891.418,1442.29 901.808,1442.77 912.198,1441.98 922.588,1442.11 932.978,1442.01 943.368,1440.72 953.758,1441.79 964.148,1440.61 974.538,1442.42 984.928,1442.14 995.318,1441.67 1005.71,1441.12 1016.1,1440.15 1026.49,1441.08 1036.88,1440.76 1047.27,1441.09 1057.66,1440.8 1068.05,1442.13 1078.44,1441.33 1088.83,1441.56 1099.22,1442.42 1109.61,1441.84 1120,1440.6 1130.39,1442.52 1140.78,1443.29 1151.17,1442.01 1161.56,1442.41 1171.95,1441.27 1182.34,1440.84 1192.73,1439.84 1203.12,1440.76 1213.51,1440.94 1223.9,1442.54 1234.29,1442.24 1244.68,1441.64 1255.07,1441.14 1265.46,1442.41 1275.85,1442.35 1286.24,1442.87 1296.63,1443.53 1307.02,1442.84 1317.41,1443.47 1327.8,1443.21 1338.19,1442.47 1348.58,1442.33 1358.97,1442.63 1369.36,1442.32 1379.75,1441.97 1390.14,1439.58 1400.53,1442.32 1410.92,1443.09 1421.31,1443.23 1431.7,1442.41 1442.09,1442.09 1452.48,1441.48 1462.87,1443.63 1473.26,1443.41 1483.65,1442.81 1494.04,1442.54 1504.43,1440.5 1514.82,1442.22 1525.21,1442.71 1535.6,1444.32 1545.99,1445.62 1556.38,1444.54 1566.77,1443.57 1577.16,1443.63 1587.55,1444.87 1597.94,1445.72 1608.33,1444.64 1618.72,1444.2 1629.11,1444.23 1639.5,1443.52 1649.89,1443.35 1660.28,1442.31 1670.67,1440.38 1681.06,1441.61 1691.45,1443.01 1701.84,1442.64 1712.23,1441.92 1722.62,1441.88 1733.01,1442.3 1743.4,1442.51 1753.79,1442.23 1764.18,1443.31 1774.57,1443.61 1784.96,1442.73 1795.35,1443.67 1805.74,1443.15 1816.13,1441.93 1826.52,1440.61 1836.91,1442.75 1847.3,1442.74 1857.69,1444.23 "/>
<polyline clip-path="url(#clip132)" style="stroke:#ac8d18; stroke-linecap:round; stroke-linejoin:round; stroke-width:4; stroke-opacity:1; fill:none" points="205.673,197.077 216.063,225.958 226.453,219.486 236.843,180.349 247.233,214.399 257.623,184.143 268.013,171.012 278.403,196.534 288.793,146.305 299.183,156.183 309.574,154.722 319.964,184.252 330.354,186.458 340.744,220.551 351.134,292.38 361.524,280.486 371.914,288.225 382.304,245.398 392.694,226.175 403.084,211.964 413.474,254.151 423.864,226.753 434.254,180.229 444.644,140.875 455.035,215.451 465.425,202.284 475.815,174.078 486.205,177.442 496.595,237.578 506.985,229.58 517.375,194.707 527.765,149.744 538.155,233.566 548.545,179.207 558.935,263.703 569.325,237.918 579.715,278.986 590.106,255.48 600.496,297.34 610.886,279.072 621.276,277.848 631.666,242.736 642.056,244.223 652.446,218.835 662.836,217.022 673.226,183.474 683.616,187.429 694.006,222.347 704.396,188.404 714.786,222.267 725.176,219.258 735.567,184.392 745.957,198.14 756.347,263.999 766.737,193.659 777.127,233.015 787.517,274.817 797.907,229.957 808.297,216.359 818.687,202.562 829.077,200.875 839.467,179.527 849.857,184.751 860.247,165.922 870.637,236.135 881.028,192.358 891.418,286.182 901.808,298.754 912.198,271.625 922.588,261.575 932.978,216.627 943.368,277.116 953.758,246.859 964.148,284.482 974.538,214.982 984.928,267.195 995.318,195.83 1005.71,264.955 1016.1,244.636 1026.49,219.459 1036.88,212.308 1047.27,259.362 1057.66,305.141 1068.05,282.75 1078.44,276.592 1088.83,221.205 1099.22,250.335 1109.61,292.2 1120,289.306 1130.39,286.36 1140.78,293.41 1151.17,259.349 1161.56,215.666 1171.95,310.452 1182.34,252.791 1192.73,310.091 1203.12,263.097 1213.51,259.79 1223.9,216.134 1234.29,278.035 1244.68,297.278 1255.07,275.748 1265.46,234.993 1275.85,274.522 1286.24,217.815 1296.63,226.543 1307.02,212.009 1317.41,167.812 1327.8,280.924 1338.19,252.394 1348.58,209.254 1358.97,227.669 1369.36,214.103 1379.75,194.756 1390.14,248.607 1400.53,234.986 1410.92,218.135 1421.31,133.972 1431.7,168.908 1442.09,182.347 1452.48,154.878 1462.87,87.9763 1473.26,188.013 1483.65,159.521 1494.04,189.667 1504.43,194.343 1514.82,99.3582 1525.21,133.565 1535.6,104.247 1545.99,143.192 1556.38,162.528 1566.77,179.926 1577.16,201.465 1587.55,174.958 1597.94,123.111 1608.33,183.001 1618.72,164.238 1629.11,174.445 1639.5,252.505 1649.89,181.235 1660.28,214.896 1670.67,261.885 1681.06,217.755 1691.45,189.408 1701.84,220.967 1712.23,283.48 1722.62,257.918 1733.01,236.692 1743.4,192.506 1753.79,212.241 1764.18,239.199 1774.57,142.989 1784.96,181.145 1795.35,108.52 1805.74,177.489 1816.13,251.238 1826.52,243.722 1836.91,247.895 1847.3,264.582 1857.69,218.805 "/>
<path clip-path="url(#clip130)" d="M1980.48 406.258 L2352.76 406.258 L2352.76 95.2176 L1980.48 95.2176  Z" fill="#ffffff" fill-rule="evenodd" fill-opacity="1"/>
<polyline clip-path="url(#clip130)" style="stroke:#000000; stroke-linecap:round; stroke-linejoin:round; stroke-width:4; stroke-opacity:1; fill:none" points="1980.48,406.258 2352.76,406.258 2352.76,95.2176 1980.48,95.2176 1980.48,406.258 "/>
<polyline clip-path="url(#clip130)" style="stroke:#009af9; stroke-linecap:round; stroke-linejoin:round; stroke-width:4; stroke-opacity:1; fill:none" points="2004.88,147.058 2151.33,147.058 "/>
<path clip-path="url(#clip130)" d="M2187.63 141.398 Q2184.21 141.398 2182.22 144.083 Q2180.22 146.745 2180.22 151.398 Q2180.22 156.051 2182.19 158.736 Q2184.18 161.398 2187.63 161.398 Q2191.03 161.398 2193.03 158.713 Q2195.02 156.027 2195.02 151.398 Q2195.02 146.791 2193.03 144.106 Q2191.03 141.398 2187.63 141.398 M2187.63 137.787 Q2193.19 137.787 2196.36 141.398 Q2199.53 145.009 2199.53 151.398 Q2199.53 157.764 2196.36 161.398 Q2193.19 165.009 2187.63 165.009 Q2182.05 165.009 2178.88 161.398 Q2175.73 157.764 2175.73 151.398 Q2175.73 145.009 2178.88 141.398 Q2182.05 137.787 2187.63 137.787 Z" fill="#000000" fill-rule="nonzero" fill-opacity="1" /><path clip-path="url(#clip130)" d="M2206.15 154.106 L2206.15 138.412 L2210.41 138.412 L2210.41 153.944 Q2210.41 157.625 2211.84 159.476 Q2213.28 161.305 2216.15 161.305 Q2219.6 161.305 2221.59 159.106 Q2223.6 156.907 2223.6 153.111 L2223.6 138.412 L2227.86 138.412 L2227.86 164.338 L2223.6 164.338 L2223.6 160.356 Q2222.05 162.717 2219.99 163.875 Q2217.96 165.009 2215.25 165.009 Q2210.78 165.009 2208.47 162.231 Q2206.15 159.453 2206.15 154.106 M2216.87 137.787 L2216.87 137.787 Z" fill="#000000" fill-rule="nonzero" fill-opacity="1" /><path clip-path="url(#clip130)" d="M2240.85 131.051 L2240.85 138.412 L2249.62 138.412 L2249.62 141.722 L2240.85 141.722 L2240.85 155.796 Q2240.85 158.967 2241.71 159.87 Q2242.59 160.773 2245.25 160.773 L2249.62 160.773 L2249.62 164.338 L2245.25 164.338 Q2240.32 164.338 2238.44 162.509 Q2236.57 160.657 2236.57 155.796 L2236.57 141.722 L2233.44 141.722 L2233.44 138.412 L2236.57 138.412 L2236.57 131.051 L2240.85 131.051 Z" fill="#000000" fill-rule="nonzero" fill-opacity="1" /><path clip-path="url(#clip130)" d="M2259.34 160.449 L2259.34 174.199 L2255.06 174.199 L2255.06 138.412 L2259.34 138.412 L2259.34 142.347 Q2260.69 140.032 2262.72 138.921 Q2264.78 137.787 2267.63 137.787 Q2272.35 137.787 2275.29 141.537 Q2278.26 145.287 2278.26 151.398 Q2278.26 157.509 2275.29 161.259 Q2272.35 165.009 2267.63 165.009 Q2264.78 165.009 2262.72 163.898 Q2260.69 162.763 2259.34 160.449 M2273.84 151.398 Q2273.84 146.699 2271.89 144.037 Q2269.97 141.352 2266.59 141.352 Q2263.21 141.352 2261.27 144.037 Q2259.34 146.699 2259.34 151.398 Q2259.34 156.097 2261.27 158.782 Q2263.21 161.444 2266.59 161.444 Q2269.97 161.444 2271.89 158.782 Q2273.84 156.097 2273.84 151.398 Z" fill="#000000" fill-rule="nonzero" fill-opacity="1" /><path clip-path="url(#clip130)" d="M2284.88 154.106 L2284.88 138.412 L2289.14 138.412 L2289.14 153.944 Q2289.14 157.625 2290.57 159.476 Q2292.01 161.305 2294.88 161.305 Q2298.33 161.305 2300.32 159.106 Q2302.33 156.907 2302.33 153.111 L2302.33 138.412 L2306.59 138.412 L2306.59 164.338 L2302.33 164.338 L2302.33 160.356 Q2300.78 162.717 2298.72 163.875 Q2296.68 165.009 2293.97 165.009 Q2289.51 165.009 2287.19 162.231 Q2284.88 159.453 2284.88 154.106 M2295.59 137.787 L2295.59 137.787 Z" fill="#000000" fill-rule="nonzero" fill-opacity="1" /><path clip-path="url(#clip130)" d="M2319.58 131.051 L2319.58 138.412 L2328.35 138.412 L2328.35 141.722 L2319.58 141.722 L2319.58 155.796 Q2319.58 158.967 2320.43 159.87 Q2321.31 160.773 2323.97 160.773 L2328.35 160.773 L2328.35 164.338 L2323.97 164.338 Q2319.04 164.338 2317.17 162.509 Q2315.29 160.657 2315.29 155.796 L2315.29 141.722 L2312.17 141.722 L2312.17 138.412 L2315.29 138.412 L2315.29 131.051 L2319.58 131.051 Z" fill="#000000" fill-rule="nonzero" fill-opacity="1" /><polyline clip-path="url(#clip130)" style="stroke:#e26f46; stroke-linecap:round; stroke-linejoin:round; stroke-width:4; stroke-opacity:1; fill:none" points="2004.88,198.898 2151.33,198.898 "/>
<path clip-path="url(#clip130)" d="M2196.24 191.247 L2196.24 195.229 Q2194.44 194.233 2192.61 193.747 Q2190.8 193.238 2188.95 193.238 Q2184.81 193.238 2182.52 195.877 Q2180.22 198.492 2180.22 203.238 Q2180.22 207.983 2182.52 210.622 Q2184.81 213.238 2188.95 213.238 Q2190.8 213.238 2192.61 212.752 Q2194.44 212.242 2196.24 211.247 L2196.24 215.182 Q2194.46 216.016 2192.54 216.432 Q2190.64 216.849 2188.49 216.849 Q2182.63 216.849 2179.18 213.168 Q2175.73 209.488 2175.73 203.238 Q2175.73 196.895 2179.21 193.261 Q2182.7 189.627 2188.77 189.627 Q2190.73 189.627 2192.61 190.043 Q2194.48 190.437 2196.24 191.247 Z" fill="#000000" fill-rule="nonzero" fill-opacity="1" /><path clip-path="url(#clip130)" d="M2213.7 193.238 Q2210.27 193.238 2208.28 195.923 Q2206.29 198.585 2206.29 203.238 Q2206.29 207.891 2208.26 210.576 Q2210.25 213.238 2213.7 213.238 Q2217.1 213.238 2219.09 210.553 Q2221.08 207.867 2221.08 203.238 Q2221.08 198.631 2219.09 195.946 Q2217.1 193.238 2213.7 193.238 M2213.7 189.627 Q2219.25 189.627 2222.42 193.238 Q2225.59 196.849 2225.59 203.238 Q2225.59 209.604 2222.42 213.238 Q2219.25 216.849 2213.7 216.849 Q2208.12 216.849 2204.95 213.238 Q2201.8 209.604 2201.8 203.238 Q2201.8 196.849 2204.95 193.238 Q2208.12 189.627 2213.7 189.627 Z" fill="#000000" fill-rule="nonzero" fill-opacity="1" /><path clip-path="url(#clip130)" d="M2254.21 200.529 L2254.21 216.178 L2249.95 216.178 L2249.95 200.668 Q2249.95 196.988 2248.51 195.159 Q2247.08 193.33 2244.21 193.33 Q2240.76 193.33 2238.77 195.53 Q2236.78 197.729 2236.78 201.525 L2236.78 216.178 L2232.49 216.178 L2232.49 190.252 L2236.78 190.252 L2236.78 194.28 Q2238.3 191.942 2240.36 190.784 Q2242.45 189.627 2245.15 189.627 Q2249.62 189.627 2251.91 192.405 Q2254.21 195.159 2254.21 200.529 Z" fill="#000000" fill-rule="nonzero" fill-opacity="1" /><path clip-path="url(#clip130)" d="M2279.23 191.016 L2279.23 195.043 Q2277.42 194.117 2275.48 193.655 Q2273.53 193.192 2271.45 193.192 Q2268.28 193.192 2266.68 194.164 Q2265.11 195.136 2265.11 197.08 Q2265.11 198.562 2266.24 199.418 Q2267.38 200.252 2270.8 201.016 L2272.26 201.34 Q2276.8 202.312 2278.7 204.094 Q2280.62 205.854 2280.62 209.025 Q2280.62 212.636 2277.75 214.742 Q2274.9 216.849 2269.9 216.849 Q2267.82 216.849 2265.55 216.432 Q2263.3 216.039 2260.8 215.228 L2260.8 210.83 Q2263.16 212.057 2265.46 212.682 Q2267.75 213.284 2269.99 213.284 Q2273 213.284 2274.62 212.266 Q2276.24 211.224 2276.24 209.349 Q2276.24 207.613 2275.06 206.687 Q2273.9 205.761 2269.95 204.904 L2268.46 204.557 Q2264.51 203.724 2262.75 202.011 Q2260.99 200.275 2260.99 197.266 Q2260.99 193.608 2263.58 191.618 Q2266.17 189.627 2270.94 189.627 Q2273.3 189.627 2275.39 189.974 Q2277.47 190.321 2279.23 191.016 Z" fill="#000000" fill-rule="nonzero" fill-opacity="1" /><polyline clip-path="url(#clip130)" style="stroke:#3da44d; stroke-linecap:round; stroke-linejoin:round; stroke-width:4; stroke-opacity:1; fill:none" points="2004.88,250.738 2151.33,250.738 "/>
<path clip-path="url(#clip130)" d="M2197.45 252.369 L2197.45 268.018 L2193.19 268.018 L2193.19 252.508 Q2193.19 248.828 2191.75 246.999 Q2190.32 245.17 2187.45 245.17 Q2184 245.17 2182.01 247.37 Q2180.02 249.569 2180.02 253.365 L2180.02 268.018 L2175.73 268.018 L2175.73 231.999 L2180.02 231.999 L2180.02 246.12 Q2181.54 243.782 2183.6 242.624 Q2185.69 241.467 2188.4 241.467 Q2192.86 241.467 2195.16 244.245 Q2197.45 246.999 2197.45 252.369 Z" fill="#000000" fill-rule="nonzero" fill-opacity="1" /><path clip-path="url(#clip130)" d="M2215.99 245.078 Q2212.56 245.078 2210.57 247.763 Q2208.58 250.425 2208.58 255.078 Q2208.58 259.731 2210.55 262.416 Q2212.54 265.078 2215.99 265.078 Q2219.39 265.078 2221.38 262.393 Q2223.37 259.707 2223.37 255.078 Q2223.37 250.471 2221.38 247.786 Q2219.39 245.078 2215.99 245.078 M2215.99 241.467 Q2221.54 241.467 2224.72 245.078 Q2227.89 248.689 2227.89 255.078 Q2227.89 261.444 2224.72 265.078 Q2221.54 268.689 2215.99 268.689 Q2210.41 268.689 2207.24 265.078 Q2204.09 261.444 2204.09 255.078 Q2204.09 248.689 2207.24 245.078 Q2210.41 241.467 2215.99 241.467 Z" fill="#000000" fill-rule="nonzero" fill-opacity="1" /><path clip-path="url(#clip130)" d="M2234.51 257.786 L2234.51 242.092 L2238.77 242.092 L2238.77 257.624 Q2238.77 261.305 2240.2 263.156 Q2241.64 264.985 2244.51 264.985 Q2247.96 264.985 2249.95 262.786 Q2251.96 260.587 2251.96 256.791 L2251.96 242.092 L2256.22 242.092 L2256.22 268.018 L2251.96 268.018 L2251.96 264.036 Q2250.41 266.397 2248.35 267.555 Q2246.31 268.689 2243.6 268.689 Q2239.14 268.689 2236.82 265.911 Q2234.51 263.133 2234.51 257.786 M2245.22 241.467 L2245.22 241.467 Z" fill="#000000" fill-rule="nonzero" fill-opacity="1" /><path clip-path="url(#clip130)" d="M2280.02 246.073 Q2279.3 245.657 2278.44 245.471 Q2277.61 245.263 2276.59 245.263 Q2272.98 245.263 2271.03 247.624 Q2269.11 249.962 2269.11 254.36 L2269.11 268.018 L2264.83 268.018 L2264.83 242.092 L2269.11 242.092 L2269.11 246.12 Q2270.46 243.758 2272.61 242.624 Q2274.76 241.467 2277.84 241.467 Q2278.28 241.467 2278.81 241.536 Q2279.34 241.583 2279.99 241.698 L2280.02 246.073 Z" fill="#000000" fill-rule="nonzero" fill-opacity="1" /><path clip-path="url(#clip130)" d="M2301.01 242.856 L2301.01 246.883 Q2299.21 245.957 2297.26 245.495 Q2295.32 245.032 2293.23 245.032 Q2290.06 245.032 2288.46 246.004 Q2286.89 246.976 2286.89 248.92 Q2286.89 250.402 2288.02 251.258 Q2289.16 252.092 2292.59 252.856 L2294.04 253.18 Q2298.58 254.152 2300.48 255.934 Q2302.4 257.694 2302.4 260.865 Q2302.4 264.476 2299.53 266.582 Q2296.68 268.689 2291.68 268.689 Q2289.6 268.689 2287.33 268.272 Q2285.09 267.879 2282.59 267.068 L2282.59 262.67 Q2284.95 263.897 2287.24 264.522 Q2289.53 265.124 2291.77 265.124 Q2294.78 265.124 2296.4 264.106 Q2298.02 263.064 2298.02 261.189 Q2298.02 259.453 2296.84 258.527 Q2295.69 257.601 2291.73 256.744 L2290.25 256.397 Q2286.29 255.564 2284.53 253.851 Q2282.77 252.115 2282.77 249.106 Q2282.77 245.448 2285.36 243.458 Q2287.96 241.467 2292.72 241.467 Q2295.09 241.467 2297.17 241.814 Q2299.25 242.161 2301.01 242.856 Z" fill="#000000" fill-rule="nonzero" fill-opacity="1" /><polyline clip-path="url(#clip130)" style="stroke:#c271d2; stroke-linecap:round; stroke-linejoin:round; stroke-width:4; stroke-opacity:1; fill:none" points="2004.88,302.578 2151.33,302.578 "/>
<path clip-path="url(#clip130)" d="M2190.92 297.913 Q2190.2 297.497 2189.34 297.311 Q2188.51 297.103 2187.49 297.103 Q2183.88 297.103 2181.94 299.464 Q2180.02 301.802 2180.02 306.2 L2180.02 319.858 L2175.73 319.858 L2175.73 293.932 L2180.02 293.932 L2180.02 297.96 Q2181.36 295.598 2183.51 294.464 Q2185.66 293.307 2188.74 293.307 Q2189.18 293.307 2189.72 293.376 Q2190.25 293.423 2190.9 293.538 L2190.92 297.913 Z" fill="#000000" fill-rule="nonzero" fill-opacity="1" /><polyline clip-path="url(#clip130)" style="stroke:#ac8d18; stroke-linecap:round; stroke-linejoin:round; stroke-width:4; stroke-opacity:1; fill:none" points="2004.88,354.418 2151.33,354.418 "/>
<path clip-path="url(#clip130)" d="M2175.73 345.772 L2179.99 345.772 L2185.32 366.003 L2190.62 345.772 L2195.64 345.772 L2200.97 366.003 L2206.27 345.772 L2210.53 345.772 L2203.74 371.698 L2198.72 371.698 L2193.14 350.448 L2187.54 371.698 L2182.52 371.698 L2175.73 345.772 Z" fill="#000000" fill-rule="nonzero" fill-opacity="1" /></svg>
